G04 #@! TF.GenerationSoftware,KiCad,Pcbnew,(5.1.9)-1*
G04 #@! TF.CreationDate,2021-12-20T19:14:58-05:00*
G04 #@! TF.ProjectId,mainboard,6d61696e-626f-4617-9264-2e6b69636164,rev?*
G04 #@! TF.SameCoordinates,Original*
G04 #@! TF.FileFunction,Profile,NP*
%FSLAX46Y46*%
G04 Gerber Fmt 4.6, Leading zero omitted, Abs format (unit mm)*
G04 Created by KiCad (PCBNEW (5.1.9)-1) date 2021-12-20 19:14:58*
%MOMM*%
%LPD*%
G01*
G04 APERTURE LIST*
G04 #@! TA.AperFunction,Profile*
%ADD10C,0.254000*%
G04 #@! TD*
G04 APERTURE END LIST*
D10*
X188516102Y-147180298D02*
G75*
G02*
X187322302Y-148374098I-1193800J0D01*
G01*
X187373102Y-110578898D02*
X187754102Y-110578898D01*
X134414102Y-146646898D02*
G75*
G02*
X135607902Y-145453098I1193800J0D01*
G01*
X188516102Y-147180298D02*
X188516102Y-111340898D01*
X171529877Y-47229581D02*
X172147768Y-47229581D01*
X99446547Y-52731597D02*
X103446547Y-52731597D01*
X182929885Y-52248255D02*
X182929885Y-47798272D01*
X103929703Y-52248441D02*
X103929703Y-47822376D01*
X98346102Y-89522298D02*
X98346102Y-53832042D01*
X99108102Y-90284298D02*
X99489102Y-90284298D01*
X100251102Y-109816898D02*
X100251102Y-91046298D01*
X155927902Y-148374098D02*
X187322302Y-148374098D01*
X99108102Y-110578898D02*
X99489102Y-110578898D01*
X135607902Y-145453098D02*
X153540302Y-145453098D01*
X104504898Y-47248258D02*
X109849907Y-47248258D01*
X117329920Y-54736242D02*
G75*
G02*
X116129932Y-55936231I-1199990J1D01*
G01*
X187373102Y-110578898D02*
G75*
G02*
X186611102Y-109816898I0J762000D01*
G01*
X171529913Y-55411264D02*
G75*
G02*
X170954913Y-55986264I-575000J0D01*
G01*
X170729919Y-55986261D02*
G75*
G02*
X169529932Y-54786271I3J1199990D01*
G01*
X155927902Y-148374098D02*
G75*
G02*
X154734102Y-147180298I0J1193800D01*
G01*
X186611102Y-109816898D02*
X186611102Y-91046298D01*
X115904939Y-55936231D02*
X116129932Y-55936231D01*
X109849914Y-47248263D02*
X114549849Y-47248263D01*
X154734102Y-147180298D02*
X154734102Y-146646898D01*
X146229910Y-54786270D02*
G75*
G02*
X143829930Y-54786254I-1199990J-1D01*
G01*
X115904939Y-55936233D02*
G75*
G02*
X115329939Y-55361233I0J575000D01*
G01*
X170729920Y-55986261D02*
X170954913Y-55986261D01*
X117329920Y-54736223D02*
X117329920Y-49411253D01*
X187413224Y-52731600D02*
G75*
G02*
X188516102Y-53834475I0J-1102878D01*
G01*
X174054477Y-48429566D02*
X179054483Y-48429566D01*
X117329920Y-49411250D02*
X143829920Y-49411253D01*
X179654477Y-47829572D02*
G75*
G02*
X179054483Y-48429566I-599994J0D01*
G01*
X171529913Y-55411261D02*
X171529913Y-49311263D01*
X172854490Y-47229578D02*
G75*
G02*
X173454484Y-47829572I0J-599994D01*
G01*
X99108102Y-90284298D02*
G75*
G02*
X98346102Y-89522298I0J762000D01*
G01*
X134414102Y-147180298D02*
G75*
G02*
X133220302Y-148374098I-1193800J0D01*
G01*
X187754102Y-110578898D02*
G75*
G02*
X188516102Y-111340898I0J-762000D01*
G01*
X114549854Y-47248270D02*
X115329903Y-47248270D01*
X187373102Y-90284298D02*
X187754102Y-90284298D01*
X115329903Y-49261251D02*
X115329903Y-47248270D01*
X171529877Y-49311281D02*
X171529877Y-47229581D01*
X180961207Y-47229581D02*
X182361194Y-47229581D01*
X99489102Y-90284298D02*
G75*
G02*
X100251102Y-91046298I0J-762000D01*
G01*
X182361194Y-47229581D02*
G75*
G02*
X182929885Y-47798272I0J-568691D01*
G01*
X99463702Y-148374095D02*
X133220302Y-148374098D01*
X98346093Y-147104098D02*
X98346102Y-111340898D01*
X179654476Y-47829572D02*
G75*
G02*
X180254470Y-47229578I599994J0D01*
G01*
X99463702Y-148374098D02*
G75*
G02*
X98346102Y-147104098I76200J1193800D01*
G01*
X98346102Y-111340898D02*
G75*
G02*
X99108102Y-110578898I762000J0D01*
G01*
X134414102Y-147180298D02*
X134414102Y-146646898D01*
X188516102Y-89522298D02*
G75*
G02*
X187754102Y-90284298I-762000J0D01*
G01*
X103929886Y-47823270D02*
G75*
G02*
X104504898Y-47248258I575012J0D01*
G01*
X169529932Y-54786254D02*
X169529932Y-49411263D01*
X98346102Y-53832042D02*
G75*
G02*
X99446547Y-52731597I1100445J0D01*
G01*
X103929703Y-52248441D02*
G75*
G02*
X103446547Y-52731597I-483156J0D01*
G01*
X146229910Y-54786254D02*
X146229910Y-49411263D01*
X115329939Y-55361231D02*
X115329939Y-49261233D01*
X174054477Y-48429565D02*
G75*
G02*
X173454484Y-47829572I0J599993D01*
G01*
X146229920Y-49411253D02*
X169529922Y-49411253D01*
X183413227Y-52731597D02*
G75*
G02*
X182929885Y-52248255I0J483342D01*
G01*
X172147760Y-47229578D02*
X172854490Y-47229578D01*
X143829930Y-54786254D02*
X143829930Y-49411263D01*
X180254470Y-47229578D02*
X180961200Y-47229578D01*
X153540302Y-145453098D02*
G75*
G02*
X154734102Y-146646898I0J-1193800D01*
G01*
X188516102Y-89522298D02*
X188516102Y-53834475D01*
X100251102Y-109816898D02*
G75*
G02*
X99489102Y-110578898I-762000J0D01*
G01*
X183413227Y-52731597D02*
X187413224Y-52731597D01*
X186611102Y-91046298D02*
G75*
G02*
X187373102Y-90284298I762000J0D01*
G01*
M02*
