M48
INCH,TZ
T1C0.0079
T2C0.0100
T3C0.0150
T4C0.0157
T5C0.0394
T6C0.0510
T7C0.0591
T8C0.0669
T9C0.1250
%
G90
G05
T1
X70506Y-39403
X70506Y-39797
X70900Y-39403
X70900Y-39797
X71294Y-39403
X71294Y-39797
T2
X39350Y-24550
X40550Y-21750
X41050Y-24150
X41450Y-20084
X42025Y-19375
X42150Y-20475
X42695Y-19766
X42725Y-20050
X43700Y-37725
X43740Y-20410
X43794Y-19825
X44090Y-20535
X44350Y-36700
X44974Y-20401
X45200Y-20700
X46547Y-21672
X46550Y-22000
X47800Y-22000
X48100Y-38675
X48110Y-21505
X49060Y-21505
X49060Y-21875
X49368Y-22624
X49375Y-22250
X49695Y-21505
X49695Y-21875
X49850Y-25150
X50015Y-22250
X50040Y-22626
X50200Y-23830
X50275Y-24675
X50275Y-24975
X50325Y-21555
X50325Y-21925
X50850Y-25900
X50950Y-21510
X50950Y-37625
X50975Y-37975
X51050Y-25605
X51310Y-25510
X51343Y-25124
X51385Y-35475
X51487Y-37731
X51550Y-34075
X51550Y-49950
X51550Y-50400
X51675Y-40325
X51710Y-33850
X51737Y-37736
X52200Y-38125
X52215Y-21505
X52234Y-34010
X52649Y-41508
X52758Y-41733
X52780Y-35525
X52797Y-39440
X52845Y-21505
X52845Y-21875
X52850Y-39800
X52895Y-34379
X52899Y-34651
X52971Y-38994
X52975Y-37100
X53025Y-38750
X53100Y-45600
X53125Y-39450
X53475Y-21505
X53475Y-21875
X53475Y-37000
X53475Y-40775
X53750Y-34425
X53825Y-41050
X53915Y-36509
X54050Y-38175
X54079Y-36320
X54082Y-39040
X54105Y-21505
X54105Y-21875
X54175Y-37925
X54325Y-43250
X54392Y-41426
X54408Y-35705
X54425Y-21875
X54475Y-22175
X54735Y-21505
X54884Y-36860
X54953Y-41564
X55055Y-21875
X55055Y-22245
X55075Y-42275
X55200Y-36675
X55333Y-34052
X55400Y-43650
X55471Y-36209
X55475Y-42950
X55529Y-36452
X55550Y-24620
X55775Y-42925
X55825Y-34275
X56000Y-33425
X56050Y-46100
X56280Y-42299
X56300Y-41675
X56325Y-41400
X56375Y-41075
X56400Y-42050
X56401Y-36529
X56425Y-50550
X56522Y-35505
X56675Y-37075
X56675Y-37475
X56785Y-38285
X56825Y-38625
X56905Y-35761
X57000Y-49725
X57100Y-38275
X57100Y-41450
X57102Y-41823
X57250Y-24240
X57450Y-38300
X57475Y-38025
X57485Y-35572
X57550Y-41350
X57591Y-36372
X57625Y-40325
X57700Y-37900
X57725Y-42550
X57775Y-39825
X57775Y-40125
X57776Y-36726
X57800Y-38600
X57825Y-41035
X57885Y-21505
X58025Y-36275
X58045Y-35974
X58059Y-38766
X58087Y-26043
X58100Y-51611
X58217Y-34547
X58225Y-38525
X58275Y-36125
X58300Y-24600
X58325Y-23525
X58534Y-38759
X58550Y-41900
X58725Y-39425
X58775Y-37350
X58800Y-41475
X58950Y-39200
X58962Y-39768
X58975Y-30000
X59020Y-24910
X59025Y-37475
X59169Y-39426
X59184Y-41057
X59200Y-25170
X59200Y-36425
X59245Y-35600
X59325Y-23750
X59375Y-41675
X59650Y-24810
X59760Y-21855
X59775Y-21505
X59796Y-46144
X59900Y-38800
X60132Y-24976
X60475Y-29725
X60493Y-43268
X60501Y-24931
X60790Y-24350
X60790Y-25230
X61035Y-21505
X61035Y-21875
X61665Y-21505
X61675Y-36775
X61675Y-41925
X61720Y-25280
X61975Y-41925
X61990Y-48555
X62100Y-44825
X62295Y-21505
X62375Y-40550
X62560Y-50620
X63039Y-47556
X63135Y-49795
X63450Y-37250
X63570Y-21505
X63950Y-36000
X64040Y-47360
X64250Y-37913
X64250Y-51631
X64294Y-36882
X65600Y-37675
X65813Y-38912
X66385Y-21505
X67400Y-40275
X68490Y-20130
X69794Y-20265
X70000Y-23750
X70516Y-40859
X70600Y-21300
X70772Y-40853
X71028Y-40847
T3
X40835Y-25895
X42200Y-25010
X42420Y-38980
X42480Y-49200
X42507Y-48529
X42589Y-44921
X42659Y-43698
X42700Y-44100
X42719Y-46279
X42719Y-46679
X42719Y-47079
X42795Y-48241
X42877Y-45209
X42900Y-49200
X42985Y-56425
X43055Y-47909
X43100Y-43900
X43100Y-44300
X43137Y-45541
X43200Y-48900
X43300Y-49300
X43400Y-44600
X43500Y-44200
X43500Y-48600
X43600Y-49000
X43700Y-44900
X43739Y-46269
X43739Y-47119
X43800Y-44500
X43800Y-48300
X43900Y-48700
X43950Y-45150
X44010Y-24410
X44119Y-48050
X44150Y-44850
X44158Y-46695
X44200Y-48450
X44300Y-45299
X44350Y-38550
X44589Y-46269
X44589Y-47119
X44719Y-45299
X44736Y-39083
X44739Y-41700
X44875Y-21150
X44900Y-35000
X45050Y-39700
X45095Y-25375
X45139Y-45299
X45140Y-48099
X45150Y-40100
X45150Y-47690
X45350Y-53500
X45350Y-53909
X45442Y-41642
X45500Y-34000
X45505Y-29350
X45505Y-30000
X45505Y-33350
X45522Y-39115
X45524Y-40450
X45579Y-46899
X45579Y-47279
X45599Y-45299
X45599Y-45719
X45599Y-46179
X45625Y-31800
X45680Y-32560
X45750Y-24875
X45888Y-28062
X46091Y-24875
X46100Y-31300
X46100Y-35400
X46144Y-27806
X46200Y-36725
X46339Y-39047
X46372Y-42034
X46525Y-25350
X46550Y-40350
X46632Y-28318
X46647Y-31103
X46647Y-35203
X46700Y-47750
X46749Y-45619
X46749Y-46199
X46749Y-46779
X46750Y-47300
X46800Y-30400
X46800Y-34400
X46820Y-56560
X46850Y-31500
X46850Y-35600
X47100Y-21623
X47346Y-31904
X47346Y-35996
X47348Y-30693
X47348Y-34793
X47450Y-37650
X47492Y-21332
X47532Y-42166
X47550Y-27025
X47889Y-39104
X47945Y-34000
X47950Y-30000
X47975Y-52205
X48080Y-25820
X48275Y-52450
X48340Y-39430
X48405Y-31595
X48405Y-35695
X48450Y-31950
X48450Y-36050
X48594Y-27806
X48639Y-52569
X48650Y-29100
X48650Y-33100
X48671Y-56531
X48671Y-57869
X48800Y-26975
X48838Y-28062
X49075Y-56531
X49075Y-57869
X49250Y-31100
X49250Y-35200
X49350Y-26550
X49350Y-28950
X49350Y-32926
X49450Y-38500
X49460Y-40400
X49744Y-27294
X50040Y-37000
X50260Y-47290
X50400Y-50400
X50640Y-38820
X50998Y-30952
X50998Y-35025
X51039Y-45659
X51157Y-52507
X51200Y-32840
X51200Y-36650
X51260Y-29000
X51320Y-30880
X51500Y-48400
X52350Y-53650
X52444Y-39844
X52575Y-35875
X52825Y-36850
X52850Y-53650
X53000Y-42200
X53327Y-25885
X53350Y-53650
X54193Y-45382
X54250Y-41650
X54300Y-41100
X54500Y-41967
X54800Y-46975
X54810Y-45380
X54825Y-50025
X54825Y-50375
X54825Y-50875
X54825Y-51225
X54825Y-51725
X54825Y-52075
X55125Y-35325
X55520Y-28020
X55550Y-39100
X55640Y-42380
X55675Y-21375
X55675Y-21650
X55775Y-52375
X55775Y-52675
X56125Y-52375
X56125Y-52675
X56175Y-50050
X56175Y-50375
X56175Y-50900
X56175Y-51200
X56175Y-51750
X56175Y-52075
X56311Y-21399
X56475Y-52375
X56475Y-52675
X56475Y-48125
X56663Y-45089
X57050Y-51550
X57200Y-31875
X57325Y-31480
X57344Y-47156
X57550Y-31275
X57550Y-51550
X57940Y-28900
X58080Y-43672
X58091Y-36981
X58100Y-42175
X58200Y-21279
X58200Y-25750
X58325Y-50225
X58325Y-50575
X58325Y-51100
X58325Y-51425
X58325Y-52275
X58380Y-43360
X58450Y-27200
X58475Y-28650
X58516Y-21284
X58516Y-21575
X58831Y-21279
X59025Y-29400
X59025Y-32100
X59146Y-21279
X59146Y-21550
X59300Y-26900
X59304Y-33971
X59363Y-38213
X59375Y-27625
X59375Y-27950
X59380Y-28280
X59425Y-28850
X59625Y-33475
X59675Y-50225
X59675Y-50575
X59675Y-51075
X59675Y-51425
X59675Y-51925
X59675Y-52275
X59700Y-27625
X59700Y-27950
X59700Y-28275
X59850Y-29625
X59912Y-40363
X59950Y-34500
X60025Y-27625
X60025Y-27950
X60025Y-28275
X60308Y-23420
X60400Y-27400
X60400Y-27750
X60410Y-28250
X60623Y-22888
X60700Y-31000
X60733Y-45112
X60750Y-27400
X60750Y-27750
X60950Y-28950
X61000Y-24075
X61000Y-37850
X61000Y-38550
X61010Y-26820
X61010Y-50045
X61010Y-50395
X61010Y-50895
X61010Y-51245
X61010Y-51745
X61010Y-52095
X61050Y-31175
X61050Y-31850
X61100Y-27400
X61100Y-27750
X61104Y-26301
X61250Y-26050
X61500Y-26825
X61873Y-37199
X61925Y-23865
X61960Y-52395
X61960Y-52695
X61990Y-47340
X62000Y-29275
X62100Y-42530
X62265Y-23475
X62310Y-52395
X62310Y-52695
X62350Y-52075
X62360Y-50070
X62360Y-50395
X62360Y-50920
X62360Y-51220
X62360Y-51770
X62400Y-36000
X62432Y-40012
X62550Y-39550
X62575Y-22888
X62625Y-38825
X62660Y-52395
X62660Y-52695
X62661Y-38094
X62675Y-37250
X62800Y-41300
X62850Y-30000
X62850Y-32200
X62925Y-33800
X62950Y-43375
X63185Y-51570
X63220Y-23180
X63240Y-21500
X63240Y-21800
X63280Y-40980
X63320Y-47940
X63378Y-42110
X63400Y-26750
X63550Y-41814
X63600Y-40150
X63685Y-51570
X63800Y-29675
X63800Y-30600
X63812Y-56531
X63812Y-57869
X63870Y-21290
X63968Y-44807
X64025Y-22875
X64025Y-23375
X64025Y-23875
X64201Y-29799
X64216Y-56531
X64216Y-57869
X64250Y-42150
X64274Y-25399
X64340Y-22880
X64340Y-23380
X64340Y-23880
X64400Y-44425
X64425Y-30675
X64450Y-51450
X64460Y-50245
X64460Y-50595
X64460Y-51120
X64460Y-52295
X64500Y-21300
X64500Y-21600
X64581Y-36148
X64700Y-33900
X64775Y-43700
X64839Y-42191
X64900Y-25875
X64910Y-33220
X65025Y-35650
X65189Y-44654
X65250Y-30050
X65520Y-57920
X65600Y-43900
X65700Y-40350
X65750Y-39300
X65760Y-21310
X65763Y-33938
X65810Y-50245
X65810Y-50595
X65810Y-51095
X65810Y-51445
X65810Y-51945
X65810Y-52295
X65825Y-30600
X65827Y-36945
X65950Y-42950
X66075Y-21310
X66100Y-40350
X66175Y-30175
X66200Y-29150
X66240Y-36122
X66330Y-41679
X66375Y-37450
X66450Y-31850
X66450Y-32350
X66450Y-32850
X66450Y-33350
X66575Y-24315
X66750Y-43775
X66825Y-38950
X66835Y-36114
X66875Y-30675
X66875Y-30975
X66880Y-28775
X66953Y-26977
X67225Y-38350
X67375Y-28775
X67375Y-30675
X67375Y-30975
X67500Y-31850
X67500Y-32350
X67500Y-32850
X67500Y-33350
X67875Y-28775
X67875Y-30675
X67875Y-30975
X67950Y-45700
X68025Y-40075
X68150Y-45300
X68175Y-21175
X68340Y-54100
X68350Y-40075
X68380Y-25220
X68525Y-24500
X68640Y-21465
X68675Y-40075
X68750Y-24175
X68850Y-22900
X69000Y-24050
X69140Y-48800
X69150Y-41625
X69228Y-21878
X69228Y-22172
X69300Y-26250
X69550Y-21850
X69650Y-31850
X69765Y-22085
X69875Y-41450
X69875Y-41850
X69875Y-42250
X69875Y-42750
X69875Y-43150
X69875Y-43550
X69879Y-56425
X70056Y-25944
X70125Y-25625
X70250Y-21500
X70350Y-34200
X70350Y-34550
X70350Y-34900
X70450Y-24925
X70550Y-24150
X70625Y-25650
X70625Y-26050
X70750Y-24525
X71284Y-38366
X71400Y-28175
X71400Y-29400
X71725Y-20375
X71725Y-41450
X71725Y-41850
X71725Y-42250
X71725Y-42750
X71725Y-43150
X71725Y-43550
X71925Y-44350
X71925Y-44775
X71950Y-39975
X71950Y-40625
X71975Y-35525
X71975Y-37375
X72250Y-44350
X72250Y-44775
X72305Y-29655
X72400Y-35525
X72400Y-37375
X72474Y-21724
X72825Y-35525
X72825Y-37375
X72864Y-21726
X72975Y-39150
X73000Y-29875
X73200Y-23185
X73254Y-21726
X73340Y-31800
X73350Y-34200
X73350Y-34550
X73350Y-34925
T4
X42600Y-53406
X42602Y-52670
X43100Y-53406
X43100Y-53906
X43100Y-54500
X43100Y-54950
X43100Y-55450
X43102Y-51690
X43102Y-52190
X43102Y-52670
X43600Y-53406
X43600Y-53906
X43600Y-54500
X43600Y-54950
X43600Y-55450
X43602Y-51690
X43602Y-52190
X43602Y-52670
X44100Y-53906
X44100Y-54500
X44100Y-54950
X44100Y-55450
X44102Y-51690
X44102Y-52190
X44102Y-52670
X44450Y-53050
X44600Y-55450
X44800Y-52670
X44800Y-53400
X45050Y-55450
X45150Y-53050
X45500Y-55450
X45900Y-53500
X45900Y-53906
X45900Y-55450
X46803Y-50275
X47100Y-49650
X47100Y-50800
X47350Y-50275
X49525Y-52625
X59640Y-26250
X66450Y-50250
X67074Y-50275
X67621Y-50275
X69050Y-51850
X69050Y-52700
X69200Y-53400
X69281Y-52250
X69500Y-51850
X69500Y-52700
X69700Y-53900
X69700Y-54500
X69950Y-52250
X70200Y-51850
X70200Y-52650
X70200Y-53350
X70200Y-53900
X70450Y-54800
X70750Y-52650
X70750Y-53336
T5
X52500Y-44875
X52500Y-45875
X52500Y-46875
X52500Y-47875
X52500Y-48875
T6
X39940Y-26990
X39940Y-30990
X39940Y-33990
X42940Y-26990
X42940Y-33990
T7
X40989Y-44547
X40989Y-48842
X40989Y-53025
X72050Y-53025
T8
X39989Y-43547
X39989Y-45547
X39989Y-47842
X39989Y-49842
X39989Y-52025
X39989Y-54025
X41989Y-43547
X41989Y-45547
X41989Y-47842
X41989Y-49842
X41989Y-52025
X41989Y-54025
X71050Y-52025
X71050Y-54025
X73050Y-52025
X73050Y-54025
T9
X40719Y-56415
X42215Y-22663
X71215Y-22663
X72215Y-56415
T0
M30
