G04 #@! TF.GenerationSoftware,KiCad,Pcbnew,(6.0.5)*
G04 #@! TF.CreationDate,2022-06-21T16:45:58-04:00*
G04 #@! TF.ProjectId,mainboard,6d61696e-626f-4617-9264-2e6b69636164,rev?*
G04 #@! TF.SameCoordinates,Original*
G04 #@! TF.FileFunction,Soldermask,Top*
G04 #@! TF.FilePolarity,Negative*
%FSLAX46Y46*%
G04 Gerber Fmt 4.6, Leading zero omitted, Abs format (unit mm)*
G04 Created by KiCad (PCBNEW (6.0.5)) date 2022-06-21 16:45:58*
%MOMM*%
%LPD*%
G01*
G04 APERTURE LIST*
G04 Aperture macros list*
%AMRoundRect*
0 Rectangle with rounded corners*
0 $1 Rounding radius*
0 $2 $3 $4 $5 $6 $7 $8 $9 X,Y pos of 4 corners*
0 Add a 4 corners polygon primitive as box body*
4,1,4,$2,$3,$4,$5,$6,$7,$8,$9,$2,$3,0*
0 Add four circle primitives for the rounded corners*
1,1,$1+$1,$2,$3*
1,1,$1+$1,$4,$5*
1,1,$1+$1,$6,$7*
1,1,$1+$1,$8,$9*
0 Add four rect primitives between the rounded corners*
20,1,$1+$1,$2,$3,$4,$5,0*
20,1,$1+$1,$4,$5,$6,$7,0*
20,1,$1+$1,$6,$7,$8,$9,0*
20,1,$1+$1,$8,$9,$2,$3,0*%
%AMFreePoly0*
4,1,25,0.115149,2.428891,0.133461,2.421305,0.222677,2.361692,0.236692,2.347677,0.296305,2.258461,0.303891,2.240149,0.324824,2.134911,0.325800,2.125000,0.325800,-1.400000,0.310921,-1.435921,0.275000,-1.450800,-0.275000,-1.450800,-0.310921,-1.435921,-0.325800,-1.400000,-0.325800,2.125000,-0.324824,2.134911,-0.303891,2.240149,-0.296305,2.258461,-0.236692,2.347677,-0.222677,2.361692,
-0.133461,2.421305,-0.115149,2.428891,-0.009911,2.449824,0.009911,2.449824,0.115149,2.428891,0.115149,2.428891,$1*%
G04 Aperture macros list end*
%ADD10C,0.190500*%
%ADD11C,0.100000*%
%ADD12C,0.010000*%
%ADD13RoundRect,0.063500X0.800100X0.152400X-0.800100X0.152400X-0.800100X-0.152400X0.800100X-0.152400X0*%
%ADD14RoundRect,0.063500X1.155000X1.230000X-1.155000X1.230000X-1.155000X-1.230000X1.155000X-1.230000X0*%
%ADD15RoundRect,0.300800X-0.475000X0.250000X-0.475000X-0.250000X0.475000X-0.250000X0.475000X0.250000X0*%
%ADD16RoundRect,0.275800X-0.225000X-0.250000X0.225000X-0.250000X0.225000X0.250000X-0.225000X0.250000X0*%
%ADD17RoundRect,0.250800X0.275000X-0.200000X0.275000X0.200000X-0.275000X0.200000X-0.275000X-0.200000X0*%
%ADD18RoundRect,0.275800X0.250000X-0.225000X0.250000X0.225000X-0.250000X0.225000X-0.250000X-0.225000X0*%
%ADD19RoundRect,0.275800X0.225000X0.250000X-0.225000X0.250000X-0.225000X-0.250000X0.225000X-0.250000X0*%
%ADD20RoundRect,0.250800X-0.275000X0.200000X-0.275000X-0.200000X0.275000X-0.200000X0.275000X0.200000X0*%
%ADD21RoundRect,0.250800X-0.200000X-0.275000X0.200000X-0.275000X0.200000X0.275000X-0.200000X0.275000X0*%
%ADD22RoundRect,0.250800X0.200000X0.275000X-0.200000X0.275000X-0.200000X-0.275000X0.200000X-0.275000X0*%
%ADD23RoundRect,0.050800X-0.850000X-0.850000X0.850000X-0.850000X0.850000X0.850000X-0.850000X0.850000X0*%
%ADD24O,1.801600X1.801600*%
%ADD25RoundRect,0.063500X0.530330X-0.212132X-0.212132X0.530330X-0.530330X0.212132X0.212132X-0.530330X0*%
%ADD26RoundRect,0.063500X0.000000X1.484924X-1.484924X0.000000X0.000000X-1.484924X1.484924X0.000000X0*%
%ADD27RoundRect,0.200800X-0.150000X0.725000X-0.150000X-0.725000X0.150000X-0.725000X0.150000X0.725000X0*%
%ADD28C,2.133600*%
%ADD29RoundRect,0.300800X0.475000X-0.250000X0.475000X0.250000X-0.475000X0.250000X-0.475000X-0.250000X0*%
%ADD30C,2.151600*%
%ADD31C,2.351600*%
%ADD32RoundRect,0.050800X-0.500000X0.750000X-0.500000X-0.750000X0.500000X-0.750000X0.500000X0.750000X0*%
%ADD33RoundRect,0.300800X1.025305X0.494975X0.494975X1.025305X-1.025305X-0.494975X-0.494975X-1.025305X0*%
%ADD34RoundRect,0.275800X0.017678X-0.335876X0.335876X-0.017678X-0.017678X0.335876X-0.335876X0.017678X0*%
%ADD35RoundRect,0.050800X-0.282843X0.989949X-0.989949X0.282843X0.282843X-0.989949X0.989949X-0.282843X0*%
%ADD36RoundRect,0.275800X-0.017678X0.335876X-0.335876X0.017678X0.017678X-0.335876X0.335876X-0.017678X0*%
%ADD37RoundRect,0.300800X-0.362500X-1.425000X0.362500X-1.425000X0.362500X1.425000X-0.362500X1.425000X0*%
%ADD38RoundRect,0.383800X1.767000X-0.417000X1.767000X0.417000X-1.767000X0.417000X-1.767000X-0.417000X0*%
%ADD39RoundRect,0.300800X-0.325000X-1.100000X0.325000X-1.100000X0.325000X1.100000X-0.325000X1.100000X0*%
%ADD40RoundRect,0.050800X-0.889000X-0.165100X0.889000X-0.165100X0.889000X0.165100X-0.889000X0.165100X0*%
%ADD41RoundRect,0.063500X-0.650000X1.000000X-0.650000X-1.000000X0.650000X-1.000000X0.650000X1.000000X0*%
%ADD42RoundRect,0.063500X-2.400000X2.849999X-2.400000X-2.849999X2.400000X-2.849999X2.400000X2.849999X0*%
%ADD43RoundRect,0.050800X0.450000X-0.450000X0.450000X0.450000X-0.450000X0.450000X-0.450000X-0.450000X0*%
%ADD44RoundRect,0.050800X0.200000X-0.325000X0.200000X0.325000X-0.200000X0.325000X-0.200000X-0.325000X0*%
%ADD45RoundRect,0.300800X-0.250000X-0.475000X0.250000X-0.475000X0.250000X0.475000X-0.250000X0.475000X0*%
%ADD46RoundRect,0.275800X-0.250000X0.225000X-0.250000X-0.225000X0.250000X-0.225000X0.250000X0.225000X0*%
%ADD47RoundRect,0.190800X-0.170000X0.140000X-0.170000X-0.140000X0.170000X-0.140000X0.170000X0.140000X0*%
%ADD48RoundRect,0.300800X-0.650000X0.325000X-0.650000X-0.325000X0.650000X-0.325000X0.650000X0.325000X0*%
%ADD49RoundRect,0.190800X0.140000X0.170000X-0.140000X0.170000X-0.140000X-0.170000X0.140000X-0.170000X0*%
%ADD50RoundRect,0.190800X0.170000X-0.140000X0.170000X0.140000X-0.170000X0.140000X-0.170000X-0.140000X0*%
%ADD51RoundRect,0.190800X-0.140000X-0.170000X0.140000X-0.170000X0.140000X0.170000X-0.140000X0.170000X0*%
%ADD52RoundRect,0.050800X0.185000X-0.500000X0.185000X0.500000X-0.185000X0.500000X-0.185000X-0.500000X0*%
%ADD53RoundRect,0.050800X-0.185000X0.500000X-0.185000X-0.500000X0.185000X-0.500000X0.185000X0.500000X0*%
%ADD54C,5.181600*%
%ADD55FreePoly0,0.000000*%
%ADD56RoundRect,0.050800X0.200000X-0.225000X0.200000X0.225000X-0.200000X0.225000X-0.200000X-0.225000X0*%
%ADD57RoundRect,0.050800X0.250000X-0.225000X0.250000X0.225000X-0.250000X0.225000X-0.250000X-0.225000X0*%
%ADD58RoundRect,0.185800X-0.135000X-0.185000X0.135000X-0.185000X0.135000X0.185000X-0.135000X0.185000X0*%
%ADD59RoundRect,0.185800X0.185000X-0.135000X0.185000X0.135000X-0.185000X0.135000X-0.185000X-0.135000X0*%
%ADD60C,0.801600*%
%ADD61RoundRect,0.050800X0.700000X0.525000X-0.700000X0.525000X-0.700000X-0.525000X0.700000X-0.525000X0*%
%ADD62RoundRect,0.050800X-0.700000X-0.525000X0.700000X-0.525000X0.700000X0.525000X-0.700000X0.525000X0*%
%ADD63RoundRect,0.200800X-0.512500X-0.150000X0.512500X-0.150000X0.512500X0.150000X-0.512500X0.150000X0*%
%ADD64RoundRect,0.200800X-0.150000X0.825000X-0.150000X-0.825000X0.150000X-0.825000X0.150000X0.825000X0*%
%ADD65RoundRect,0.200800X0.825000X0.150000X-0.825000X0.150000X-0.825000X-0.150000X0.825000X-0.150000X0*%
%ADD66RoundRect,0.185800X-0.185000X0.135000X-0.185000X-0.135000X0.185000X-0.135000X0.185000X0.135000X0*%
%ADD67RoundRect,0.050800X3.300000X1.425000X-3.300000X1.425000X-3.300000X-1.425000X3.300000X-1.425000X0*%
%ADD68RoundRect,0.200800X-0.150000X0.587500X-0.150000X-0.587500X0.150000X-0.587500X0.150000X0.587500X0*%
%ADD69RoundRect,0.064800X-0.161000X0.231000X-0.161000X-0.231000X0.161000X-0.231000X0.161000X0.231000X0*%
%ADD70RoundRect,0.064800X-0.231000X0.161000X-0.231000X-0.161000X0.231000X-0.161000X0.231000X0.161000X0*%
%ADD71RoundRect,0.050800X-0.150000X-0.225000X0.150000X-0.225000X0.150000X0.225000X-0.150000X0.225000X0*%
%ADD72RoundRect,0.050800X-0.225000X0.150000X-0.225000X-0.150000X0.225000X-0.150000X0.225000X0.150000X0*%
%ADD73RoundRect,0.050800X0.175000X-0.187500X0.175000X0.187500X-0.175000X0.187500X-0.175000X-0.187500X0*%
%ADD74RoundRect,0.050800X0.187500X0.175000X-0.187500X0.175000X-0.187500X-0.175000X0.187500X-0.175000X0*%
%ADD75RoundRect,0.150800X0.100000X-0.637500X0.100000X0.637500X-0.100000X0.637500X-0.100000X-0.637500X0*%
%ADD76RoundRect,0.300800X0.325000X1.100000X-0.325000X1.100000X-0.325000X-1.100000X0.325000X-1.100000X0*%
%ADD77RoundRect,0.050800X0.225000X-0.300000X0.225000X0.300000X-0.225000X0.300000X-0.225000X-0.300000X0*%
%ADD78RoundRect,0.300800X-0.625000X0.312500X-0.625000X-0.312500X0.625000X-0.312500X0.625000X0.312500X0*%
%ADD79RoundRect,0.150800X0.625000X0.100000X-0.625000X0.100000X-0.625000X-0.100000X0.625000X-0.100000X0*%
%ADD80RoundRect,0.050800X0.825000X1.425000X-0.825000X1.425000X-0.825000X-1.425000X0.825000X-1.425000X0*%
%ADD81RoundRect,0.050800X1.100000X-1.550000X1.100000X1.550000X-1.100000X1.550000X-1.100000X-1.550000X0*%
%ADD82RoundRect,0.050800X0.760000X-0.750000X0.760000X0.750000X-0.760000X0.750000X-0.760000X-0.750000X0*%
%ADD83RoundRect,0.050800X-1.550000X-1.100000X1.550000X-1.100000X1.550000X1.100000X-1.550000X1.100000X0*%
%ADD84RoundRect,0.050800X-0.750000X-0.760000X0.750000X-0.760000X0.750000X0.760000X-0.750000X0.760000X0*%
%ADD85RoundRect,0.125800X0.521491X-0.415425X-0.415425X0.521491X-0.521491X0.415425X0.415425X-0.521491X0*%
%ADD86RoundRect,0.125800X0.521491X0.415425X0.415425X0.521491X-0.521491X-0.415425X-0.415425X-0.521491X0*%
%ADD87RoundRect,0.200800X0.587500X0.150000X-0.587500X0.150000X-0.587500X-0.150000X0.587500X-0.150000X0*%
%ADD88RoundRect,0.200800X0.150000X-0.587500X0.150000X0.587500X-0.150000X0.587500X-0.150000X-0.587500X0*%
%ADD89RoundRect,0.150800X-0.712500X-0.100000X0.712500X-0.100000X0.712500X0.100000X-0.712500X0.100000X0*%
%ADD90RoundRect,0.050800X0.300000X1.022500X-0.300000X1.022500X-0.300000X-1.022500X0.300000X-1.022500X0*%
%ADD91RoundRect,0.050800X0.305000X1.022500X-0.305000X1.022500X-0.305000X-1.022500X0.305000X-1.022500X0*%
%ADD92RoundRect,0.050800X0.400000X1.194500X-0.400000X1.194500X-0.400000X-1.194500X0.400000X-1.194500X0*%
%ADD93RoundRect,0.150800X-0.100000X0.637500X-0.100000X-0.637500X0.100000X-0.637500X0.100000X0.637500X0*%
%ADD94RoundRect,0.200800X0.150000X-0.512500X0.150000X0.512500X-0.150000X0.512500X-0.150000X-0.512500X0*%
%ADD95RoundRect,0.050800X0.889000X0.165100X-0.889000X0.165100X-0.889000X-0.165100X0.889000X-0.165100X0*%
G04 APERTURE END LIST*
D10*
X102145207Y-147118609D02*
X102145207Y-146356609D01*
X102145207Y-146719466D02*
X102580635Y-146719466D01*
X102580635Y-147118609D02*
X102580635Y-146356609D01*
X102943493Y-147118609D02*
X102943493Y-146356609D01*
X103669207Y-147118609D02*
X103306350Y-147118609D01*
X103306350Y-146356609D01*
X104286064Y-147118609D02*
X103923207Y-147118609D01*
X103923207Y-146356609D01*
X104540064Y-147118609D02*
X104540064Y-146356609D01*
X104866635Y-147082323D02*
X104975493Y-147118609D01*
X105156921Y-147118609D01*
X105229493Y-147082323D01*
X105265778Y-147046037D01*
X105302064Y-146973466D01*
X105302064Y-146900895D01*
X105265778Y-146828323D01*
X105229493Y-146792037D01*
X105156921Y-146755752D01*
X105011778Y-146719466D01*
X104939207Y-146683180D01*
X104902921Y-146646895D01*
X104866635Y-146574323D01*
X104866635Y-146501752D01*
X104902921Y-146429180D01*
X104939207Y-146392895D01*
X105011778Y-146356609D01*
X105193207Y-146356609D01*
X105302064Y-146392895D01*
G36*
X115372313Y-53208055D02*
G01*
X62572313Y-53208055D01*
X62572313Y-49008055D01*
X115372313Y-49008055D01*
X115372313Y-53208055D01*
G37*
D11*
X115372313Y-53208055D02*
X62572313Y-53208055D01*
X62572313Y-49008055D01*
X115372313Y-49008055D01*
X115372313Y-53208055D01*
G36*
X122648900Y-118353300D02*
G01*
X120948900Y-118353300D01*
X120948900Y-118103300D01*
X122648900Y-118103300D01*
X122648900Y-118353300D01*
G37*
D12*
X122648900Y-118353300D02*
X120948900Y-118353300D01*
X120948900Y-118103300D01*
X122648900Y-118103300D01*
X122648900Y-118353300D01*
G36*
X121148900Y-119978300D02*
G01*
X120798900Y-119978300D01*
X120798900Y-119278300D01*
X121148900Y-119278300D01*
X121148900Y-119978300D01*
G37*
X121148900Y-119978300D02*
X120798900Y-119978300D01*
X120798900Y-119278300D01*
X121148900Y-119278300D01*
X121148900Y-119978300D01*
G36*
X122098900Y-119928300D02*
G01*
X121848900Y-119928300D01*
X121848900Y-119578300D01*
X121598900Y-119578300D01*
X121598900Y-119928300D01*
X121348900Y-119928300D01*
X121348900Y-119328300D01*
X122098900Y-119328300D01*
X122098900Y-119928300D01*
G37*
X122098900Y-119928300D02*
X121848900Y-119928300D01*
X121848900Y-119578300D01*
X121598900Y-119578300D01*
X121598900Y-119928300D01*
X121348900Y-119928300D01*
X121348900Y-119328300D01*
X122098900Y-119328300D01*
X122098900Y-119928300D01*
G36*
X120648900Y-119978300D02*
G01*
X120298900Y-119978300D01*
X120298900Y-119278300D01*
X120648900Y-119278300D01*
X120648900Y-119978300D01*
G37*
X120648900Y-119978300D02*
X120298900Y-119978300D01*
X120298900Y-119278300D01*
X120648900Y-119278300D01*
X120648900Y-119978300D01*
G36*
X122648900Y-117853300D02*
G01*
X121298900Y-117853300D01*
X121298900Y-117603300D01*
X122648900Y-117603300D01*
X122648900Y-117853300D01*
G37*
X122648900Y-117853300D02*
X121298900Y-117853300D01*
X121298900Y-117603300D01*
X122648900Y-117603300D01*
X122648900Y-117853300D01*
G36*
X121148900Y-117178300D02*
G01*
X120798900Y-117178300D01*
X120798900Y-116478300D01*
X121148900Y-116478300D01*
X121148900Y-117178300D01*
G37*
X121148900Y-117178300D02*
X120798900Y-117178300D01*
X120798900Y-116478300D01*
X121148900Y-116478300D01*
X121148900Y-117178300D01*
G36*
X120398900Y-118653300D02*
G01*
X119698900Y-118653300D01*
X119698900Y-118303300D01*
X120398900Y-118303300D01*
X120398900Y-118653300D01*
G37*
X120398900Y-118653300D02*
X119698900Y-118653300D01*
X119698900Y-118303300D01*
X120398900Y-118303300D01*
X120398900Y-118653300D01*
G36*
X122648900Y-118853300D02*
G01*
X121298900Y-118853300D01*
X121298900Y-118603300D01*
X122648900Y-118603300D01*
X122648900Y-118853300D01*
G37*
X122648900Y-118853300D02*
X121298900Y-118853300D01*
X121298900Y-118603300D01*
X122648900Y-118603300D01*
X122648900Y-118853300D01*
G36*
X120398900Y-118153300D02*
G01*
X119698900Y-118153300D01*
X119698900Y-117803300D01*
X120398900Y-117803300D01*
X120398900Y-118153300D01*
G37*
X120398900Y-118153300D02*
X119698900Y-118153300D01*
X119698900Y-117803300D01*
X120398900Y-117803300D01*
X120398900Y-118153300D01*
G36*
X120648900Y-117178300D02*
G01*
X120298900Y-117178300D01*
X120298900Y-116478300D01*
X120648900Y-116478300D01*
X120648900Y-117178300D01*
G37*
X120648900Y-117178300D02*
X120298900Y-117178300D01*
X120298900Y-116478300D01*
X120648900Y-116478300D01*
X120648900Y-117178300D01*
G36*
X120398900Y-117653300D02*
G01*
X119698900Y-117653300D01*
X119698900Y-117303300D01*
X120398900Y-117303300D01*
X120398900Y-117653300D01*
G37*
X120398900Y-117653300D02*
X119698900Y-117653300D01*
X119698900Y-117303300D01*
X120398900Y-117303300D01*
X120398900Y-117653300D01*
G36*
X120398900Y-119153300D02*
G01*
X119698900Y-119153300D01*
X119698900Y-118803300D01*
X120398900Y-118803300D01*
X120398900Y-119153300D01*
G37*
X120398900Y-119153300D02*
X119698900Y-119153300D01*
X119698900Y-118803300D01*
X120398900Y-118803300D01*
X120398900Y-119153300D01*
G36*
X121598900Y-116878300D02*
G01*
X121848900Y-116878300D01*
X121848900Y-116528300D01*
X122098900Y-116528300D01*
X122098900Y-117128300D01*
X121348900Y-117128300D01*
X121348900Y-116528300D01*
X121598900Y-116528300D01*
X121598900Y-116878300D01*
G37*
X121598900Y-116878300D02*
X121848900Y-116878300D01*
X121848900Y-116528300D01*
X122098900Y-116528300D01*
X122098900Y-117128300D01*
X121348900Y-117128300D01*
X121348900Y-116528300D01*
X121598900Y-116528300D01*
X121598900Y-116878300D01*
G36*
X120385900Y-131017300D02*
G01*
X120035900Y-131017300D01*
X120035900Y-130317300D01*
X120385900Y-130317300D01*
X120385900Y-131017300D01*
G37*
X120385900Y-131017300D02*
X120035900Y-131017300D01*
X120035900Y-130317300D01*
X120385900Y-130317300D01*
X120385900Y-131017300D01*
G36*
X121835900Y-133767300D02*
G01*
X121585900Y-133767300D01*
X121585900Y-133417300D01*
X121335900Y-133417300D01*
X121335900Y-133767300D01*
X121085900Y-133767300D01*
X121085900Y-133167300D01*
X121835900Y-133167300D01*
X121835900Y-133767300D01*
G37*
X121835900Y-133767300D02*
X121585900Y-133767300D01*
X121585900Y-133417300D01*
X121335900Y-133417300D01*
X121335900Y-133767300D01*
X121085900Y-133767300D01*
X121085900Y-133167300D01*
X121835900Y-133167300D01*
X121835900Y-133767300D01*
G36*
X120135900Y-132492300D02*
G01*
X119435900Y-132492300D01*
X119435900Y-132142300D01*
X120135900Y-132142300D01*
X120135900Y-132492300D01*
G37*
X120135900Y-132492300D02*
X119435900Y-132492300D01*
X119435900Y-132142300D01*
X120135900Y-132142300D01*
X120135900Y-132492300D01*
G36*
X120135900Y-131492300D02*
G01*
X119435900Y-131492300D01*
X119435900Y-131142300D01*
X120135900Y-131142300D01*
X120135900Y-131492300D01*
G37*
X120135900Y-131492300D02*
X119435900Y-131492300D01*
X119435900Y-131142300D01*
X120135900Y-131142300D01*
X120135900Y-131492300D01*
G36*
X122385900Y-132692300D02*
G01*
X121035900Y-132692300D01*
X121035900Y-132442300D01*
X122385900Y-132442300D01*
X122385900Y-132692300D01*
G37*
X122385900Y-132692300D02*
X121035900Y-132692300D01*
X121035900Y-132442300D01*
X122385900Y-132442300D01*
X122385900Y-132692300D01*
G36*
X122385900Y-132192300D02*
G01*
X120685900Y-132192300D01*
X120685900Y-131942300D01*
X122385900Y-131942300D01*
X122385900Y-132192300D01*
G37*
X122385900Y-132192300D02*
X120685900Y-132192300D01*
X120685900Y-131942300D01*
X122385900Y-131942300D01*
X122385900Y-132192300D01*
G36*
X120885900Y-131017300D02*
G01*
X120535900Y-131017300D01*
X120535900Y-130317300D01*
X120885900Y-130317300D01*
X120885900Y-131017300D01*
G37*
X120885900Y-131017300D02*
X120535900Y-131017300D01*
X120535900Y-130317300D01*
X120885900Y-130317300D01*
X120885900Y-131017300D01*
G36*
X122385900Y-131692300D02*
G01*
X121035900Y-131692300D01*
X121035900Y-131442300D01*
X122385900Y-131442300D01*
X122385900Y-131692300D01*
G37*
X122385900Y-131692300D02*
X121035900Y-131692300D01*
X121035900Y-131442300D01*
X122385900Y-131442300D01*
X122385900Y-131692300D01*
G36*
X120385900Y-133817300D02*
G01*
X120035900Y-133817300D01*
X120035900Y-133117300D01*
X120385900Y-133117300D01*
X120385900Y-133817300D01*
G37*
X120385900Y-133817300D02*
X120035900Y-133817300D01*
X120035900Y-133117300D01*
X120385900Y-133117300D01*
X120385900Y-133817300D01*
G36*
X121335900Y-130717300D02*
G01*
X121585900Y-130717300D01*
X121585900Y-130367300D01*
X121835900Y-130367300D01*
X121835900Y-130967300D01*
X121085900Y-130967300D01*
X121085900Y-130367300D01*
X121335900Y-130367300D01*
X121335900Y-130717300D01*
G37*
X121335900Y-130717300D02*
X121585900Y-130717300D01*
X121585900Y-130367300D01*
X121835900Y-130367300D01*
X121835900Y-130967300D01*
X121085900Y-130967300D01*
X121085900Y-130367300D01*
X121335900Y-130367300D01*
X121335900Y-130717300D01*
G36*
X120885900Y-133817300D02*
G01*
X120535900Y-133817300D01*
X120535900Y-133117300D01*
X120885900Y-133117300D01*
X120885900Y-133817300D01*
G37*
X120885900Y-133817300D02*
X120535900Y-133817300D01*
X120535900Y-133117300D01*
X120885900Y-133117300D01*
X120885900Y-133817300D01*
G36*
X120135900Y-132992300D02*
G01*
X119435900Y-132992300D01*
X119435900Y-132642300D01*
X120135900Y-132642300D01*
X120135900Y-132992300D01*
G37*
X120135900Y-132992300D02*
X119435900Y-132992300D01*
X119435900Y-132642300D01*
X120135900Y-132642300D01*
X120135900Y-132992300D01*
G36*
X120135900Y-131992300D02*
G01*
X119435900Y-131992300D01*
X119435900Y-131642300D01*
X120135900Y-131642300D01*
X120135900Y-131992300D01*
G37*
X120135900Y-131992300D02*
X119435900Y-131992300D01*
X119435900Y-131642300D01*
X120135900Y-131642300D01*
X120135900Y-131992300D01*
D13*
X124789204Y-99490134D03*
X124789204Y-98840121D03*
X124789204Y-98190112D03*
X124789204Y-97540100D03*
X124789204Y-96890088D03*
X124789204Y-96240079D03*
X124789204Y-95590066D03*
X119252004Y-95590066D03*
X119252004Y-96240079D03*
X119252004Y-96890088D03*
X119252004Y-97540100D03*
X119252004Y-98190112D03*
X119252004Y-98840121D03*
X119252004Y-99490134D03*
D14*
X122020604Y-97540100D03*
D15*
X119757300Y-90952000D03*
X119757300Y-92852000D03*
X122297300Y-90859600D03*
X122297300Y-92759600D03*
D16*
X115388200Y-98902500D03*
X116938200Y-98902500D03*
D17*
X126009400Y-94093800D03*
X126009400Y-92443800D03*
D18*
X127021700Y-97010500D03*
X127021700Y-95460500D03*
D19*
X84608708Y-127755786D03*
X83058708Y-127755786D03*
D20*
X98196400Y-107756051D03*
X98196400Y-109406051D03*
D21*
X88645800Y-130008024D03*
X90295800Y-130008024D03*
D22*
X84613807Y-126184242D03*
X82963807Y-126184242D03*
D23*
X78592400Y-117779300D03*
D24*
X78592400Y-120319300D03*
X78592400Y-122859300D03*
X78592400Y-125399300D03*
X78592400Y-127939300D03*
D25*
X99791357Y-100262696D03*
X100689383Y-99364670D03*
X101587408Y-98466645D03*
X102485434Y-97568619D03*
X98454925Y-93538110D03*
X97556899Y-94436136D03*
X96658874Y-95334161D03*
X95760848Y-96232187D03*
D26*
X99123141Y-96900403D03*
D17*
X109990300Y-109358262D03*
X109990300Y-107708262D03*
D27*
X91145649Y-122391064D03*
X89875649Y-122391064D03*
X88605649Y-122391064D03*
X87335649Y-122391064D03*
X87335649Y-127541064D03*
X88605649Y-127541064D03*
X89875649Y-127541064D03*
X91145649Y-127541064D03*
D22*
X83862400Y-116001300D03*
X82212400Y-116001300D03*
D28*
X48690000Y-65794200D03*
X56310000Y-65794200D03*
X48690000Y-75954200D03*
X56310000Y-83574200D03*
X48690000Y-83574200D03*
D20*
X116994400Y-62230300D03*
X116994400Y-63880300D03*
D29*
X115279900Y-63637300D03*
X115279900Y-61737300D03*
D15*
X110009400Y-57419300D03*
X110009400Y-59319300D03*
D22*
X128354700Y-99918500D03*
X126704700Y-99918500D03*
D30*
X49653500Y-134480896D03*
D31*
X47113500Y-137020896D03*
X47113500Y-131940896D03*
X52193500Y-131940896D03*
X52193500Y-137020896D03*
D32*
X48615400Y-56147800D03*
X45415400Y-56147800D03*
X45415400Y-61047800D03*
X48615400Y-61047800D03*
D18*
X99835410Y-109388247D03*
X99835410Y-107838247D03*
D17*
X66249397Y-101173296D03*
X66249397Y-99523296D03*
D21*
X82918906Y-124612697D03*
X84568906Y-124612697D03*
D33*
X80534849Y-114070249D03*
X78554951Y-112090351D03*
D18*
X128799700Y-98217000D03*
X128799700Y-96667000D03*
D15*
X111977900Y-57419300D03*
X111977900Y-59319300D03*
D22*
X67386400Y-82545800D03*
X65736400Y-82545800D03*
X73238400Y-81471000D03*
X71588400Y-81471000D03*
D20*
X104902000Y-102045000D03*
X104902000Y-103695000D03*
D17*
X105735500Y-109461862D03*
X105735500Y-107811862D03*
D34*
X92570160Y-116355304D03*
X93666176Y-115259288D03*
D35*
X89450406Y-116780982D03*
X91218172Y-115013216D03*
D36*
X90792494Y-118132970D03*
X89696478Y-119228986D03*
D20*
X101332410Y-107776051D03*
X101332410Y-109426051D03*
D21*
X126704700Y-101633000D03*
X128354700Y-101633000D03*
D37*
X96562900Y-72821800D03*
X102487900Y-72821800D03*
D38*
X115137900Y-96491000D03*
X115137900Y-92891000D03*
D39*
X120291604Y-102493100D03*
X123241604Y-102493100D03*
X120276200Y-106649500D03*
X123226200Y-106649500D03*
D40*
X96972700Y-75504799D03*
X96972700Y-76004801D03*
X96972700Y-76504800D03*
X96972700Y-77004799D03*
X96972700Y-77504801D03*
X101062100Y-77504801D03*
X101062100Y-77004799D03*
X101062100Y-76504800D03*
X101062100Y-76004801D03*
X101062100Y-75504799D03*
D41*
X56860400Y-142562793D03*
X58860400Y-142562793D03*
X60860400Y-142562793D03*
X62860400Y-142562793D03*
X64860400Y-142562793D03*
X66860400Y-142562793D03*
X68860400Y-142562793D03*
X70860400Y-142562793D03*
X70860400Y-107562793D03*
X68860400Y-107562793D03*
X66860400Y-107562793D03*
X64860400Y-107562793D03*
X62860400Y-107562793D03*
X60860400Y-107562793D03*
X58860400Y-107562793D03*
X56860400Y-107562793D03*
D42*
X62110400Y-130995293D03*
D43*
X82935900Y-118142300D03*
X82935900Y-122242300D03*
X84535900Y-118142300D03*
X84535900Y-122242300D03*
D20*
X64627400Y-99499800D03*
X64627400Y-101149800D03*
D17*
X58971500Y-105186800D03*
X58971500Y-103536800D03*
X56971500Y-105186800D03*
X56971500Y-103536800D03*
D20*
X63271500Y-103536800D03*
X63271500Y-105186800D03*
D17*
X64971500Y-105186800D03*
X64971500Y-103536800D03*
X56971500Y-101175200D03*
X56971500Y-99525200D03*
X63103400Y-101175200D03*
X63103400Y-99525200D03*
D44*
X60321500Y-101401800D03*
X60971500Y-101401800D03*
X61621500Y-101401800D03*
X61621500Y-99501800D03*
X60971500Y-99501800D03*
X60321500Y-99501800D03*
D20*
X58785400Y-99525200D03*
X58785400Y-101175200D03*
X60971500Y-103536800D03*
X60971500Y-105186800D03*
X67171500Y-103536800D03*
X67171500Y-105186800D03*
D17*
X68884800Y-105168200D03*
X68884800Y-103518200D03*
D45*
X62958700Y-145908400D03*
X64858700Y-145908400D03*
D46*
X113565400Y-61912300D03*
X113565400Y-63462300D03*
X94576400Y-75856800D03*
X94576400Y-77406800D03*
D15*
X126771400Y-49644300D03*
X126771400Y-51544300D03*
D47*
X125295500Y-49646900D03*
X125295500Y-50606900D03*
X120317100Y-49646900D03*
X120317100Y-50606900D03*
D48*
X118691500Y-49667900D03*
X118691500Y-52617900D03*
D49*
X53845400Y-62661800D03*
X52885400Y-62661800D03*
D50*
X131597400Y-61970800D03*
X131597400Y-61010800D03*
D51*
X122100400Y-144322800D03*
X123060400Y-144322800D03*
D49*
X55087400Y-145973800D03*
X54127400Y-145973800D03*
D52*
X52512278Y-47795180D03*
D53*
X54372278Y-47795180D03*
D54*
X52768500Y-57360900D03*
X126428500Y-57360900D03*
X128968500Y-143090900D03*
X48968508Y-143090900D03*
D55*
X63772313Y-51608055D03*
X64572313Y-51608055D03*
X65372313Y-51608055D03*
X66172313Y-51608055D03*
X66972313Y-51608055D03*
X67772313Y-51608055D03*
X68572313Y-51608055D03*
X69372313Y-51608055D03*
X70172313Y-51608055D03*
X70972313Y-51608055D03*
X71772313Y-51608055D03*
X72572313Y-51608055D03*
X73372313Y-51608055D03*
X74172313Y-51608055D03*
X74972313Y-51608055D03*
X75772313Y-51608055D03*
X76572313Y-51608055D03*
X77372313Y-51608055D03*
X78172313Y-51608055D03*
X78972313Y-51608055D03*
X79772313Y-51608055D03*
X80572313Y-51608055D03*
X81372313Y-51608055D03*
X82172313Y-51608055D03*
X82972313Y-51608055D03*
X83772313Y-51608055D03*
X84572313Y-51608055D03*
X85372313Y-51608055D03*
X86172313Y-51608055D03*
X86972313Y-51608055D03*
X87772313Y-51608055D03*
X88572313Y-51608055D03*
X92572313Y-51608055D03*
X93372313Y-51608055D03*
X94172313Y-51608055D03*
X94972313Y-51608055D03*
X95772313Y-51608055D03*
X96572313Y-51608055D03*
X97372313Y-51608055D03*
X98172313Y-51608055D03*
X98972313Y-51608055D03*
X99772313Y-51608055D03*
X100572313Y-51608055D03*
X101372313Y-51608055D03*
X102172313Y-51608055D03*
X102972313Y-51608055D03*
X103772313Y-51608055D03*
X104572313Y-51608055D03*
X105372313Y-51608055D03*
X106172313Y-51608055D03*
X106972313Y-51608055D03*
X107772313Y-51608055D03*
X108572313Y-51608055D03*
X109372313Y-51608055D03*
X110172313Y-51608055D03*
X110972313Y-51608055D03*
X111772313Y-51608055D03*
X112572313Y-51608055D03*
X113372313Y-51608055D03*
X114172313Y-51608055D03*
D56*
X50829100Y-48949300D03*
X51629100Y-48949300D03*
D57*
X51229100Y-47799300D03*
D58*
X121381900Y-53301900D03*
X122401900Y-53301900D03*
D59*
X53311900Y-50179700D03*
X53311900Y-49159700D03*
D58*
X50820700Y-49898300D03*
X51840700Y-49898300D03*
D59*
X54683500Y-51716400D03*
X54683500Y-50696400D03*
D60*
X57742270Y-48245067D03*
D61*
X59542270Y-49870067D03*
X59542270Y-48420067D03*
D60*
X57742270Y-50045067D03*
D62*
X55942270Y-48420067D03*
X55942270Y-49870067D03*
D63*
X121668800Y-49659500D03*
X121668800Y-50609500D03*
X121668800Y-51559500D03*
X123943800Y-51559500D03*
X123943800Y-49659500D03*
D64*
X109939400Y-63869800D03*
X108669400Y-63869800D03*
X107399400Y-63869800D03*
X106129400Y-63869800D03*
X106129400Y-68819800D03*
X107399400Y-68819800D03*
X108669400Y-68819800D03*
X109939400Y-68819800D03*
D65*
X108477400Y-85521800D03*
X108477400Y-84251800D03*
X108477400Y-82981800D03*
X108477400Y-81711800D03*
X103527400Y-81711800D03*
X103527400Y-82981800D03*
X103527400Y-84251800D03*
X103527400Y-85521800D03*
D66*
X123723400Y-52880800D03*
X123723400Y-53900800D03*
D17*
X92886400Y-86548800D03*
X92886400Y-84898800D03*
D22*
X100830400Y-84849800D03*
X99180400Y-84849800D03*
D29*
X122214900Y-114860300D03*
X122214900Y-112960300D03*
X120055900Y-114860300D03*
X120055900Y-112960300D03*
X117896900Y-114860300D03*
X117896900Y-112960300D03*
D15*
X121706900Y-121723300D03*
X121706900Y-123623300D03*
X119547900Y-121723300D03*
X119547900Y-123623300D03*
X117388900Y-121723300D03*
X117388900Y-123623300D03*
D18*
X118404900Y-119765300D03*
X118404900Y-118215300D03*
D46*
X59636800Y-96100200D03*
X59636800Y-97650200D03*
X59637676Y-90036000D03*
X59637676Y-91586000D03*
D67*
X127929900Y-115403300D03*
X127929900Y-121053300D03*
D68*
X112522300Y-118421100D03*
X110622300Y-118421100D03*
X111572300Y-120296100D03*
D17*
X115306100Y-121466300D03*
X115306100Y-119816300D03*
D20*
X115306100Y-116514300D03*
X115306100Y-118164300D03*
D22*
X112397300Y-116509800D03*
X110747300Y-116509800D03*
D17*
X116830100Y-119815300D03*
X116830100Y-118165300D03*
D22*
X112397300Y-122097800D03*
X110747300Y-122097800D03*
D17*
X63082400Y-97967800D03*
X63082400Y-96317800D03*
X66192400Y-97967800D03*
X66192400Y-96317800D03*
X64606400Y-97967800D03*
X64606400Y-96317800D03*
D21*
X61811400Y-81330800D03*
X63461400Y-81330800D03*
X61860400Y-84490800D03*
X63510400Y-84490800D03*
X61811400Y-82854800D03*
X63461400Y-82854800D03*
X61860400Y-86014800D03*
X63510400Y-86014800D03*
D17*
X61493400Y-97967800D03*
X61493400Y-96317800D03*
D69*
X57834800Y-94232200D03*
X57334800Y-94232200D03*
X56834800Y-94232200D03*
X56334800Y-94232200D03*
X55834800Y-94232200D03*
D70*
X55574800Y-94992200D03*
X55574800Y-95492200D03*
X55574800Y-95992200D03*
D69*
X55834800Y-96752200D03*
X56334800Y-96752200D03*
X56834800Y-96752200D03*
X57334800Y-96752200D03*
X57834800Y-96752200D03*
D70*
X58094800Y-95992200D03*
X58094800Y-95492200D03*
X58094800Y-94992200D03*
D71*
X53339800Y-94066200D03*
X52839800Y-94066200D03*
X52339800Y-94066200D03*
X51839800Y-94066200D03*
D72*
X51314800Y-94591200D03*
X51314800Y-95091200D03*
X51314800Y-95591200D03*
X51314800Y-96091200D03*
D71*
X51839800Y-96616200D03*
X52339800Y-96616200D03*
X52839800Y-96616200D03*
X53339800Y-96616200D03*
D72*
X53864800Y-96091200D03*
X53864800Y-95591200D03*
X53864800Y-95091200D03*
X53864800Y-94591200D03*
D73*
X48106000Y-95697300D03*
X48606000Y-95697300D03*
X49106000Y-95697300D03*
X49606000Y-95697300D03*
D74*
X49618500Y-95184800D03*
X49618500Y-94684800D03*
D73*
X49606000Y-94172300D03*
X49106000Y-94172300D03*
X48606000Y-94172300D03*
X48106000Y-94172300D03*
D74*
X48093500Y-94684800D03*
X48093500Y-95184800D03*
D69*
X57859602Y-88286989D03*
X57359602Y-88286989D03*
X56859602Y-88286989D03*
X56359602Y-88286989D03*
X55859602Y-88286989D03*
D70*
X55599602Y-89046989D03*
X55599602Y-89546989D03*
X55599602Y-90046989D03*
D69*
X55859602Y-90806989D03*
X56359602Y-90806989D03*
X56859602Y-90806989D03*
X57359602Y-90806989D03*
X57859602Y-90806989D03*
D70*
X58119602Y-90046989D03*
X58119602Y-89546989D03*
X58119602Y-89046989D03*
D71*
X53239811Y-88452202D03*
X52739811Y-88452202D03*
X52239811Y-88452202D03*
X51739811Y-88452202D03*
D72*
X51214811Y-88977202D03*
X51214811Y-89477202D03*
X51214811Y-89977202D03*
X51214811Y-90477202D03*
D71*
X51739811Y-91002202D03*
X52239811Y-91002202D03*
X52739811Y-91002202D03*
X53239811Y-91002202D03*
D72*
X53764811Y-90477202D03*
X53764811Y-89977202D03*
X53764811Y-89477202D03*
X53764811Y-88977202D03*
D73*
X48044797Y-90210810D03*
X48544797Y-90210810D03*
X49044797Y-90210810D03*
X49544797Y-90210810D03*
D74*
X49557297Y-89698310D03*
X49557297Y-89198310D03*
D73*
X49544797Y-88685810D03*
X49044797Y-88685810D03*
X48544797Y-88685810D03*
X48044797Y-88685810D03*
D74*
X48032297Y-89198310D03*
X48032297Y-89698310D03*
D75*
X61560400Y-93830300D03*
X62210400Y-93830300D03*
X62860400Y-93830300D03*
X63510400Y-93830300D03*
X64160400Y-93830300D03*
X64810400Y-93830300D03*
X65460400Y-93830300D03*
X65460400Y-88105300D03*
X64810400Y-88105300D03*
X64160400Y-88105300D03*
X63510400Y-88105300D03*
X62860400Y-88105300D03*
X62210400Y-88105300D03*
X61560400Y-88105300D03*
D29*
X121951900Y-128699300D03*
X121951900Y-126799300D03*
X119792900Y-128699300D03*
X119792900Y-126799300D03*
X117633900Y-128699300D03*
X117633900Y-126799300D03*
D15*
X117125900Y-135689300D03*
X117125900Y-137589300D03*
X119284900Y-135689300D03*
X119284900Y-137589300D03*
X121443900Y-135689300D03*
X121443900Y-137589300D03*
D18*
X118014900Y-133604300D03*
X118014900Y-132054300D03*
D67*
X127793900Y-129242300D03*
X127793900Y-134892300D03*
D68*
X111979900Y-132018800D03*
X110079900Y-132018800D03*
X111029900Y-133893800D03*
D17*
X114966900Y-135305300D03*
X114966900Y-133655300D03*
D20*
X114966900Y-130290300D03*
X114966900Y-131940300D03*
D22*
X111979900Y-130126300D03*
X110329900Y-130126300D03*
D17*
X116490900Y-133654300D03*
X116490900Y-132004300D03*
D22*
X111854900Y-135750300D03*
X110204900Y-135750300D03*
D39*
X128280900Y-78790800D03*
X131230900Y-78790800D03*
X128280900Y-82092800D03*
X131230900Y-82092800D03*
D18*
X118389400Y-83502800D03*
X118389400Y-81952800D03*
D76*
X116520400Y-71997300D03*
X113570400Y-71997300D03*
D39*
X128280900Y-85380800D03*
X131230900Y-85380800D03*
X128180900Y-75582800D03*
X131130900Y-75582800D03*
D76*
X116562400Y-75361800D03*
X113612400Y-75361800D03*
D77*
X118389400Y-80221800D03*
X118389400Y-78121800D03*
D78*
X121183400Y-71740300D03*
X121183400Y-74665300D03*
D17*
X131165600Y-71640200D03*
X131165600Y-69990200D03*
D22*
X116547400Y-80060800D03*
X114897400Y-80060800D03*
D17*
X131165600Y-68490600D03*
X131165600Y-66840600D03*
X116632400Y-85567800D03*
X116632400Y-83917800D03*
D21*
X114897400Y-81711800D03*
X116547400Y-81711800D03*
D79*
X125301900Y-81656793D03*
X125301900Y-81006793D03*
X125301900Y-80356793D03*
X125301900Y-79706793D03*
X125301900Y-79056793D03*
X125301900Y-78406793D03*
X121001900Y-78406793D03*
X121001900Y-79056793D03*
X121001900Y-79706793D03*
X121001900Y-80356793D03*
X121001900Y-81006793D03*
X121001900Y-81656793D03*
D80*
X123151900Y-80031793D03*
D81*
X128231900Y-71731800D03*
D82*
X128231900Y-68511800D03*
D83*
X121818400Y-84759800D03*
D84*
X125038400Y-84759800D03*
D85*
X88086465Y-113978146D03*
X88440018Y-113624593D03*
X88793572Y-113271040D03*
X89147125Y-112917486D03*
X89500679Y-112563933D03*
X89854232Y-112210379D03*
X90207785Y-111856826D03*
X90561339Y-111503273D03*
X90914892Y-111149719D03*
X91268446Y-110796166D03*
X91621999Y-110442612D03*
X91975552Y-110089059D03*
X92329106Y-109735506D03*
X92682659Y-109381952D03*
X93036212Y-109028399D03*
X93389766Y-108674846D03*
X93743319Y-108321292D03*
X94096873Y-107967739D03*
X94450426Y-107614185D03*
X94803979Y-107260632D03*
X95157533Y-106907079D03*
X95511086Y-106553525D03*
X95864640Y-106199972D03*
X96218193Y-105846418D03*
X96571746Y-105492865D03*
D86*
X96571746Y-103141735D03*
X96218193Y-102788182D03*
X95864640Y-102434628D03*
X95511086Y-102081075D03*
X95157533Y-101727521D03*
X94803979Y-101373968D03*
X94450426Y-101020415D03*
X94096873Y-100666861D03*
X93743319Y-100313308D03*
X93389766Y-99959754D03*
X93036212Y-99606201D03*
X92682659Y-99252648D03*
X92329106Y-98899094D03*
X91975552Y-98545541D03*
X91621999Y-98191988D03*
X91268446Y-97838434D03*
X90914892Y-97484881D03*
X90561339Y-97131327D03*
X90207785Y-96777774D03*
X89854232Y-96424221D03*
X89500679Y-96070667D03*
X89147125Y-95717114D03*
X88793572Y-95363560D03*
X88440018Y-95010007D03*
X88086465Y-94656454D03*
D85*
X85735335Y-94656454D03*
X85381782Y-95010007D03*
X85028228Y-95363560D03*
X84674675Y-95717114D03*
X84321121Y-96070667D03*
X83967568Y-96424221D03*
X83614015Y-96777774D03*
X83260461Y-97131327D03*
X82906908Y-97484881D03*
X82553354Y-97838434D03*
X82199801Y-98191988D03*
X81846248Y-98545541D03*
X81492694Y-98899094D03*
X81139141Y-99252648D03*
X80785588Y-99606201D03*
X80432034Y-99959754D03*
X80078481Y-100313308D03*
X79724927Y-100666861D03*
X79371374Y-101020415D03*
X79017821Y-101373968D03*
X78664267Y-101727521D03*
X78310714Y-102081075D03*
X77957160Y-102434628D03*
X77603607Y-102788182D03*
X77250054Y-103141735D03*
D86*
X77250054Y-105492865D03*
X77603607Y-105846418D03*
X77957160Y-106199972D03*
X78310714Y-106553525D03*
X78664267Y-106907079D03*
X79017821Y-107260632D03*
X79371374Y-107614185D03*
X79724927Y-107967739D03*
X80078481Y-108321292D03*
X80432034Y-108674846D03*
X80785588Y-109028399D03*
X81139141Y-109381952D03*
X81492694Y-109735506D03*
X81846248Y-110089059D03*
X82199801Y-110442612D03*
X82553354Y-110796166D03*
X82906908Y-111149719D03*
X83260461Y-111503273D03*
X83614015Y-111856826D03*
X83967568Y-112210379D03*
X84321121Y-112563933D03*
X84674675Y-112917486D03*
X85028228Y-113271040D03*
X85381782Y-113624593D03*
X85735335Y-113978146D03*
D17*
X90342400Y-66121800D03*
X90342400Y-64471800D03*
X78552400Y-65577300D03*
X78552400Y-63927300D03*
X77028400Y-65577300D03*
X77028400Y-63927300D03*
X76266400Y-77515300D03*
X76266400Y-75865300D03*
D87*
X96829900Y-81446800D03*
X96829900Y-79546800D03*
X94954900Y-80496800D03*
D17*
X90748400Y-139425800D03*
X90748400Y-137775800D03*
X83718400Y-77710800D03*
X83718400Y-76060800D03*
D20*
X103742400Y-134471800D03*
X103742400Y-136121800D03*
D17*
X73980400Y-65577300D03*
X73980400Y-63927300D03*
D22*
X92467400Y-83146800D03*
X90817400Y-83146800D03*
D88*
X90276400Y-69830300D03*
X92176400Y-69830300D03*
X91226400Y-67955300D03*
D17*
X87748400Y-139425800D03*
X87748400Y-137775800D03*
D21*
X116637400Y-87482800D03*
X118287400Y-87482800D03*
D88*
X90292400Y-75434300D03*
X92192400Y-75434300D03*
X91242400Y-73559300D03*
D17*
X86258400Y-65582800D03*
X86258400Y-63932800D03*
X75504400Y-65577300D03*
X75504400Y-63927300D03*
D20*
X84748400Y-133525800D03*
X84748400Y-135175800D03*
D17*
X79314400Y-77515300D03*
X79314400Y-75865300D03*
D75*
X81809400Y-73652300D03*
X82459400Y-73652300D03*
X83109400Y-73652300D03*
X83759400Y-73652300D03*
X84409400Y-73652300D03*
X85059400Y-73652300D03*
X85709400Y-73652300D03*
X86359400Y-73652300D03*
X87009400Y-73652300D03*
X87659400Y-73652300D03*
X87659400Y-67927300D03*
X87009400Y-67927300D03*
X86359400Y-67927300D03*
X85709400Y-67927300D03*
X85059400Y-67927300D03*
X84409400Y-67927300D03*
X83759400Y-67927300D03*
X83109400Y-67927300D03*
X82459400Y-67927300D03*
X81809400Y-67927300D03*
D22*
X96037400Y-58216800D03*
X94387400Y-58216800D03*
D20*
X89248400Y-137775800D03*
X89248400Y-139425800D03*
D22*
X126897400Y-125960800D03*
X125247400Y-125960800D03*
D20*
X100692400Y-79621800D03*
X100692400Y-81271800D03*
D21*
X119797400Y-87532800D03*
X121447400Y-87532800D03*
D17*
X114896400Y-85541800D03*
X114896400Y-83891800D03*
X74742400Y-77515300D03*
X74742400Y-75865300D03*
D22*
X130097400Y-125950800D03*
X128447400Y-125950800D03*
D21*
X99217400Y-83256800D03*
X100867400Y-83256800D03*
D17*
X80076400Y-65577300D03*
X80076400Y-63927300D03*
X83248400Y-139425800D03*
X83248400Y-137775800D03*
D20*
X97742400Y-134471800D03*
X97742400Y-136121800D03*
X101742400Y-134471800D03*
X101742400Y-136121800D03*
X84748400Y-137775800D03*
X84748400Y-139425800D03*
D37*
X96435900Y-68376800D03*
X102360900Y-68376800D03*
D17*
X82194400Y-77710800D03*
X82194400Y-76060800D03*
D22*
X116547400Y-78536800D03*
X114897400Y-78536800D03*
D20*
X99192400Y-79671800D03*
X99192400Y-81321800D03*
D87*
X92579900Y-81446800D03*
X92579900Y-79546800D03*
X90704900Y-80496800D03*
D18*
X81686400Y-65532800D03*
X81686400Y-63982800D03*
D21*
X90417400Y-71696800D03*
X92067400Y-71696800D03*
D17*
X92242400Y-66121800D03*
X92242400Y-64471800D03*
D21*
X99814400Y-115882800D03*
X101464400Y-115882800D03*
D20*
X70826400Y-99538800D03*
X70826400Y-101188800D03*
D17*
X83248400Y-135175800D03*
X83248400Y-133525800D03*
D22*
X130117400Y-111800800D03*
X128467400Y-111800800D03*
D17*
X90748400Y-135175800D03*
X90748400Y-133525800D03*
X77790400Y-77515300D03*
X77790400Y-75865300D03*
D75*
X73468400Y-73583800D03*
X74118400Y-73583800D03*
X74768400Y-73583800D03*
X75418400Y-73583800D03*
X76068400Y-73583800D03*
X76718400Y-73583800D03*
X77368400Y-73583800D03*
X78018400Y-73583800D03*
X78668400Y-73583800D03*
X79318400Y-73583800D03*
X79318400Y-67858800D03*
X78668400Y-67858800D03*
X78018400Y-67858800D03*
X77368400Y-67858800D03*
X76718400Y-67858800D03*
X76068400Y-67858800D03*
X75418400Y-67858800D03*
X74768400Y-67858800D03*
X74118400Y-67858800D03*
X73468400Y-67858800D03*
D17*
X73218400Y-77515300D03*
X73218400Y-75865300D03*
X86248400Y-135175800D03*
X86248400Y-133525800D03*
D21*
X91085400Y-58343800D03*
X92735400Y-58343800D03*
D17*
X85242400Y-77710800D03*
X85242400Y-76060800D03*
D87*
X96972900Y-86747800D03*
X96972900Y-84847800D03*
X95097900Y-85797800D03*
D20*
X103086400Y-111468800D03*
X103086400Y-113118800D03*
D17*
X87748400Y-135175800D03*
X87748400Y-133525800D03*
D22*
X126917400Y-111782800D03*
X125267400Y-111782800D03*
D17*
X86766400Y-77710800D03*
X86766400Y-76060800D03*
X83210400Y-65582800D03*
X83210400Y-63932800D03*
D22*
X97217400Y-83146800D03*
X95567400Y-83146800D03*
D20*
X99742400Y-134471800D03*
X99742400Y-136121800D03*
D17*
X86248400Y-139425800D03*
X86248400Y-137775800D03*
X87782400Y-65582800D03*
X87782400Y-63932800D03*
D20*
X89248400Y-133525800D03*
X89248400Y-135175800D03*
D89*
X91384900Y-60068769D03*
X91384900Y-60718769D03*
X91384900Y-61368769D03*
X91384900Y-62018769D03*
X95609900Y-62018769D03*
X95609900Y-61368769D03*
X95609900Y-60718769D03*
X95609900Y-60068769D03*
D90*
X103765400Y-138931800D03*
X102765400Y-138931800D03*
X101765400Y-138931800D03*
X100765400Y-138931800D03*
X99765400Y-138931800D03*
X98765400Y-138931800D03*
X97765400Y-138931800D03*
D91*
X96760400Y-138931800D03*
D92*
X105065400Y-142048800D03*
X95465400Y-142048800D03*
D17*
X84734400Y-65582800D03*
X84734400Y-63932800D03*
D93*
X103751400Y-122721300D03*
X103101400Y-122721300D03*
X102451400Y-122721300D03*
X101801400Y-122721300D03*
X101151400Y-122721300D03*
X100501400Y-122721300D03*
X99851400Y-122721300D03*
X99201400Y-122721300D03*
X98551400Y-122721300D03*
X97901400Y-122721300D03*
X97251400Y-122721300D03*
X96601400Y-122721300D03*
X96601400Y-128446300D03*
X97251400Y-128446300D03*
X97901400Y-128446300D03*
X98551400Y-128446300D03*
X99201400Y-128446300D03*
X99851400Y-128446300D03*
X100501400Y-128446300D03*
X101151400Y-128446300D03*
X101801400Y-128446300D03*
X102451400Y-128446300D03*
X103101400Y-128446300D03*
X103751400Y-128446300D03*
D18*
X97561400Y-60040769D03*
X97561400Y-58490769D03*
D22*
X92067400Y-77234800D03*
X90417400Y-77234800D03*
D94*
X99658400Y-113747300D03*
X100608400Y-113747300D03*
X101558400Y-113747300D03*
X101558400Y-111472300D03*
X99658400Y-111472300D03*
D95*
X102713100Y-65693801D03*
X102713100Y-65193799D03*
X102713100Y-64693800D03*
X102713100Y-64193801D03*
X102713100Y-63693799D03*
X98623700Y-63693799D03*
X98623700Y-64193801D03*
X98623700Y-64693800D03*
X98623700Y-65193799D03*
X98623700Y-65693801D03*
D30*
X49661600Y-118343896D03*
D31*
X52201600Y-120883896D03*
X47121600Y-115803896D03*
X47121600Y-120883896D03*
X52201600Y-115803896D03*
D18*
X72456400Y-65527300D03*
X72456400Y-63977300D03*
D17*
X97948400Y-113784800D03*
X97948400Y-112134800D03*
M02*
