G04 #@! TF.GenerationSoftware,KiCad,Pcbnew,(6.0.5)*
G04 #@! TF.CreationDate,2022-06-21T16:45:58-04:00*
G04 #@! TF.ProjectId,mainboard,6d61696e-626f-4617-9264-2e6b69636164,rev?*
G04 #@! TF.SameCoordinates,Original*
G04 #@! TF.FileFunction,Soldermask,Bot*
G04 #@! TF.FilePolarity,Negative*
%FSLAX46Y46*%
G04 Gerber Fmt 4.6, Leading zero omitted, Abs format (unit mm)*
G04 Created by KiCad (PCBNEW (6.0.5)) date 2022-06-21 16:45:58*
%MOMM*%
%LPD*%
G01*
G04 APERTURE LIST*
G04 Aperture macros list*
%AMRoundRect*
0 Rectangle with rounded corners*
0 $1 Rounding radius*
0 $2 $3 $4 $5 $6 $7 $8 $9 X,Y pos of 4 corners*
0 Add a 4 corners polygon primitive as box body*
4,1,4,$2,$3,$4,$5,$6,$7,$8,$9,$2,$3,0*
0 Add four circle primitives for the rounded corners*
1,1,$1+$1,$2,$3*
1,1,$1+$1,$4,$5*
1,1,$1+$1,$6,$7*
1,1,$1+$1,$8,$9*
0 Add four rect primitives between the rounded corners*
20,1,$1+$1,$2,$3,$4,$5,0*
20,1,$1+$1,$4,$5,$6,$7,0*
20,1,$1+$1,$6,$7,$8,$9,0*
20,1,$1+$1,$8,$9,$2,$3,0*%
%AMFreePoly0*
4,1,25,0.115149,2.428891,0.133461,2.421305,0.222677,2.361692,0.236692,2.347677,0.296305,2.258461,0.303891,2.240149,0.324824,2.134911,0.325800,2.125000,0.325800,-1.400000,0.310921,-1.435921,0.275000,-1.450800,-0.275000,-1.450800,-0.310921,-1.435921,-0.325800,-1.400000,-0.325800,2.125000,-0.324824,2.134911,-0.303891,2.240149,-0.296305,2.258461,-0.236692,2.347677,-0.222677,2.361692,
-0.133461,2.421305,-0.115149,2.428891,-0.009911,2.449824,0.009911,2.449824,0.115149,2.428891,0.115149,2.428891,$1*%
G04 Aperture macros list end*
%ADD10C,0.190500*%
%ADD11C,0.100000*%
%ADD12RoundRect,0.050800X-0.850000X-0.850000X0.850000X-0.850000X0.850000X0.850000X-0.850000X0.850000X0*%
%ADD13O,1.801600X1.801600*%
%ADD14C,2.133600*%
%ADD15C,2.151600*%
%ADD16C,2.351600*%
%ADD17C,5.181600*%
%ADD18FreePoly0,0.000000*%
%ADD19C,0.801600*%
%ADD20RoundRect,0.063500X0.812800X-0.406400X0.812800X0.406400X-0.812800X0.406400X-0.812800X-0.406400X0*%
%ADD21RoundRect,0.250800X0.200000X0.275000X-0.200000X0.275000X-0.200000X-0.275000X0.200000X-0.275000X0*%
%ADD22RoundRect,0.063500X-0.279400X-0.660400X0.279400X-0.660400X0.279400X0.660400X-0.279400X0.660400X0*%
%ADD23RoundRect,0.275800X0.250000X-0.225000X0.250000X0.225000X-0.250000X0.225000X-0.250000X-0.225000X0*%
%ADD24RoundRect,0.300800X-0.475000X0.250000X-0.475000X-0.250000X0.475000X-0.250000X0.475000X0.250000X0*%
%ADD25RoundRect,0.200800X-0.150000X0.825000X-0.150000X-0.825000X0.150000X-0.825000X0.150000X0.825000X0*%
%ADD26RoundRect,0.250800X-0.200000X-0.275000X0.200000X-0.275000X0.200000X0.275000X-0.200000X0.275000X0*%
%ADD27RoundRect,0.200800X0.150000X-0.825000X0.150000X0.825000X-0.150000X0.825000X-0.150000X-0.825000X0*%
%ADD28RoundRect,0.063500X0.660400X-0.279400X0.660400X0.279400X-0.660400X0.279400X-0.660400X-0.279400X0*%
%ADD29RoundRect,0.275800X-0.225000X-0.250000X0.225000X-0.250000X0.225000X0.250000X-0.225000X0.250000X0*%
%ADD30RoundRect,0.063500X-0.620000X0.400000X-0.620000X-0.400000X0.620000X-0.400000X0.620000X0.400000X0*%
%ADD31RoundRect,0.063500X-0.600000X0.580000X-0.600000X-0.580000X0.600000X-0.580000X0.600000X0.580000X0*%
%ADD32RoundRect,0.063500X-1.250000X0.475000X-1.250000X-0.475000X1.250000X-0.475000X1.250000X0.475000X0*%
%ADD33RoundRect,0.063500X-1.100000X0.575000X-1.100000X-0.575000X1.100000X-0.575000X1.100000X0.575000X0*%
%ADD34RoundRect,0.063500X-0.575000X0.750000X-0.575000X-0.750000X0.575000X-0.750000X0.575000X0.750000X0*%
%ADD35RoundRect,0.063500X-0.625000X0.580000X-0.625000X-0.580000X0.625000X-0.580000X0.625000X0.580000X0*%
%ADD36RoundRect,0.275800X-0.250000X0.225000X-0.250000X-0.225000X0.250000X-0.225000X0.250000X0.225000X0*%
%ADD37RoundRect,0.275800X0.225000X0.250000X-0.225000X0.250000X-0.225000X-0.250000X0.225000X-0.250000X0*%
%ADD38RoundRect,0.050800X0.400000X-0.150000X0.400000X0.150000X-0.400000X0.150000X-0.400000X-0.150000X0*%
%ADD39RoundRect,0.050800X0.150000X0.400000X-0.150000X0.400000X-0.150000X-0.400000X0.150000X-0.400000X0*%
%ADD40RoundRect,0.050800X1.400000X1.400000X-1.400000X1.400000X-1.400000X-1.400000X1.400000X-1.400000X0*%
%ADD41RoundRect,0.300800X-0.250000X-0.475000X0.250000X-0.475000X0.250000X0.475000X-0.250000X0.475000X0*%
%ADD42RoundRect,0.250800X0.275000X-0.200000X0.275000X0.200000X-0.275000X0.200000X-0.275000X-0.200000X0*%
%ADD43RoundRect,0.300800X0.250000X0.475000X-0.250000X0.475000X-0.250000X-0.475000X0.250000X-0.475000X0*%
%ADD44RoundRect,0.250800X-0.275000X0.200000X-0.275000X-0.200000X0.275000X-0.200000X0.275000X0.200000X0*%
%ADD45RoundRect,0.228400X-0.822400X0.222400X-0.822400X-0.222400X0.822400X-0.222400X0.822400X0.222400X0*%
%ADD46RoundRect,0.050800X0.325000X0.200000X-0.325000X0.200000X-0.325000X-0.200000X0.325000X-0.200000X0*%
%ADD47RoundRect,0.050800X0.300000X-0.200000X0.300000X0.200000X-0.300000X0.200000X-0.300000X-0.200000X0*%
%ADD48RoundRect,0.063500X-0.450000X-0.700000X0.450000X-0.700000X0.450000X0.700000X-0.450000X0.700000X0*%
%ADD49RoundRect,0.063500X-1.100000X-0.700000X1.100000X-0.700000X1.100000X0.700000X-1.100000X0.700000X0*%
%ADD50RoundRect,0.050800X0.350000X-0.225000X0.350000X0.225000X-0.350000X0.225000X-0.350000X-0.225000X0*%
%ADD51RoundRect,0.190800X-0.170000X0.140000X-0.170000X-0.140000X0.170000X-0.140000X0.170000X0.140000X0*%
%ADD52RoundRect,0.050800X0.185000X-0.500000X0.185000X0.500000X-0.185000X0.500000X-0.185000X-0.500000X0*%
%ADD53RoundRect,0.050800X-0.185000X0.500000X-0.185000X-0.500000X0.185000X-0.500000X0.185000X0.500000X0*%
%ADD54RoundRect,0.152300X0.101500X0.571500X-0.101500X0.571500X-0.101500X-0.571500X0.101500X-0.571500X0*%
%ADD55RoundRect,0.050800X0.203000X0.673000X-0.203000X0.673000X-0.203000X-0.673000X0.203000X-0.673000X0*%
%ADD56RoundRect,0.050800X-0.750000X-0.952500X0.750000X-0.952500X0.750000X0.952500X-0.750000X0.952500X0*%
%ADD57RoundRect,0.050800X0.952500X-0.952500X0.952500X0.952500X-0.952500X0.952500X-0.952500X-0.952500X0*%
%ADD58RoundRect,0.050800X-1.054000X-0.800000X1.054000X-0.800000X1.054000X0.800000X-1.054000X0.800000X0*%
%ADD59RoundRect,0.050800X-0.952500X-0.952500X0.952500X-0.952500X0.952500X0.952500X-0.952500X0.952500X0*%
%ADD60RoundRect,0.050800X1.054000X0.800000X-1.054000X0.800000X-1.054000X-0.800000X1.054000X-0.800000X0*%
%ADD61RoundRect,0.050800X0.750000X0.952500X-0.750000X0.952500X-0.750000X-0.952500X0.750000X-0.952500X0*%
%ADD62RoundRect,0.050800X-0.225000X-0.200000X0.225000X-0.200000X0.225000X0.200000X-0.225000X0.200000X0*%
%ADD63RoundRect,0.050800X-0.225000X-0.250000X0.225000X-0.250000X0.225000X0.250000X-0.225000X0.250000X0*%
%ADD64RoundRect,0.185800X-0.185000X0.135000X-0.185000X-0.135000X0.185000X-0.135000X0.185000X0.135000X0*%
%ADD65RoundRect,0.185800X0.185000X-0.135000X0.185000X0.135000X-0.185000X0.135000X-0.185000X-0.135000X0*%
%ADD66RoundRect,0.185800X-0.135000X-0.185000X0.135000X-0.185000X0.135000X0.185000X-0.135000X0.185000X0*%
%ADD67RoundRect,0.190800X-0.140000X-0.170000X0.140000X-0.170000X0.140000X0.170000X-0.140000X0.170000X0*%
%ADD68RoundRect,0.190800X0.140000X0.170000X-0.140000X0.170000X-0.140000X-0.170000X0.140000X-0.170000X0*%
%ADD69RoundRect,0.200800X0.825000X0.150000X-0.825000X0.150000X-0.825000X-0.150000X0.825000X-0.150000X0*%
%ADD70RoundRect,0.200800X-0.825000X-0.150000X0.825000X-0.150000X0.825000X0.150000X-0.825000X0.150000X0*%
%ADD71RoundRect,0.300800X0.475000X-0.250000X0.475000X0.250000X-0.475000X0.250000X-0.475000X-0.250000X0*%
%ADD72RoundRect,0.050800X-0.325000X-0.200000X0.325000X-0.200000X0.325000X0.200000X-0.325000X0.200000X0*%
%ADD73RoundRect,0.050800X-0.300000X0.200000X-0.300000X-0.200000X0.300000X-0.200000X0.300000X0.200000X0*%
%ADD74RoundRect,0.050800X-2.700000X1.450000X-2.700000X-1.450000X2.700000X-1.450000X2.700000X1.450000X0*%
%ADD75RoundRect,0.275800X-0.017678X0.335876X-0.335876X0.017678X0.017678X-0.335876X0.335876X-0.017678X0*%
%ADD76RoundRect,0.300800X-0.787500X-1.025000X0.787500X-1.025000X0.787500X1.025000X-0.787500X1.025000X0*%
%ADD77RoundRect,0.200800X-0.150000X0.587500X-0.150000X-0.587500X0.150000X-0.587500X0.150000X0.587500X0*%
G04 APERTURE END LIST*
D10*
X105138778Y-147118609D02*
X105138778Y-146356609D01*
X105138778Y-146719466D02*
X104703350Y-146719466D01*
X104703350Y-147118609D02*
X104703350Y-146356609D01*
X104340493Y-147118609D02*
X104340493Y-146356609D01*
X103614778Y-147118609D02*
X103977635Y-147118609D01*
X103977635Y-146356609D01*
X102997921Y-147118609D02*
X103360778Y-147118609D01*
X103360778Y-146356609D01*
X102743921Y-147118609D02*
X102743921Y-146356609D01*
X102417350Y-147082323D02*
X102308493Y-147118609D01*
X102127064Y-147118609D01*
X102054493Y-147082323D01*
X102018207Y-147046037D01*
X101981921Y-146973466D01*
X101981921Y-146900895D01*
X102018207Y-146828323D01*
X102054493Y-146792037D01*
X102127064Y-146755752D01*
X102272207Y-146719466D01*
X102344778Y-146683180D01*
X102381064Y-146646895D01*
X102417350Y-146574323D01*
X102417350Y-146501752D01*
X102381064Y-146429180D01*
X102344778Y-146392895D01*
X102272207Y-146356609D01*
X102090778Y-146356609D01*
X101981921Y-146392895D01*
G36*
X115372313Y-53208055D02*
G01*
X62572313Y-53208055D01*
X62572313Y-49008055D01*
X115372313Y-49008055D01*
X115372313Y-53208055D01*
G37*
D11*
X115372313Y-53208055D02*
X62572313Y-53208055D01*
X62572313Y-49008055D01*
X115372313Y-49008055D01*
X115372313Y-53208055D01*
D12*
X78592400Y-117779300D03*
D13*
X78592400Y-120319300D03*
X78592400Y-122859300D03*
X78592400Y-125399300D03*
X78592400Y-127939300D03*
D14*
X48690000Y-65794200D03*
X56310000Y-65794200D03*
X48690000Y-75954200D03*
X56310000Y-83574200D03*
X48690000Y-83574200D03*
D15*
X49653500Y-134480896D03*
D16*
X47113500Y-137020896D03*
X47113500Y-131940896D03*
X52193500Y-131940896D03*
X52193500Y-137020896D03*
D17*
X52768500Y-57360900D03*
X126428500Y-57360900D03*
X128968500Y-143090900D03*
X48968508Y-143090900D03*
D18*
X63772313Y-51608055D03*
X64572313Y-51608055D03*
X65372313Y-51608055D03*
X66172313Y-51608055D03*
X66972313Y-51608055D03*
X67772313Y-51608055D03*
X68572313Y-51608055D03*
X69372313Y-51608055D03*
X70172313Y-51608055D03*
X70972313Y-51608055D03*
X71772313Y-51608055D03*
X72572313Y-51608055D03*
X73372313Y-51608055D03*
X74172313Y-51608055D03*
X74972313Y-51608055D03*
X75772313Y-51608055D03*
X76572313Y-51608055D03*
X77372313Y-51608055D03*
X78172313Y-51608055D03*
X78972313Y-51608055D03*
X79772313Y-51608055D03*
X80572313Y-51608055D03*
X81372313Y-51608055D03*
X82172313Y-51608055D03*
X82972313Y-51608055D03*
X83772313Y-51608055D03*
X84572313Y-51608055D03*
X85372313Y-51608055D03*
X86172313Y-51608055D03*
X86972313Y-51608055D03*
X87772313Y-51608055D03*
X88572313Y-51608055D03*
X92572313Y-51608055D03*
X93372313Y-51608055D03*
X94172313Y-51608055D03*
X94972313Y-51608055D03*
X95772313Y-51608055D03*
X96572313Y-51608055D03*
X97372313Y-51608055D03*
X98172313Y-51608055D03*
X98972313Y-51608055D03*
X99772313Y-51608055D03*
X100572313Y-51608055D03*
X101372313Y-51608055D03*
X102172313Y-51608055D03*
X102972313Y-51608055D03*
X103772313Y-51608055D03*
X104572313Y-51608055D03*
X105372313Y-51608055D03*
X106172313Y-51608055D03*
X106972313Y-51608055D03*
X107772313Y-51608055D03*
X108572313Y-51608055D03*
X109372313Y-51608055D03*
X110172313Y-51608055D03*
X110972313Y-51608055D03*
X111772313Y-51608055D03*
X112572313Y-51608055D03*
X113372313Y-51608055D03*
X114172313Y-51608055D03*
D19*
X57742270Y-48245067D03*
X57742270Y-50045067D03*
D15*
X49661600Y-118343896D03*
D16*
X52201600Y-120883896D03*
X47121600Y-115803896D03*
X47121600Y-120883896D03*
X52201600Y-115803896D03*
D20*
X56278400Y-131241800D03*
X56278400Y-130141800D03*
X56278400Y-129041800D03*
X56278400Y-127941800D03*
X56278400Y-126841800D03*
X56278400Y-125741800D03*
X56278400Y-124641800D03*
X56278400Y-121641800D03*
X56278400Y-120541800D03*
X56278400Y-119441800D03*
X56278400Y-118341800D03*
X56278400Y-117241800D03*
X68478400Y-117241800D03*
X68478400Y-118341800D03*
X68478400Y-119441800D03*
X68478400Y-120541800D03*
X68478400Y-121641800D03*
X68478400Y-124641800D03*
X68478400Y-125741800D03*
X68478400Y-126841800D03*
X68478400Y-127941800D03*
X68478400Y-129041800D03*
X68478400Y-130141800D03*
X68478400Y-131241800D03*
D21*
X61796400Y-68664400D03*
X60146400Y-68664400D03*
D22*
X60031100Y-64917900D03*
X61936100Y-64917900D03*
X60983600Y-66797500D03*
D21*
X50327800Y-63533600D03*
X48677800Y-63533600D03*
D23*
X97388400Y-105663800D03*
X97388400Y-104113800D03*
D24*
X94657900Y-111431800D03*
X94657900Y-113331800D03*
D25*
X51890400Y-71167800D03*
X53160400Y-71167800D03*
X54430400Y-71167800D03*
X55700400Y-71167800D03*
X55700400Y-76117800D03*
X54430400Y-76117800D03*
X53160400Y-76117800D03*
X51890400Y-76117800D03*
D26*
X60133200Y-59698200D03*
X61783200Y-59698200D03*
D22*
X56195700Y-61615900D03*
X58100700Y-61615900D03*
X57148200Y-63495500D03*
D21*
X55560200Y-68613600D03*
X53910200Y-68613600D03*
D25*
X57859400Y-71167800D03*
X59129400Y-71167800D03*
X60399400Y-71167800D03*
X61669400Y-71167800D03*
X61669400Y-76117800D03*
X60399400Y-76117800D03*
X59129400Y-76117800D03*
X57859400Y-76117800D03*
D27*
X74416838Y-134524257D03*
X73146838Y-134524257D03*
X71876838Y-134524257D03*
X70606838Y-134524257D03*
X70606838Y-129574257D03*
X71876838Y-129574257D03*
X73146838Y-129574257D03*
X74416838Y-129574257D03*
D26*
X62412338Y-138599753D03*
X64062338Y-138599753D03*
X62412338Y-136440753D03*
X64062338Y-136440753D03*
D21*
X71899543Y-137561238D03*
X70249543Y-137561238D03*
D28*
X66298038Y-138536253D03*
X66298038Y-136631253D03*
X68177638Y-137583753D03*
D29*
X83679500Y-106624400D03*
X85229500Y-106624400D03*
D30*
X55050400Y-104169800D03*
X55050400Y-105269800D03*
X55050400Y-106369800D03*
X55050400Y-107469800D03*
X55050400Y-108569800D03*
X55050400Y-109669800D03*
X55050400Y-110769800D03*
X55050400Y-111869800D03*
D31*
X66680400Y-113809800D03*
D32*
X55680400Y-99824800D03*
D33*
X55530400Y-114214800D03*
X67010400Y-99924800D03*
D34*
X67805400Y-104229800D03*
X67805400Y-112009800D03*
D35*
X57680400Y-113809800D03*
D36*
X92816400Y-111606800D03*
X92816400Y-113156800D03*
D37*
X82174400Y-109270300D03*
X80624400Y-109270300D03*
D38*
X117597400Y-60675300D03*
X117597400Y-61175300D03*
X117597400Y-61675300D03*
X117597400Y-62175300D03*
X117597400Y-62675300D03*
X117597400Y-63175300D03*
D39*
X116847400Y-63925300D03*
X116347400Y-63925300D03*
X115847400Y-63925300D03*
X115347400Y-63925300D03*
X114847400Y-63925300D03*
X114347400Y-63925300D03*
D38*
X113597400Y-63175300D03*
X113597400Y-62675300D03*
X113597400Y-62175300D03*
X113597400Y-61675300D03*
X113597400Y-61175300D03*
X113597400Y-60675300D03*
D39*
X114347400Y-59925300D03*
X114847400Y-59925300D03*
X115347400Y-59925300D03*
X115847400Y-59925300D03*
X116347400Y-59925300D03*
X116847400Y-59925300D03*
D40*
X115597400Y-61925300D03*
D41*
X113694900Y-58089800D03*
X115594900Y-58089800D03*
D42*
X122580400Y-64007800D03*
X122580400Y-62357800D03*
D37*
X118277400Y-58483300D03*
X116727400Y-58483300D03*
D26*
X119408400Y-62293800D03*
X121058400Y-62293800D03*
D43*
X114388400Y-66090800D03*
X112488400Y-66090800D03*
D44*
X98983240Y-100149422D03*
X98983240Y-101799422D03*
D29*
X95920728Y-95688611D03*
X97470728Y-95688611D03*
D37*
X48552400Y-55803800D03*
X47002400Y-55803800D03*
D29*
X83679500Y-108148400D03*
X85229500Y-108148400D03*
D21*
X120994400Y-63931800D03*
X119344400Y-63931800D03*
D45*
X111660400Y-57016800D03*
X111660400Y-59416800D03*
D43*
X130091300Y-98390600D03*
X128191300Y-98390600D03*
D36*
X67399400Y-85572800D03*
X67399400Y-87122800D03*
D29*
X108271400Y-100908600D03*
X109821400Y-100908600D03*
X104371400Y-100908600D03*
X105921400Y-100908600D03*
D46*
X106153400Y-107624600D03*
X106153400Y-108274600D03*
X106153400Y-108924600D03*
X104253400Y-108924600D03*
X104253400Y-108274600D03*
X104253400Y-107624600D03*
D47*
X106153400Y-103687600D03*
X106153400Y-104337600D03*
X106153400Y-104987600D03*
X104253400Y-104987600D03*
X104253400Y-104337600D03*
X104253400Y-103687600D03*
D21*
X129966300Y-92929600D03*
X128316300Y-92929600D03*
D26*
X128316300Y-100041600D03*
X129966300Y-100041600D03*
X128316300Y-106645600D03*
X129966300Y-106645600D03*
D21*
X129966300Y-105121600D03*
X128316300Y-105121600D03*
X67488400Y-88566800D03*
X65838400Y-88566800D03*
X71268000Y-76232400D03*
X69618000Y-76232400D03*
X71295000Y-87395400D03*
X69645000Y-87395400D03*
D42*
X65875400Y-87172800D03*
X65875400Y-85522800D03*
D21*
X109838400Y-111957600D03*
X108188400Y-111957600D03*
D42*
X104380200Y-113490200D03*
X104380200Y-111840200D03*
D21*
X109871400Y-99408600D03*
X108221400Y-99408600D03*
D26*
X104321400Y-99408600D03*
X105971400Y-99408600D03*
D21*
X109838400Y-110433600D03*
X108188400Y-110433600D03*
X106028400Y-110433600D03*
X104378400Y-110433600D03*
D42*
X111461400Y-106664600D03*
X111461400Y-105014600D03*
D21*
X105971400Y-102408600D03*
X104321400Y-102408600D03*
X67462400Y-81394800D03*
X65812400Y-81394800D03*
D26*
X108188400Y-106242600D03*
X109838400Y-106242600D03*
X104378400Y-106268000D03*
X106028400Y-106268000D03*
D46*
X109963400Y-107624600D03*
X109963400Y-108274600D03*
X109963400Y-108924600D03*
X108063400Y-108924600D03*
X108063400Y-108274600D03*
X108063400Y-107624600D03*
D47*
X109963400Y-103687600D03*
X109963400Y-104337600D03*
X109963400Y-104987600D03*
X108063400Y-104987600D03*
X108063400Y-104337600D03*
X108063400Y-103687600D03*
D21*
X71268000Y-88788400D03*
X69618000Y-88788400D03*
D44*
X69708000Y-77680400D03*
X69708000Y-79330400D03*
D23*
X71232000Y-79280400D03*
X71232000Y-77730400D03*
D26*
X65812400Y-77457800D03*
X67462400Y-77457800D03*
D21*
X109863400Y-102364600D03*
X108213400Y-102364600D03*
D48*
X54051600Y-66124400D03*
D49*
X51501600Y-66124400D03*
D46*
X130091300Y-102566600D03*
X130091300Y-103216600D03*
X130091300Y-103866600D03*
X128191300Y-103866600D03*
X128191300Y-103216600D03*
X128191300Y-102566600D03*
X130091300Y-95708600D03*
X130091300Y-96358600D03*
X130091300Y-97008600D03*
X128191300Y-97008600D03*
X128191300Y-96358600D03*
X128191300Y-95708600D03*
D26*
X128316300Y-101438600D03*
X129966300Y-101438600D03*
D21*
X129966300Y-94453600D03*
X128316300Y-94453600D03*
D50*
X51857400Y-63108600D03*
X51857400Y-61808600D03*
X53857400Y-62458600D03*
D21*
X61783200Y-61349200D03*
X60133200Y-61349200D03*
D26*
X60158600Y-62974800D03*
X61808600Y-62974800D03*
X65839400Y-76064800D03*
X67489400Y-76064800D03*
D44*
X96604400Y-75679800D03*
X96604400Y-77329800D03*
D26*
X69645000Y-83458400D03*
X71295000Y-83458400D03*
D41*
X80690400Y-110984800D03*
X82590400Y-110984800D03*
D21*
X73527338Y-126715257D03*
X71877338Y-126715257D03*
D26*
X56323200Y-59698200D03*
X57973200Y-59698200D03*
D51*
X130616800Y-53456900D03*
X130616800Y-54416900D03*
X131607400Y-53456900D03*
X131607400Y-54416900D03*
D52*
X52972281Y-47795180D03*
D53*
X51112281Y-47795180D03*
D52*
X56772273Y-47795180D03*
D53*
X54912273Y-47795180D03*
D52*
X60572291Y-47795180D03*
D53*
X58712291Y-47795180D03*
D54*
X120797286Y-52512066D03*
D55*
X121447286Y-52512066D03*
X122097286Y-52512066D03*
X122747286Y-52512066D03*
X123397286Y-52512066D03*
D56*
X118296287Y-49845066D03*
D57*
X123322286Y-49845066D03*
D58*
X125246285Y-52345067D03*
D59*
X120922286Y-49845066D03*
D60*
X118998287Y-52345067D03*
D61*
X125948285Y-49845066D03*
D62*
X51822500Y-49790300D03*
X51822500Y-48990300D03*
D63*
X52972500Y-49390300D03*
D62*
X55607100Y-49790300D03*
X55607100Y-48990300D03*
D63*
X56757100Y-49390300D03*
D62*
X59315500Y-49790300D03*
X59315500Y-48990300D03*
D63*
X60465500Y-49390300D03*
D64*
X129626200Y-53452300D03*
X129626200Y-54472300D03*
D65*
X50848100Y-50001900D03*
X50848100Y-48981900D03*
X54683500Y-50001900D03*
X54683500Y-48981900D03*
X58264900Y-51957700D03*
X58264900Y-50937700D03*
D66*
X51811300Y-50939700D03*
X52831300Y-50939700D03*
X55621300Y-50939700D03*
X56641300Y-50939700D03*
X59304300Y-50939700D03*
X60324300Y-50939700D03*
D67*
X122427900Y-54317900D03*
X123387900Y-54317900D03*
D68*
X121406700Y-54317900D03*
X120446700Y-54317900D03*
D69*
X106572400Y-57962800D03*
X106572400Y-59232800D03*
X106572400Y-60502800D03*
X106572400Y-61772800D03*
X101622400Y-61772800D03*
X101622400Y-60502800D03*
X101622400Y-59232800D03*
X101622400Y-57962800D03*
D70*
X95780400Y-74218800D03*
X95780400Y-72948800D03*
X95780400Y-71678800D03*
X95780400Y-70408800D03*
X100730400Y-70408800D03*
X100730400Y-71678800D03*
X100730400Y-72948800D03*
X100730400Y-74218800D03*
X103654400Y-74091800D03*
X103654400Y-72821800D03*
X103654400Y-71551800D03*
X103654400Y-70281800D03*
X108604400Y-70281800D03*
X108604400Y-71551800D03*
X108604400Y-72821800D03*
X108604400Y-74091800D03*
D44*
X109442400Y-61722800D03*
X109442400Y-63372800D03*
D42*
X101989200Y-68744600D03*
X101989200Y-67094600D03*
D29*
X61745400Y-88044800D03*
X63295400Y-88044800D03*
D37*
X57588300Y-94036700D03*
X56038300Y-94036700D03*
X49668858Y-94485800D03*
X48118858Y-94485800D03*
D36*
X60178000Y-95663400D03*
X60178000Y-97213400D03*
X58649600Y-95669400D03*
X58649600Y-97219400D03*
D71*
X52281800Y-96316800D03*
X52281800Y-94416800D03*
D37*
X57615134Y-88201049D03*
X56065134Y-88201049D03*
D23*
X53944600Y-90175200D03*
X53944600Y-88625200D03*
D37*
X49503000Y-88990400D03*
X47953000Y-88990400D03*
D36*
X60158924Y-89672600D03*
X60158924Y-91222600D03*
X58598648Y-89698400D03*
X58598648Y-91248400D03*
D71*
X52232600Y-90715800D03*
X52232600Y-88815800D03*
D23*
X54093800Y-95780000D03*
X54093800Y-94230000D03*
D69*
X108477400Y-76377800D03*
X108477400Y-77647800D03*
X108477400Y-78917800D03*
X108477400Y-80187800D03*
X103527400Y-80187800D03*
X103527400Y-78917800D03*
X103527400Y-77647800D03*
X103527400Y-76377800D03*
D72*
X65687400Y-80139800D03*
X65687400Y-79489800D03*
X65687400Y-78839800D03*
X67587400Y-78839800D03*
X67587400Y-79489800D03*
X67587400Y-80139800D03*
D46*
X71420000Y-84713400D03*
X71420000Y-85363400D03*
X71420000Y-86013400D03*
X69520000Y-86013400D03*
X69520000Y-85363400D03*
X69520000Y-84713400D03*
D73*
X65687400Y-84076800D03*
X65687400Y-83426800D03*
X65687400Y-82776800D03*
X67587400Y-82776800D03*
X67587400Y-83426800D03*
X67587400Y-84076800D03*
D47*
X71420000Y-80776400D03*
X71420000Y-81426400D03*
X71420000Y-82076400D03*
X69520000Y-82076400D03*
X69520000Y-81426400D03*
X69520000Y-80776400D03*
D74*
X122453400Y-74475800D03*
X122453400Y-84375800D03*
D75*
X93910509Y-103223184D03*
X92814493Y-104319200D03*
D29*
X93514600Y-97726000D03*
X95064600Y-97726000D03*
D23*
X85140300Y-93277000D03*
X85140300Y-91727000D03*
X80616400Y-97473800D03*
X80616400Y-95923800D03*
D37*
X77686200Y-105003600D03*
X76136200Y-105003600D03*
D29*
X83679500Y-109672400D03*
X85229500Y-109672400D03*
D44*
X96948400Y-121118800D03*
X96948400Y-122768800D03*
D76*
X117562900Y-69646800D03*
X123787900Y-69646800D03*
D26*
X68542400Y-73583800D03*
X70192400Y-73583800D03*
D42*
X76647400Y-73324300D03*
X76647400Y-71674300D03*
D21*
X102117400Y-120546800D03*
X100467400Y-120546800D03*
D42*
X89052400Y-71487800D03*
X89052400Y-69837800D03*
D44*
X98296400Y-121138800D03*
X98296400Y-122788800D03*
D42*
X103979400Y-65518800D03*
X103979400Y-63868800D03*
X78171400Y-73324300D03*
X78171400Y-71674300D03*
D21*
X93365400Y-71831200D03*
X91715400Y-71831200D03*
D42*
X79695400Y-73324300D03*
X79695400Y-71674300D03*
D26*
X94536400Y-125307800D03*
X96186400Y-125307800D03*
D23*
X102332400Y-65468800D03*
X102332400Y-63918800D03*
D44*
X103665600Y-67094600D03*
X103665600Y-68744600D03*
D42*
X87528400Y-71487800D03*
X87528400Y-69837800D03*
X81807000Y-74914865D03*
X81807000Y-73264865D03*
X86004400Y-71487800D03*
X86004400Y-69837800D03*
D26*
X94536400Y-126731800D03*
X96186400Y-126731800D03*
D23*
X103711962Y-128766756D03*
X103711962Y-127216756D03*
D44*
X95642400Y-128171800D03*
X95642400Y-129821800D03*
D21*
X105617400Y-119071800D03*
X103967400Y-119071800D03*
X105617400Y-117571800D03*
X103967400Y-117571800D03*
D42*
X82067400Y-71233800D03*
X82067400Y-69583800D03*
D26*
X91676800Y-70408800D03*
X93326800Y-70408800D03*
D21*
X107680282Y-63315140D03*
X106030282Y-63315140D03*
D42*
X73558400Y-70852800D03*
X73558400Y-69202800D03*
X121056400Y-60819800D03*
X121056400Y-59169800D03*
D36*
X99818400Y-111314800D03*
X99818400Y-112864800D03*
D21*
X102117400Y-117571800D03*
X100467400Y-117571800D03*
X102117400Y-119071800D03*
X100467400Y-119071800D03*
D42*
X84480400Y-71487800D03*
X84480400Y-69837800D03*
D44*
X109431400Y-64693800D03*
X109431400Y-66343800D03*
D21*
X105617400Y-120546800D03*
X103967400Y-120546800D03*
D77*
X105824400Y-65073300D03*
X107724400Y-65073300D03*
X106774400Y-66948300D03*
M02*
