G04 #@! TF.GenerationSoftware,KiCad,Pcbnew,(6.0.5)*
G04 #@! TF.CreationDate,2022-06-21T16:45:58-04:00*
G04 #@! TF.ProjectId,mainboard,6d61696e-626f-4617-9264-2e6b69636164,rev?*
G04 #@! TF.SameCoordinates,Original*
G04 #@! TF.FileFunction,Paste,Top*
G04 #@! TF.FilePolarity,Positive*
%FSLAX46Y46*%
G04 Gerber Fmt 4.6, Leading zero omitted, Abs format (unit mm)*
G04 Created by KiCad (PCBNEW (6.0.5)) date 2022-06-21 16:45:58*
%MOMM*%
%LPD*%
G01*
G04 APERTURE LIST*
G04 Aperture macros list*
%AMRoundRect*
0 Rectangle with rounded corners*
0 $1 Rounding radius*
0 $2 $3 $4 $5 $6 $7 $8 $9 X,Y pos of 4 corners*
0 Add a 4 corners polygon primitive as box body*
4,1,4,$2,$3,$4,$5,$6,$7,$8,$9,$2,$3,0*
0 Add four circle primitives for the rounded corners*
1,1,$1+$1,$2,$3*
1,1,$1+$1,$4,$5*
1,1,$1+$1,$6,$7*
1,1,$1+$1,$8,$9*
0 Add four rect primitives between the rounded corners*
20,1,$1+$1,$2,$3,$4,$5,0*
20,1,$1+$1,$4,$5,$6,$7,0*
20,1,$1+$1,$6,$7,$8,$9,0*
20,1,$1+$1,$8,$9,$2,$3,0*%
%AMRotRect*
0 Rectangle, with rotation*
0 The origin of the aperture is its center*
0 $1 length*
0 $2 width*
0 $3 Rotation angle, in degrees counterclockwise*
0 Add horizontal line*
21,1,$1,$2,0,0,$3*%
G04 Aperture macros list end*
%ADD10C,1.600200*%
%ADD11C,0.010000*%
%ADD12R,1.600200X0.304800*%
%ADD13R,2.310000X2.460000*%
%ADD14RoundRect,0.250000X-0.475000X0.250000X-0.475000X-0.250000X0.475000X-0.250000X0.475000X0.250000X0*%
%ADD15RoundRect,0.225000X-0.225000X-0.250000X0.225000X-0.250000X0.225000X0.250000X-0.225000X0.250000X0*%
%ADD16RoundRect,0.200000X0.275000X-0.200000X0.275000X0.200000X-0.275000X0.200000X-0.275000X-0.200000X0*%
%ADD17RoundRect,0.225000X0.250000X-0.225000X0.250000X0.225000X-0.250000X0.225000X-0.250000X-0.225000X0*%
%ADD18RoundRect,0.225000X0.225000X0.250000X-0.225000X0.250000X-0.225000X-0.250000X0.225000X-0.250000X0*%
%ADD19RoundRect,0.200000X-0.275000X0.200000X-0.275000X-0.200000X0.275000X-0.200000X0.275000X0.200000X0*%
%ADD20RoundRect,0.200000X-0.200000X-0.275000X0.200000X-0.275000X0.200000X0.275000X-0.200000X0.275000X0*%
%ADD21RoundRect,0.200000X0.200000X0.275000X-0.200000X0.275000X-0.200000X-0.275000X0.200000X-0.275000X0*%
%ADD22RotRect,1.050000X0.450000X135.000000*%
%ADD23RotRect,2.100000X2.100000X225.000000*%
%ADD24RoundRect,0.150000X-0.150000X0.725000X-0.150000X-0.725000X0.150000X-0.725000X0.150000X0.725000X0*%
%ADD25RoundRect,0.250000X0.475000X-0.250000X0.475000X0.250000X-0.475000X0.250000X-0.475000X-0.250000X0*%
%ADD26R,1.000000X1.500000*%
%ADD27RoundRect,0.250000X1.025305X0.494975X0.494975X1.025305X-1.025305X-0.494975X-0.494975X-1.025305X0*%
%ADD28RoundRect,0.225000X0.017678X-0.335876X0.335876X-0.017678X-0.017678X0.335876X-0.335876X0.017678X0*%
%ADD29RotRect,1.000000X1.800000X225.000000*%
%ADD30RoundRect,0.225000X-0.017678X0.335876X-0.335876X0.017678X0.017678X-0.335876X0.335876X-0.017678X0*%
%ADD31RoundRect,0.250000X-0.362500X-1.425000X0.362500X-1.425000X0.362500X1.425000X-0.362500X1.425000X0*%
%ADD32RoundRect,0.333000X1.767000X-0.417000X1.767000X0.417000X-1.767000X0.417000X-1.767000X-0.417000X0*%
%ADD33RoundRect,0.250000X-0.325000X-1.100000X0.325000X-1.100000X0.325000X1.100000X-0.325000X1.100000X0*%
%ADD34R,1.778000X0.330200*%
%ADD35R,1.300000X2.000000*%
%ADD36R,0.900000X0.900000*%
%ADD37R,0.400000X0.650000*%
%ADD38RoundRect,0.250000X-0.250000X-0.475000X0.250000X-0.475000X0.250000X0.475000X-0.250000X0.475000X0*%
%ADD39RoundRect,0.225000X-0.250000X0.225000X-0.250000X-0.225000X0.250000X-0.225000X0.250000X0.225000X0*%
%ADD40RoundRect,0.140000X-0.170000X0.140000X-0.170000X-0.140000X0.170000X-0.140000X0.170000X0.140000X0*%
%ADD41RoundRect,0.250000X-0.650000X0.325000X-0.650000X-0.325000X0.650000X-0.325000X0.650000X0.325000X0*%
%ADD42RoundRect,0.140000X0.140000X0.170000X-0.140000X0.170000X-0.140000X-0.170000X0.140000X-0.170000X0*%
%ADD43RoundRect,0.140000X0.170000X-0.140000X0.170000X0.140000X-0.170000X0.140000X-0.170000X-0.140000X0*%
%ADD44RoundRect,0.140000X-0.140000X-0.170000X0.140000X-0.170000X0.140000X0.170000X-0.140000X0.170000X0*%
%ADD45R,0.370000X1.000000*%
%ADD46R,0.400000X0.450000*%
%ADD47R,0.500000X0.450000*%
%ADD48RoundRect,0.135000X-0.135000X-0.185000X0.135000X-0.185000X0.135000X0.185000X-0.135000X0.185000X0*%
%ADD49RoundRect,0.135000X0.185000X-0.135000X0.185000X0.135000X-0.185000X0.135000X-0.185000X-0.135000X0*%
%ADD50R,1.400000X1.050000*%
%ADD51RoundRect,0.150000X-0.512500X-0.150000X0.512500X-0.150000X0.512500X0.150000X-0.512500X0.150000X0*%
%ADD52RoundRect,0.150000X-0.150000X0.825000X-0.150000X-0.825000X0.150000X-0.825000X0.150000X0.825000X0*%
%ADD53RoundRect,0.150000X0.825000X0.150000X-0.825000X0.150000X-0.825000X-0.150000X0.825000X-0.150000X0*%
%ADD54RoundRect,0.135000X-0.185000X0.135000X-0.185000X-0.135000X0.185000X-0.135000X0.185000X0.135000X0*%
%ADD55R,6.600000X2.850000*%
%ADD56RoundRect,0.150000X-0.150000X0.587500X-0.150000X-0.587500X0.150000X-0.587500X0.150000X0.587500X0*%
%ADD57RoundRect,0.014000X-0.161000X0.231000X-0.161000X-0.231000X0.161000X-0.231000X0.161000X0.231000X0*%
%ADD58RoundRect,0.014000X-0.231000X0.161000X-0.231000X-0.161000X0.231000X-0.161000X0.231000X0.161000X0*%
%ADD59R,0.300000X0.450000*%
%ADD60R,0.450000X0.300000*%
%ADD61R,0.350000X0.375000*%
%ADD62R,0.375000X0.350000*%
%ADD63RoundRect,0.100000X0.100000X-0.637500X0.100000X0.637500X-0.100000X0.637500X-0.100000X-0.637500X0*%
%ADD64RoundRect,0.002500X-0.297500X-0.122500X0.297500X-0.122500X0.297500X0.122500X-0.297500X0.122500X0*%
%ADD65RoundRect,0.002500X-0.122500X-0.297500X0.122500X-0.297500X0.122500X0.297500X-0.122500X0.297500X0*%
%ADD66RoundRect,0.250000X0.325000X1.100000X-0.325000X1.100000X-0.325000X-1.100000X0.325000X-1.100000X0*%
%ADD67R,0.450000X0.600000*%
%ADD68RoundRect,0.250000X-0.625000X0.312500X-0.625000X-0.312500X0.625000X-0.312500X0.625000X0.312500X0*%
%ADD69RoundRect,0.172500X0.172500X0.422500X-0.172500X0.422500X-0.172500X-0.422500X0.172500X-0.422500X0*%
%ADD70RoundRect,0.100000X0.625000X0.100000X-0.625000X0.100000X-0.625000X-0.100000X0.625000X-0.100000X0*%
%ADD71R,2.200000X3.100000*%
%ADD72R,1.520000X1.500000*%
%ADD73R,3.100000X2.200000*%
%ADD74R,1.500000X1.520000*%
%ADD75RoundRect,0.075000X0.521491X-0.415425X-0.415425X0.521491X-0.521491X0.415425X0.415425X-0.521491X0*%
%ADD76RoundRect,0.075000X0.521491X0.415425X0.415425X0.521491X-0.521491X-0.415425X-0.415425X-0.521491X0*%
%ADD77RoundRect,0.150000X0.587500X0.150000X-0.587500X0.150000X-0.587500X-0.150000X0.587500X-0.150000X0*%
%ADD78RoundRect,0.150000X0.150000X-0.587500X0.150000X0.587500X-0.150000X0.587500X-0.150000X-0.587500X0*%
%ADD79RoundRect,0.100000X-0.712500X-0.100000X0.712500X-0.100000X0.712500X0.100000X-0.712500X0.100000X0*%
%ADD80R,0.600000X2.045000*%
%ADD81R,0.610000X2.045000*%
%ADD82R,0.800000X2.389000*%
%ADD83RoundRect,0.100000X-0.100000X0.637500X-0.100000X-0.637500X0.100000X-0.637500X0.100000X0.637500X0*%
%ADD84RoundRect,0.150000X0.150000X-0.512500X0.150000X0.512500X-0.150000X0.512500X-0.150000X-0.512500X0*%
G04 APERTURE END LIST*
G36*
X123175604Y-98770100D02*
G01*
X120865604Y-98770100D01*
X120865604Y-96310100D01*
X123175604Y-96310100D01*
X123175604Y-98770100D01*
G37*
D10*
X53568600Y-57360900D02*
G75*
G03*
X53568600Y-57360900I-800100J0D01*
G01*
X127228600Y-57360900D02*
G75*
G03*
X127228600Y-57360900I-800100J0D01*
G01*
X129768600Y-143090900D02*
G75*
G03*
X129768600Y-143090900I-800100J0D01*
G01*
X49768608Y-143090900D02*
G75*
G03*
X49768608Y-143090900I-800100J0D01*
G01*
G36*
X121874400Y-118853300D02*
G01*
X121299400Y-118853300D01*
X121299400Y-118603300D01*
X121874400Y-118603300D01*
X121874400Y-118853300D01*
G37*
D11*
X121874400Y-118853300D02*
X121299400Y-118853300D01*
X121299400Y-118603300D01*
X121874400Y-118603300D01*
X121874400Y-118853300D01*
G36*
X121598900Y-116878300D02*
G01*
X121848900Y-116878300D01*
X121848900Y-116528300D01*
X122098900Y-116528300D01*
X122098900Y-117128300D01*
X121348900Y-117128300D01*
X121348900Y-116528300D01*
X121598900Y-116528300D01*
X121598900Y-116878300D01*
G37*
X121598900Y-116878300D02*
X121848900Y-116878300D01*
X121848900Y-116528300D01*
X122098900Y-116528300D01*
X122098900Y-117128300D01*
X121348900Y-117128300D01*
X121348900Y-116528300D01*
X121598900Y-116528300D01*
X121598900Y-116878300D01*
G36*
X122649400Y-118853300D02*
G01*
X122074400Y-118853300D01*
X122074400Y-118603300D01*
X122649400Y-118603300D01*
X122649400Y-118853300D01*
G37*
X122649400Y-118853300D02*
X122074400Y-118853300D01*
X122074400Y-118603300D01*
X122649400Y-118603300D01*
X122649400Y-118853300D01*
G36*
X121698900Y-118353300D02*
G01*
X120978900Y-118353300D01*
X120978900Y-118103300D01*
X121698900Y-118103300D01*
X121698900Y-118353300D01*
G37*
X121698900Y-118353300D02*
X120978900Y-118353300D01*
X120978900Y-118103300D01*
X121698900Y-118103300D01*
X121698900Y-118353300D01*
G36*
X122649400Y-117853300D02*
G01*
X122074400Y-117853300D01*
X122074400Y-117603300D01*
X122649400Y-117603300D01*
X122649400Y-117853300D01*
G37*
X122649400Y-117853300D02*
X122074400Y-117853300D01*
X122074400Y-117603300D01*
X122649400Y-117603300D01*
X122649400Y-117853300D01*
G36*
X121874400Y-117853300D02*
G01*
X121299400Y-117853300D01*
X121299400Y-117603300D01*
X121874400Y-117603300D01*
X121874400Y-117853300D01*
G37*
X121874400Y-117853300D02*
X121299400Y-117853300D01*
X121299400Y-117603300D01*
X121874400Y-117603300D01*
X121874400Y-117853300D01*
G36*
X122098900Y-119928300D02*
G01*
X121848900Y-119928300D01*
X121848900Y-119578300D01*
X121598900Y-119578300D01*
X121598900Y-119928300D01*
X121348900Y-119928300D01*
X121348900Y-119328300D01*
X122098900Y-119328300D01*
X122098900Y-119928300D01*
G37*
X122098900Y-119928300D02*
X121848900Y-119928300D01*
X121848900Y-119578300D01*
X121598900Y-119578300D01*
X121598900Y-119928300D01*
X121348900Y-119928300D01*
X121348900Y-119328300D01*
X122098900Y-119328300D01*
X122098900Y-119928300D01*
G36*
X122618900Y-118353300D02*
G01*
X121898900Y-118353300D01*
X121898900Y-118103300D01*
X122618900Y-118103300D01*
X122618900Y-118353300D01*
G37*
X122618900Y-118353300D02*
X121898900Y-118353300D01*
X121898900Y-118103300D01*
X122618900Y-118103300D01*
X122618900Y-118353300D01*
G36*
X122386400Y-132692300D02*
G01*
X121811400Y-132692300D01*
X121811400Y-132442300D01*
X122386400Y-132442300D01*
X122386400Y-132692300D01*
G37*
X122386400Y-132692300D02*
X121811400Y-132692300D01*
X121811400Y-132442300D01*
X122386400Y-132442300D01*
X122386400Y-132692300D01*
G36*
X121335900Y-130717300D02*
G01*
X121585900Y-130717300D01*
X121585900Y-130367300D01*
X121835900Y-130367300D01*
X121835900Y-130967300D01*
X121085900Y-130967300D01*
X121085900Y-130367300D01*
X121335900Y-130367300D01*
X121335900Y-130717300D01*
G37*
X121335900Y-130717300D02*
X121585900Y-130717300D01*
X121585900Y-130367300D01*
X121835900Y-130367300D01*
X121835900Y-130967300D01*
X121085900Y-130967300D01*
X121085900Y-130367300D01*
X121335900Y-130367300D01*
X121335900Y-130717300D01*
G36*
X122386400Y-131692300D02*
G01*
X121811400Y-131692300D01*
X121811400Y-131442300D01*
X122386400Y-131442300D01*
X122386400Y-131692300D01*
G37*
X122386400Y-131692300D02*
X121811400Y-131692300D01*
X121811400Y-131442300D01*
X122386400Y-131442300D01*
X122386400Y-131692300D01*
G36*
X121435900Y-132192300D02*
G01*
X120715900Y-132192300D01*
X120715900Y-131942300D01*
X121435900Y-131942300D01*
X121435900Y-132192300D01*
G37*
X121435900Y-132192300D02*
X120715900Y-132192300D01*
X120715900Y-131942300D01*
X121435900Y-131942300D01*
X121435900Y-132192300D01*
G36*
X121835900Y-133767300D02*
G01*
X121585900Y-133767300D01*
X121585900Y-133417300D01*
X121335900Y-133417300D01*
X121335900Y-133767300D01*
X121085900Y-133767300D01*
X121085900Y-133167300D01*
X121835900Y-133167300D01*
X121835900Y-133767300D01*
G37*
X121835900Y-133767300D02*
X121585900Y-133767300D01*
X121585900Y-133417300D01*
X121335900Y-133417300D01*
X121335900Y-133767300D01*
X121085900Y-133767300D01*
X121085900Y-133167300D01*
X121835900Y-133167300D01*
X121835900Y-133767300D01*
G36*
X121611400Y-132692300D02*
G01*
X121036400Y-132692300D01*
X121036400Y-132442300D01*
X121611400Y-132442300D01*
X121611400Y-132692300D01*
G37*
X121611400Y-132692300D02*
X121036400Y-132692300D01*
X121036400Y-132442300D01*
X121611400Y-132442300D01*
X121611400Y-132692300D01*
G36*
X121611400Y-131692300D02*
G01*
X121036400Y-131692300D01*
X121036400Y-131442300D01*
X121611400Y-131442300D01*
X121611400Y-131692300D01*
G37*
X121611400Y-131692300D02*
X121036400Y-131692300D01*
X121036400Y-131442300D01*
X121611400Y-131442300D01*
X121611400Y-131692300D01*
G36*
X122355900Y-132192300D02*
G01*
X121635900Y-132192300D01*
X121635900Y-131942300D01*
X122355900Y-131942300D01*
X122355900Y-132192300D01*
G37*
X122355900Y-132192300D02*
X121635900Y-132192300D01*
X121635900Y-131942300D01*
X122355900Y-131942300D01*
X122355900Y-132192300D01*
D12*
X124789204Y-99490134D03*
X124789204Y-98840121D03*
X124789204Y-98190112D03*
X124789204Y-97540100D03*
X124789204Y-96890088D03*
X124789204Y-96240079D03*
X124789204Y-95590066D03*
X119252004Y-95590066D03*
X119252004Y-96240079D03*
X119252004Y-96890088D03*
X119252004Y-97540100D03*
X119252004Y-98190112D03*
X119252004Y-98840121D03*
X119252004Y-99490134D03*
D13*
X122020604Y-97540100D03*
D14*
X119757300Y-90952000D03*
X119757300Y-92852000D03*
X122297300Y-90859600D03*
X122297300Y-92759600D03*
D15*
X115388200Y-98902500D03*
X116938200Y-98902500D03*
D16*
X126009400Y-94093800D03*
X126009400Y-92443800D03*
D17*
X127021700Y-97010500D03*
X127021700Y-95460500D03*
D18*
X84608708Y-127755786D03*
X83058708Y-127755786D03*
D19*
X98196400Y-107756051D03*
X98196400Y-109406051D03*
D20*
X88645800Y-130008024D03*
X90295800Y-130008024D03*
D21*
X84613807Y-126184242D03*
X82963807Y-126184242D03*
D22*
X99791357Y-100262696D03*
X100689383Y-99364670D03*
X101587408Y-98466645D03*
X102485434Y-97568619D03*
X98454925Y-93538110D03*
X97556899Y-94436136D03*
X96658874Y-95334161D03*
X95760848Y-96232187D03*
D23*
X99123141Y-96900403D03*
D16*
X109990300Y-109358262D03*
X109990300Y-107708262D03*
D24*
X91145649Y-122391064D03*
X89875649Y-122391064D03*
X88605649Y-122391064D03*
X87335649Y-122391064D03*
X87335649Y-127541064D03*
X88605649Y-127541064D03*
X89875649Y-127541064D03*
X91145649Y-127541064D03*
D21*
X83862400Y-116001300D03*
X82212400Y-116001300D03*
D19*
X116994400Y-62230300D03*
X116994400Y-63880300D03*
D25*
X115279900Y-63637300D03*
X115279900Y-61737300D03*
D14*
X110009400Y-57419300D03*
X110009400Y-59319300D03*
D21*
X128354700Y-99918500D03*
X126704700Y-99918500D03*
D26*
X48615400Y-56147800D03*
X45415400Y-56147800D03*
X45415400Y-61047800D03*
X48615400Y-61047800D03*
D17*
X99835410Y-109388247D03*
X99835410Y-107838247D03*
D16*
X66249397Y-101173296D03*
X66249397Y-99523296D03*
D20*
X82918906Y-124612697D03*
X84568906Y-124612697D03*
D27*
X80534849Y-114070249D03*
X78554951Y-112090351D03*
D17*
X128799700Y-98217000D03*
X128799700Y-96667000D03*
D14*
X111977900Y-57419300D03*
X111977900Y-59319300D03*
D21*
X67386400Y-82545800D03*
X65736400Y-82545800D03*
X73238400Y-81471000D03*
X71588400Y-81471000D03*
D19*
X104902000Y-102045000D03*
X104902000Y-103695000D03*
D16*
X105735500Y-109461862D03*
X105735500Y-107811862D03*
D28*
X92570160Y-116355304D03*
X93666176Y-115259288D03*
D29*
X89450406Y-116780982D03*
X91218172Y-115013216D03*
D30*
X90792494Y-118132970D03*
X89696478Y-119228986D03*
D19*
X101332410Y-107776051D03*
X101332410Y-109426051D03*
D20*
X126704700Y-101633000D03*
X128354700Y-101633000D03*
D31*
X96562900Y-72821800D03*
X102487900Y-72821800D03*
D32*
X115137900Y-96491000D03*
X115137900Y-92891000D03*
D33*
X120291604Y-102493100D03*
X123241604Y-102493100D03*
X120276200Y-106649500D03*
X123226200Y-106649500D03*
D34*
X96972700Y-75504799D03*
X96972700Y-76004801D03*
X96972700Y-76504800D03*
X96972700Y-77004799D03*
X96972700Y-77504801D03*
X101062100Y-77504801D03*
X101062100Y-77004799D03*
X101062100Y-76504800D03*
X101062100Y-76004801D03*
X101062100Y-75504799D03*
D35*
X56860400Y-142562793D03*
X58860400Y-142562793D03*
X60860400Y-142562793D03*
X62860400Y-142562793D03*
X64860400Y-142562793D03*
X66860400Y-142562793D03*
X68860400Y-142562793D03*
X70860400Y-142562793D03*
X70860400Y-107562793D03*
X68860400Y-107562793D03*
X66860400Y-107562793D03*
X64860400Y-107562793D03*
X62860400Y-107562793D03*
X60860400Y-107562793D03*
X58860400Y-107562793D03*
X56860400Y-107562793D03*
D36*
X82935900Y-118142300D03*
X82935900Y-122242300D03*
X84535900Y-118142300D03*
X84535900Y-122242300D03*
D19*
X64627400Y-99499800D03*
X64627400Y-101149800D03*
D16*
X58971500Y-105186800D03*
X58971500Y-103536800D03*
X56971500Y-105186800D03*
X56971500Y-103536800D03*
D19*
X63271500Y-103536800D03*
X63271500Y-105186800D03*
D16*
X64971500Y-105186800D03*
X64971500Y-103536800D03*
X56971500Y-101175200D03*
X56971500Y-99525200D03*
X63103400Y-101175200D03*
X63103400Y-99525200D03*
D37*
X60321500Y-101401800D03*
X60971500Y-101401800D03*
X61621500Y-101401800D03*
X61621500Y-99501800D03*
X60971500Y-99501800D03*
X60321500Y-99501800D03*
D19*
X58785400Y-99525200D03*
X58785400Y-101175200D03*
X60971500Y-103536800D03*
X60971500Y-105186800D03*
X67171500Y-103536800D03*
X67171500Y-105186800D03*
D16*
X68884800Y-105168200D03*
X68884800Y-103518200D03*
D38*
X62958700Y-145908400D03*
X64858700Y-145908400D03*
D39*
X113565400Y-61912300D03*
X113565400Y-63462300D03*
X94576400Y-75856800D03*
X94576400Y-77406800D03*
D14*
X126771400Y-49644300D03*
X126771400Y-51544300D03*
D40*
X125295500Y-49646900D03*
X125295500Y-50606900D03*
X120317100Y-49646900D03*
X120317100Y-50606900D03*
D41*
X118691500Y-49667900D03*
X118691500Y-52617900D03*
D42*
X53845400Y-62661800D03*
X52885400Y-62661800D03*
D43*
X131597400Y-61970800D03*
X131597400Y-61010800D03*
D44*
X122100400Y-144322800D03*
X123060400Y-144322800D03*
D42*
X55087400Y-145973800D03*
X54127400Y-145973800D03*
D45*
X52512278Y-47795180D03*
X54372278Y-47795180D03*
D46*
X50829100Y-48949300D03*
X51629100Y-48949300D03*
D47*
X51229100Y-47799300D03*
D48*
X121381900Y-53301900D03*
X122401900Y-53301900D03*
D49*
X53311900Y-50179700D03*
X53311900Y-49159700D03*
D48*
X50820700Y-49898300D03*
X51840700Y-49898300D03*
D49*
X54683500Y-51716400D03*
X54683500Y-50696400D03*
D50*
X59542270Y-49870067D03*
X59542270Y-48420067D03*
X55942270Y-48420067D03*
X55942270Y-49870067D03*
D51*
X121668800Y-49659500D03*
X121668800Y-50609500D03*
X121668800Y-51559500D03*
X123943800Y-51559500D03*
X123943800Y-49659500D03*
D52*
X109939400Y-63869800D03*
X108669400Y-63869800D03*
X107399400Y-63869800D03*
X106129400Y-63869800D03*
X106129400Y-68819800D03*
X107399400Y-68819800D03*
X108669400Y-68819800D03*
X109939400Y-68819800D03*
D53*
X108477400Y-85521800D03*
X108477400Y-84251800D03*
X108477400Y-82981800D03*
X108477400Y-81711800D03*
X103527400Y-81711800D03*
X103527400Y-82981800D03*
X103527400Y-84251800D03*
X103527400Y-85521800D03*
D54*
X123723400Y-52880800D03*
X123723400Y-53900800D03*
D16*
X92886400Y-86548800D03*
X92886400Y-84898800D03*
D21*
X100830400Y-84849800D03*
X99180400Y-84849800D03*
D25*
X122214900Y-114860300D03*
X122214900Y-112960300D03*
X120055900Y-114860300D03*
X120055900Y-112960300D03*
X117896900Y-114860300D03*
X117896900Y-112960300D03*
D14*
X121706900Y-121723300D03*
X121706900Y-123623300D03*
X119547900Y-121723300D03*
X119547900Y-123623300D03*
X117388900Y-121723300D03*
X117388900Y-123623300D03*
D17*
X118404900Y-119765300D03*
X118404900Y-118215300D03*
D39*
X59636800Y-96100200D03*
X59636800Y-97650200D03*
X59637676Y-90036000D03*
X59637676Y-91586000D03*
D55*
X127929900Y-115403300D03*
X127929900Y-121053300D03*
D56*
X112522300Y-118421100D03*
X110622300Y-118421100D03*
X111572300Y-120296100D03*
D16*
X115306100Y-121466300D03*
X115306100Y-119816300D03*
D19*
X115306100Y-116514300D03*
X115306100Y-118164300D03*
D21*
X112397300Y-116509800D03*
X110747300Y-116509800D03*
D16*
X116830100Y-119815300D03*
X116830100Y-118165300D03*
D21*
X112397300Y-122097800D03*
X110747300Y-122097800D03*
D16*
X63082400Y-97967800D03*
X63082400Y-96317800D03*
X66192400Y-97967800D03*
X66192400Y-96317800D03*
X64606400Y-97967800D03*
X64606400Y-96317800D03*
D20*
X61811400Y-81330800D03*
X63461400Y-81330800D03*
X61860400Y-84490800D03*
X63510400Y-84490800D03*
X61811400Y-82854800D03*
X63461400Y-82854800D03*
X61860400Y-86014800D03*
X63510400Y-86014800D03*
D16*
X61493400Y-97967800D03*
X61493400Y-96317800D03*
D57*
X57834800Y-94232200D03*
X57334800Y-94232200D03*
X56834800Y-94232200D03*
X56334800Y-94232200D03*
X55834800Y-94232200D03*
D58*
X55574800Y-94992200D03*
X55574800Y-95492200D03*
X55574800Y-95992200D03*
D57*
X55834800Y-96752200D03*
X56334800Y-96752200D03*
X56834800Y-96752200D03*
X57334800Y-96752200D03*
X57834800Y-96752200D03*
D58*
X58094800Y-95992200D03*
X58094800Y-95492200D03*
X58094800Y-94992200D03*
D59*
X53339800Y-94066200D03*
X52839800Y-94066200D03*
X52339800Y-94066200D03*
X51839800Y-94066200D03*
D60*
X51314800Y-94591200D03*
X51314800Y-95091200D03*
X51314800Y-95591200D03*
X51314800Y-96091200D03*
D59*
X51839800Y-96616200D03*
X52339800Y-96616200D03*
X52839800Y-96616200D03*
X53339800Y-96616200D03*
D60*
X53864800Y-96091200D03*
X53864800Y-95591200D03*
X53864800Y-95091200D03*
X53864800Y-94591200D03*
D61*
X48106000Y-95697300D03*
X48606000Y-95697300D03*
X49106000Y-95697300D03*
X49606000Y-95697300D03*
D62*
X49618500Y-95184800D03*
X49618500Y-94684800D03*
D61*
X49606000Y-94172300D03*
X49106000Y-94172300D03*
X48606000Y-94172300D03*
X48106000Y-94172300D03*
D62*
X48093500Y-94684800D03*
X48093500Y-95184800D03*
D57*
X57859602Y-88286989D03*
X57359602Y-88286989D03*
X56859602Y-88286989D03*
X56359602Y-88286989D03*
X55859602Y-88286989D03*
D58*
X55599602Y-89046989D03*
X55599602Y-89546989D03*
X55599602Y-90046989D03*
D57*
X55859602Y-90806989D03*
X56359602Y-90806989D03*
X56859602Y-90806989D03*
X57359602Y-90806989D03*
X57859602Y-90806989D03*
D58*
X58119602Y-90046989D03*
X58119602Y-89546989D03*
X58119602Y-89046989D03*
D59*
X53239811Y-88452202D03*
X52739811Y-88452202D03*
X52239811Y-88452202D03*
X51739811Y-88452202D03*
D60*
X51214811Y-88977202D03*
X51214811Y-89477202D03*
X51214811Y-89977202D03*
X51214811Y-90477202D03*
D59*
X51739811Y-91002202D03*
X52239811Y-91002202D03*
X52739811Y-91002202D03*
X53239811Y-91002202D03*
D60*
X53764811Y-90477202D03*
X53764811Y-89977202D03*
X53764811Y-89477202D03*
X53764811Y-88977202D03*
D61*
X48044797Y-90210810D03*
X48544797Y-90210810D03*
X49044797Y-90210810D03*
X49544797Y-90210810D03*
D62*
X49557297Y-89698310D03*
X49557297Y-89198310D03*
D61*
X49544797Y-88685810D03*
X49044797Y-88685810D03*
X48544797Y-88685810D03*
X48044797Y-88685810D03*
D62*
X48032297Y-89198310D03*
X48032297Y-89698310D03*
D63*
X61560400Y-93830300D03*
X62210400Y-93830300D03*
X62860400Y-93830300D03*
X63510400Y-93830300D03*
X64160400Y-93830300D03*
X64810400Y-93830300D03*
X65460400Y-93830300D03*
X65460400Y-88105300D03*
X64810400Y-88105300D03*
X64160400Y-88105300D03*
X63510400Y-88105300D03*
X62860400Y-88105300D03*
X62210400Y-88105300D03*
X61560400Y-88105300D03*
D64*
X120048900Y-117478300D03*
X120048900Y-117978300D03*
X120048900Y-118478300D03*
X120048900Y-118978300D03*
D65*
X120473900Y-119628300D03*
X120973900Y-119628300D03*
X120973900Y-116828300D03*
X120473900Y-116828300D03*
D25*
X121951900Y-128699300D03*
X121951900Y-126799300D03*
X119792900Y-128699300D03*
X119792900Y-126799300D03*
X117633900Y-128699300D03*
X117633900Y-126799300D03*
D14*
X117125900Y-135689300D03*
X117125900Y-137589300D03*
X119284900Y-135689300D03*
X119284900Y-137589300D03*
X121443900Y-135689300D03*
X121443900Y-137589300D03*
D17*
X118014900Y-133604300D03*
X118014900Y-132054300D03*
D55*
X127793900Y-129242300D03*
X127793900Y-134892300D03*
D56*
X111979900Y-132018800D03*
X110079900Y-132018800D03*
X111029900Y-133893800D03*
D16*
X114966900Y-135305300D03*
X114966900Y-133655300D03*
D19*
X114966900Y-130290300D03*
X114966900Y-131940300D03*
D21*
X111979900Y-130126300D03*
X110329900Y-130126300D03*
D16*
X116490900Y-133654300D03*
X116490900Y-132004300D03*
D21*
X111854900Y-135750300D03*
X110204900Y-135750300D03*
D33*
X128280900Y-78790800D03*
X131230900Y-78790800D03*
X128280900Y-82092800D03*
X131230900Y-82092800D03*
D17*
X118389400Y-83502800D03*
X118389400Y-81952800D03*
D66*
X116520400Y-71997300D03*
X113570400Y-71997300D03*
D33*
X128280900Y-85380800D03*
X131230900Y-85380800D03*
X128180900Y-75582800D03*
X131130900Y-75582800D03*
D66*
X116562400Y-75361800D03*
X113612400Y-75361800D03*
D67*
X118389400Y-80221800D03*
X118389400Y-78121800D03*
D64*
X119785900Y-131317300D03*
X119785900Y-131817300D03*
X119785900Y-132317300D03*
X119785900Y-132817300D03*
D65*
X120210900Y-133467300D03*
X120710900Y-133467300D03*
X120710900Y-130667300D03*
X120210900Y-130667300D03*
D68*
X121183400Y-71740300D03*
X121183400Y-74665300D03*
D16*
X131165600Y-71640200D03*
X131165600Y-69990200D03*
D21*
X116547400Y-80060800D03*
X114897400Y-80060800D03*
D16*
X131165600Y-68490600D03*
X131165600Y-66840600D03*
X116632400Y-85567800D03*
X116632400Y-83917800D03*
D20*
X114897400Y-81711800D03*
X116547400Y-81711800D03*
D69*
X123561900Y-79321793D03*
X123561900Y-80741793D03*
X122741900Y-80741793D03*
X122741900Y-79321793D03*
D70*
X125301900Y-81656793D03*
X125301900Y-81006793D03*
X125301900Y-80356793D03*
X125301900Y-79706793D03*
X125301900Y-79056793D03*
X125301900Y-78406793D03*
X121001900Y-78406793D03*
X121001900Y-79056793D03*
X121001900Y-79706793D03*
X121001900Y-80356793D03*
X121001900Y-81006793D03*
X121001900Y-81656793D03*
D71*
X128231900Y-71731800D03*
D72*
X128231900Y-68511800D03*
D73*
X121818400Y-84759800D03*
D74*
X125038400Y-84759800D03*
D75*
X88086465Y-113978146D03*
X88440018Y-113624593D03*
X88793572Y-113271040D03*
X89147125Y-112917486D03*
X89500679Y-112563933D03*
X89854232Y-112210379D03*
X90207785Y-111856826D03*
X90561339Y-111503273D03*
X90914892Y-111149719D03*
X91268446Y-110796166D03*
X91621999Y-110442612D03*
X91975552Y-110089059D03*
X92329106Y-109735506D03*
X92682659Y-109381952D03*
X93036212Y-109028399D03*
X93389766Y-108674846D03*
X93743319Y-108321292D03*
X94096873Y-107967739D03*
X94450426Y-107614185D03*
X94803979Y-107260632D03*
X95157533Y-106907079D03*
X95511086Y-106553525D03*
X95864640Y-106199972D03*
X96218193Y-105846418D03*
X96571746Y-105492865D03*
D76*
X96571746Y-103141735D03*
X96218193Y-102788182D03*
X95864640Y-102434628D03*
X95511086Y-102081075D03*
X95157533Y-101727521D03*
X94803979Y-101373968D03*
X94450426Y-101020415D03*
X94096873Y-100666861D03*
X93743319Y-100313308D03*
X93389766Y-99959754D03*
X93036212Y-99606201D03*
X92682659Y-99252648D03*
X92329106Y-98899094D03*
X91975552Y-98545541D03*
X91621999Y-98191988D03*
X91268446Y-97838434D03*
X90914892Y-97484881D03*
X90561339Y-97131327D03*
X90207785Y-96777774D03*
X89854232Y-96424221D03*
X89500679Y-96070667D03*
X89147125Y-95717114D03*
X88793572Y-95363560D03*
X88440018Y-95010007D03*
X88086465Y-94656454D03*
D75*
X85735335Y-94656454D03*
X85381782Y-95010007D03*
X85028228Y-95363560D03*
X84674675Y-95717114D03*
X84321121Y-96070667D03*
X83967568Y-96424221D03*
X83614015Y-96777774D03*
X83260461Y-97131327D03*
X82906908Y-97484881D03*
X82553354Y-97838434D03*
X82199801Y-98191988D03*
X81846248Y-98545541D03*
X81492694Y-98899094D03*
X81139141Y-99252648D03*
X80785588Y-99606201D03*
X80432034Y-99959754D03*
X80078481Y-100313308D03*
X79724927Y-100666861D03*
X79371374Y-101020415D03*
X79017821Y-101373968D03*
X78664267Y-101727521D03*
X78310714Y-102081075D03*
X77957160Y-102434628D03*
X77603607Y-102788182D03*
X77250054Y-103141735D03*
D76*
X77250054Y-105492865D03*
X77603607Y-105846418D03*
X77957160Y-106199972D03*
X78310714Y-106553525D03*
X78664267Y-106907079D03*
X79017821Y-107260632D03*
X79371374Y-107614185D03*
X79724927Y-107967739D03*
X80078481Y-108321292D03*
X80432034Y-108674846D03*
X80785588Y-109028399D03*
X81139141Y-109381952D03*
X81492694Y-109735506D03*
X81846248Y-110089059D03*
X82199801Y-110442612D03*
X82553354Y-110796166D03*
X82906908Y-111149719D03*
X83260461Y-111503273D03*
X83614015Y-111856826D03*
X83967568Y-112210379D03*
X84321121Y-112563933D03*
X84674675Y-112917486D03*
X85028228Y-113271040D03*
X85381782Y-113624593D03*
X85735335Y-113978146D03*
D16*
X90342400Y-66121800D03*
X90342400Y-64471800D03*
X78552400Y-65577300D03*
X78552400Y-63927300D03*
X77028400Y-65577300D03*
X77028400Y-63927300D03*
X76266400Y-77515300D03*
X76266400Y-75865300D03*
D77*
X96829900Y-81446800D03*
X96829900Y-79546800D03*
X94954900Y-80496800D03*
D16*
X90748400Y-139425800D03*
X90748400Y-137775800D03*
X83718400Y-77710800D03*
X83718400Y-76060800D03*
D19*
X103742400Y-134471800D03*
X103742400Y-136121800D03*
D16*
X73980400Y-65577300D03*
X73980400Y-63927300D03*
D21*
X92467400Y-83146800D03*
X90817400Y-83146800D03*
D78*
X90276400Y-69830300D03*
X92176400Y-69830300D03*
X91226400Y-67955300D03*
D16*
X87748400Y-139425800D03*
X87748400Y-137775800D03*
D20*
X116637400Y-87482800D03*
X118287400Y-87482800D03*
D78*
X90292400Y-75434300D03*
X92192400Y-75434300D03*
X91242400Y-73559300D03*
D16*
X86258400Y-65582800D03*
X86258400Y-63932800D03*
X75504400Y-65577300D03*
X75504400Y-63927300D03*
D19*
X84748400Y-133525800D03*
X84748400Y-135175800D03*
D16*
X79314400Y-77515300D03*
X79314400Y-75865300D03*
D63*
X81809400Y-73652300D03*
X82459400Y-73652300D03*
X83109400Y-73652300D03*
X83759400Y-73652300D03*
X84409400Y-73652300D03*
X85059400Y-73652300D03*
X85709400Y-73652300D03*
X86359400Y-73652300D03*
X87009400Y-73652300D03*
X87659400Y-73652300D03*
X87659400Y-67927300D03*
X87009400Y-67927300D03*
X86359400Y-67927300D03*
X85709400Y-67927300D03*
X85059400Y-67927300D03*
X84409400Y-67927300D03*
X83759400Y-67927300D03*
X83109400Y-67927300D03*
X82459400Y-67927300D03*
X81809400Y-67927300D03*
D21*
X96037400Y-58216800D03*
X94387400Y-58216800D03*
D19*
X89248400Y-137775800D03*
X89248400Y-139425800D03*
D21*
X126897400Y-125960800D03*
X125247400Y-125960800D03*
D19*
X100692400Y-79621800D03*
X100692400Y-81271800D03*
D20*
X119797400Y-87532800D03*
X121447400Y-87532800D03*
D16*
X114896400Y-85541800D03*
X114896400Y-83891800D03*
X74742400Y-77515300D03*
X74742400Y-75865300D03*
D21*
X130097400Y-125950800D03*
X128447400Y-125950800D03*
D20*
X99217400Y-83256800D03*
X100867400Y-83256800D03*
D16*
X80076400Y-65577300D03*
X80076400Y-63927300D03*
X83248400Y-139425800D03*
X83248400Y-137775800D03*
D19*
X97742400Y-134471800D03*
X97742400Y-136121800D03*
X101742400Y-134471800D03*
X101742400Y-136121800D03*
X84748400Y-137775800D03*
X84748400Y-139425800D03*
D31*
X96435900Y-68376800D03*
X102360900Y-68376800D03*
D16*
X82194400Y-77710800D03*
X82194400Y-76060800D03*
D21*
X116547400Y-78536800D03*
X114897400Y-78536800D03*
D19*
X99192400Y-79671800D03*
X99192400Y-81321800D03*
D77*
X92579900Y-81446800D03*
X92579900Y-79546800D03*
X90704900Y-80496800D03*
D17*
X81686400Y-65532800D03*
X81686400Y-63982800D03*
D20*
X90417400Y-71696800D03*
X92067400Y-71696800D03*
D16*
X92242400Y-66121800D03*
X92242400Y-64471800D03*
D20*
X99814400Y-115882800D03*
X101464400Y-115882800D03*
D19*
X70826400Y-99538800D03*
X70826400Y-101188800D03*
D16*
X83248400Y-135175800D03*
X83248400Y-133525800D03*
D21*
X130117400Y-111800800D03*
X128467400Y-111800800D03*
D16*
X90748400Y-135175800D03*
X90748400Y-133525800D03*
X77790400Y-77515300D03*
X77790400Y-75865300D03*
D63*
X73468400Y-73583800D03*
X74118400Y-73583800D03*
X74768400Y-73583800D03*
X75418400Y-73583800D03*
X76068400Y-73583800D03*
X76718400Y-73583800D03*
X77368400Y-73583800D03*
X78018400Y-73583800D03*
X78668400Y-73583800D03*
X79318400Y-73583800D03*
X79318400Y-67858800D03*
X78668400Y-67858800D03*
X78018400Y-67858800D03*
X77368400Y-67858800D03*
X76718400Y-67858800D03*
X76068400Y-67858800D03*
X75418400Y-67858800D03*
X74768400Y-67858800D03*
X74118400Y-67858800D03*
X73468400Y-67858800D03*
D16*
X73218400Y-77515300D03*
X73218400Y-75865300D03*
X86248400Y-135175800D03*
X86248400Y-133525800D03*
D20*
X91085400Y-58343800D03*
X92735400Y-58343800D03*
D16*
X85242400Y-77710800D03*
X85242400Y-76060800D03*
D77*
X96972900Y-86747800D03*
X96972900Y-84847800D03*
X95097900Y-85797800D03*
D19*
X103086400Y-111468800D03*
X103086400Y-113118800D03*
D16*
X87748400Y-135175800D03*
X87748400Y-133525800D03*
D21*
X126917400Y-111782800D03*
X125267400Y-111782800D03*
D16*
X86766400Y-77710800D03*
X86766400Y-76060800D03*
X83210400Y-65582800D03*
X83210400Y-63932800D03*
D21*
X97217400Y-83146800D03*
X95567400Y-83146800D03*
D19*
X99742400Y-134471800D03*
X99742400Y-136121800D03*
D16*
X86248400Y-139425800D03*
X86248400Y-137775800D03*
X87782400Y-65582800D03*
X87782400Y-63932800D03*
D19*
X89248400Y-133525800D03*
X89248400Y-135175800D03*
D79*
X91384900Y-60068769D03*
X91384900Y-60718769D03*
X91384900Y-61368769D03*
X91384900Y-62018769D03*
X95609900Y-62018769D03*
X95609900Y-61368769D03*
X95609900Y-60718769D03*
X95609900Y-60068769D03*
D80*
X103765400Y-138931800D03*
X102765400Y-138931800D03*
X101765400Y-138931800D03*
X100765400Y-138931800D03*
X99765400Y-138931800D03*
X98765400Y-138931800D03*
X97765400Y-138931800D03*
D81*
X96760400Y-138931800D03*
D82*
X105065400Y-142048800D03*
X95465400Y-142048800D03*
D16*
X84734400Y-65582800D03*
X84734400Y-63932800D03*
D83*
X103751400Y-122721300D03*
X103101400Y-122721300D03*
X102451400Y-122721300D03*
X101801400Y-122721300D03*
X101151400Y-122721300D03*
X100501400Y-122721300D03*
X99851400Y-122721300D03*
X99201400Y-122721300D03*
X98551400Y-122721300D03*
X97901400Y-122721300D03*
X97251400Y-122721300D03*
X96601400Y-122721300D03*
X96601400Y-128446300D03*
X97251400Y-128446300D03*
X97901400Y-128446300D03*
X98551400Y-128446300D03*
X99201400Y-128446300D03*
X99851400Y-128446300D03*
X100501400Y-128446300D03*
X101151400Y-128446300D03*
X101801400Y-128446300D03*
X102451400Y-128446300D03*
X103101400Y-128446300D03*
X103751400Y-128446300D03*
D17*
X97561400Y-60040769D03*
X97561400Y-58490769D03*
D21*
X92067400Y-77234800D03*
X90417400Y-77234800D03*
D84*
X99658400Y-113747300D03*
X100608400Y-113747300D03*
X101558400Y-113747300D03*
X101558400Y-111472300D03*
X99658400Y-111472300D03*
D34*
X102713100Y-65693801D03*
X102713100Y-65193799D03*
X102713100Y-64693800D03*
X102713100Y-64193801D03*
X102713100Y-63693799D03*
X98623700Y-63693799D03*
X98623700Y-64193801D03*
X98623700Y-64693800D03*
X98623700Y-65193799D03*
X98623700Y-65693801D03*
D17*
X72456400Y-65527300D03*
X72456400Y-63977300D03*
D16*
X97948400Y-113784800D03*
X97948400Y-112134800D03*
M02*
