M48
INCH,TZ
T1C0.0100
T2C0.0100
T3C0.0150
T4C0.0157
T5C0.0394
T6C0.0510
T7C0.0591
T8C0.0669
T9C0.1250
%
G90
G05
T1
X17879Y-21698
X17910Y-24470
X18580Y-35420
X18700Y-37500
X19110Y-21670
X19112Y-34744
X19116Y-35720
X19136Y-36904
X19140Y-37880
X19506Y-34740
X19510Y-24070
X19530Y-36900
X20010Y-20004
X20560Y-35340
X20567Y-36019
X20580Y-37540
X20585Y-19295
X20610Y-38234
X20710Y-20395
X20960Y-34400
X21000Y-36680
X21240Y-35780
X21255Y-19686
X21280Y-34460
X21285Y-19970
X21297Y-37998
X21320Y-36740
X21790Y-35751
X21792Y-38090
X22140Y-37600
X22160Y-35260
X22220Y-34340
X22354Y-19745
X22380Y-36740
X22520Y-36440
X22540Y-34120
X22582Y-47893
X22640Y-35260
X22650Y-20455
X22660Y-37600
X22769Y-38303
X22950Y-34712
X22950Y-37002
X23071Y-35055
X23080Y-37400
X23480Y-36340
X23480Y-38720
X23534Y-20321
X23680Y-35040
X23694Y-37385
X23760Y-20620
X24486Y-35140
X24571Y-53443
X24610Y-22220
X24748Y-34270
X24910Y-22420
X25060Y-21592
X25060Y-21920
X25262Y-33522
X25306Y-37540
X25526Y-33780
X25526Y-37360
X25610Y-31745
X25638Y-32405
X25692Y-29929
X26320Y-54980
X26328Y-34871
X26385Y-31745
X26670Y-21270
X26700Y-39800
X26710Y-28970
X26810Y-23720
X27010Y-21370
X27110Y-23820
X27560Y-23870
X27610Y-24420
X27620Y-21425
X27620Y-21795
X27699Y-30885
X27699Y-32585
X27810Y-25470
X27810Y-30020
X27860Y-25170
X27880Y-40070
X27888Y-28970
X27889Y-32055
X27900Y-36160
X27928Y-22544
X27935Y-22170
X28019Y-35775
X28060Y-24630
X28069Y-33155
X28069Y-35495
X28100Y-36380
X28110Y-25470
X28189Y-25170
X28255Y-21425
X28255Y-21795
X28300Y-36620
X28310Y-24780
X28320Y-38920
X28510Y-35820
X28560Y-38740
X28575Y-22170
X28600Y-22546
X28610Y-24913
X28885Y-21475
X28885Y-21845
X29110Y-24170
X29110Y-24920
X29110Y-27470
X29200Y-49880
X29378Y-39606
X29500Y-39080
X29510Y-21430
X29689Y-30520
X29710Y-24920
X29710Y-30170
X29710Y-31020
X29826Y-33686
X29870Y-33352
X30100Y-39360
X30117Y-41820
X30128Y-40352
X30140Y-39660
X30180Y-40100
X30210Y-35770
X30220Y-35420
X30260Y-42220
X30310Y-36120
X30359Y-28546
X30500Y-24870
X30610Y-23420
X30620Y-43480
X30622Y-25378
X30636Y-30780
X30650Y-42890
X30660Y-28561
X30775Y-21425
X30900Y-43040
X30907Y-42753
X30960Y-27820
X30960Y-28557
X30960Y-40600
X31010Y-37030
X31091Y-38549
X31145Y-37290
X31280Y-41520
X31360Y-38680
X31400Y-41950
X31405Y-21425
X31405Y-21795
X31500Y-40380
X31540Y-40090
X31542Y-47095
X31681Y-23220
X31801Y-24611
X31860Y-25420
X31870Y-40230
X31910Y-31820
X31917Y-42270
X32035Y-21425
X32035Y-21795
X32037Y-32070
X32110Y-30310
X32160Y-24920
X32210Y-24670
X32211Y-28589
X32248Y-37839
X32261Y-39369
X32360Y-30870
X32360Y-31320
X32360Y-31620
X32410Y-24470
X32475Y-24220
X32480Y-42310
X32521Y-37815
X32587Y-27395
X32600Y-39040
X32610Y-24920
X32610Y-43030
X32665Y-21425
X32665Y-21795
X32700Y-37280
X32700Y-44570
X32777Y-53471
X32778Y-55150
X32850Y-44800
X32920Y-37500
X32960Y-45050
X32985Y-21795
X33034Y-35390
X33035Y-22095
X33067Y-52568
X33073Y-54244
X33100Y-36980
X33110Y-35690
X33120Y-43640
X33230Y-45240
X33280Y-47860
X33295Y-21425
X33310Y-24020
X33350Y-43820
X33370Y-31621
X33380Y-38280
X33410Y-27870
X33440Y-24920
X33450Y-45380
X33560Y-30870
X33615Y-21795
X33615Y-22165
X33621Y-44118
X33661Y-53219
X33688Y-54892
X33764Y-35316
X33796Y-38131
X33910Y-23970
X33913Y-37704
X33957Y-52320
X33960Y-24920
X33960Y-53970
X34010Y-27820
X34020Y-37980
X34110Y-23470
X34160Y-31720
X34260Y-24820
X34310Y-27820
X34360Y-31920
X34510Y-29420
X34516Y-24525
X34543Y-55146
X34549Y-53471
X34560Y-24920
X34570Y-33820
X34590Y-27802
X34609Y-43061
X34640Y-48180
X34662Y-37991
X34810Y-33600
X34838Y-54242
X34840Y-52570
X34860Y-43140
X34884Y-50794
X34960Y-43400
X34964Y-37000
X35010Y-34420
X35124Y-24570
X35180Y-43570
X35210Y-24270
X35347Y-37256
X35438Y-54892
X35459Y-53219
X35568Y-37440
X35580Y-33150
X35610Y-26720
X35610Y-30770
X35660Y-33420
X35729Y-52310
X35731Y-53975
X35766Y-43186
X35769Y-24929
X35770Y-32350
X35770Y-38940
X35797Y-51192
X35810Y-23420
X35980Y-44260
X36038Y-37568
X36060Y-23270
X36080Y-39211
X36205Y-43980
X36210Y-22920
X36243Y-37383
X36260Y-25620
X36260Y-38220
X36280Y-37910
X36320Y-42620
X36410Y-24420
X36445Y-21425
X36460Y-27930
X36540Y-25700
X36650Y-37710
X36660Y-25100
X36900Y-25660
X36910Y-26370
X36964Y-24938
X36964Y-49889
X36971Y-49335
X36980Y-38920
X37010Y-22470
X37040Y-40180
X37056Y-41956
X37200Y-41660
X37240Y-39040
X37370Y-32740
X37410Y-43270
X37500Y-37680
X37560Y-50120
X37576Y-41377
X37644Y-39304
X37674Y-30137
X37780Y-37260
X37860Y-47720
X37910Y-42320
X37930Y-39871
X37940Y-39080
X37980Y-51460
X37990Y-48700
X38088Y-42125
X38095Y-53990
X38100Y-50060
X38101Y-33779
X38160Y-36940
X38210Y-23370
X38280Y-48700
X38300Y-49800
X38320Y-21775
X38335Y-21425
X38360Y-25470
X38360Y-47120
X38440Y-40400
X38480Y-39800
X38480Y-40100
X38490Y-53990
X38510Y-36570
X38600Y-48670
X38663Y-42180
X38780Y-51140
X38884Y-53990
X38970Y-40320
X38980Y-39180
X39025Y-38150
X39038Y-45621
X39058Y-51273
X39060Y-30240
X39060Y-31770
X39100Y-32380
X39170Y-47390
X39240Y-43532
X39249Y-30530
X39259Y-47641
X39278Y-54002
X39315Y-51000
X39347Y-25018
X39347Y-25314
X39499Y-33091
X39560Y-51270
X39595Y-21425
X39595Y-21795
X39610Y-45170
X39671Y-53990
X39744Y-47767
X39780Y-38560
X39820Y-48940
X39823Y-51007
X39860Y-27070
X39889Y-42169
X39900Y-39380
X39910Y-25270
X40010Y-25020
X40060Y-51220
X40065Y-54015
X40140Y-38200
X40220Y-21900
X40310Y-49000
X40310Y-49750
X40335Y-51011
X40459Y-53990
X40560Y-46288
X40569Y-46879
X40571Y-47459
X40591Y-51220
X40628Y-24820
X40640Y-49000
X40811Y-39139
X40847Y-47933
X40850Y-50960
X40853Y-54027
X40855Y-21425
X40860Y-23370
X41070Y-48910
X41100Y-44920
X41110Y-25370
X41219Y-38640
X41220Y-49170
X41277Y-41325
X41340Y-48920
X41420Y-38440
X41460Y-24120
X41720Y-44600
X41820Y-46840
X41850Y-46290
X41980Y-41840
X42042Y-41333
X42110Y-21720
X42140Y-40510
X42140Y-43340
X42179Y-49160
X42200Y-43760
X42200Y-49920
X42220Y-44140
X42240Y-45620
X42330Y-21480
X42340Y-48880
X42764Y-41330
X42860Y-43150
X42960Y-44100
X43083Y-26370
X43163Y-53445
X43180Y-51232
X43195Y-32174
X43288Y-42130
X43310Y-46220
X43356Y-45870
X43500Y-39130
X43520Y-41524
X43552Y-46943
X43760Y-21570
X43860Y-43950
X44060Y-21570
X44300Y-43340
X44380Y-43620
X44551Y-48070
X44611Y-41940
X44660Y-21820
X44690Y-22100
X44870Y-42600
X45510Y-32720
X45860Y-52220
X45912Y-32785
X46000Y-46780
X46463Y-52870
X46616Y-47422
X46631Y-24870
X46660Y-24520
X46868Y-34462
X46910Y-23970
X46957Y-23251
X47050Y-20050
X47147Y-35519
X47160Y-23020
X47260Y-24520
X47524Y-51195
X47628Y-45732
X48065Y-34461
X48110Y-21770
X48148Y-35484
X48325Y-22005
X48354Y-20185
X48732Y-37633
X49010Y-37070
X49561Y-39169
X49597Y-36170
X49700Y-31380
X49712Y-31890
X49760Y-31637
X49910Y-38670
X50210Y-39670
X50269Y-49591
X50276Y-41986
X50284Y-44016
X51026Y-36840
X51469Y-49589
X51484Y-44018
X51640Y-27260
T2
X48288Y-31115
X48288Y-31509
X48288Y-31902
X48682Y-31115
X48682Y-31509
X48682Y-31902
T3
X20064Y-24988
X21320Y-41460
X21320Y-41880
X21320Y-42320
X21320Y-42740
X21320Y-43620
X21510Y-24670
X22383Y-42881
X22720Y-39820
X22800Y-40800
X23220Y-40480
X23239Y-23503
X23435Y-21070
X23960Y-41837
X24004Y-34720
X24324Y-24468
X24366Y-36520
X24482Y-57454
X24748Y-55608
X24792Y-41748
X25143Y-39183
X25580Y-40480
X25610Y-22320
X25660Y-21170
X25760Y-38880
X25776Y-36500
X26052Y-21252
X26440Y-40480
X27130Y-40494
X27402Y-49938
X27420Y-50371
X28298Y-53638
X28798Y-53638
X29298Y-53638
X30886Y-41339
X31360Y-43740
X31721Y-37475
X31780Y-38628
X32930Y-43440
X32945Y-42275
X33252Y-46875
X33520Y-36993
X33600Y-50300
X33650Y-42270
X34235Y-21295
X34503Y-21294
X34871Y-21319
X35105Y-46583
X36522Y-45167
X36533Y-38476
X36610Y-43660
X36760Y-21199
X37076Y-21204
X37180Y-40440
X37183Y-28220
X37183Y-28720
X37183Y-29220
X37230Y-29580
X37391Y-21199
X37706Y-21199
X37706Y-21470
X38354Y-41858
X38383Y-28220
X38383Y-28720
X38383Y-29220
X38457Y-24319
X38679Y-23302
X38690Y-30316
X39460Y-23320
X39460Y-24320
X41333Y-30070
X41333Y-30570
X41333Y-31070
X41333Y-31570
X41333Y-32170
X41333Y-32670
X41333Y-33170
X41333Y-33670
X41800Y-21420
X41800Y-21720
X41960Y-24720
X42430Y-21210
X43060Y-21220
X43069Y-51951
X43233Y-32670
X43233Y-33170
X43233Y-33670
X43260Y-22870
X43331Y-23760
X43336Y-48070
X43375Y-21520
X43660Y-24320
X43660Y-25470
X43661Y-24870
X43690Y-21220
X43960Y-25920
X43986Y-23755
X44037Y-52820
X44085Y-22871
X44260Y-24320
X44260Y-24870
X44260Y-25470
X44320Y-21230
X44635Y-21230
X44711Y-23680
X44791Y-25390
X45110Y-27970
X45110Y-28320
X45110Y-28720
X45110Y-29270
X45110Y-29670
X45110Y-30070
X45310Y-25484
X45749Y-25560
X45861Y-22580
X45938Y-54470
X45963Y-53120
X46060Y-48970
X46066Y-47622
X46138Y-49620
X46138Y-50970
X46140Y-32160
X46241Y-44172
X46241Y-45522
X46288Y-53120
X46288Y-54470
X46391Y-47622
X46410Y-48970
X46488Y-49620
X46488Y-50970
X46510Y-28270
X46510Y-28720
X46510Y-29320
X46510Y-29670
X46510Y-30070
X46591Y-44172
X46591Y-45522
X46610Y-40370
X46610Y-41220
X46610Y-41970
X46660Y-39620
X46735Y-21095
X46788Y-54470
X46813Y-53120
X46910Y-48970
X46916Y-47622
X46960Y-33170
X46960Y-33570
X46988Y-49620
X47010Y-40020
X47010Y-40720
X47010Y-41620
X47010Y-42370
X47013Y-50970
X47091Y-44172
X47113Y-53120
X47116Y-45522
X47138Y-54470
X47200Y-21385
X47216Y-47622
X47251Y-31125
X47260Y-32470
X47260Y-48970
X47338Y-49620
X47338Y-50970
X47441Y-44172
X47446Y-45532
X47460Y-30070
X47463Y-51745
X47463Y-52245
X47566Y-46297
X47566Y-46797
X47638Y-54470
X47663Y-53120
X47760Y-48970
X47766Y-47622
X47838Y-49620
X47840Y-50980
X47860Y-32470
X47875Y-56820
X47940Y-45520
X47941Y-44172
X47988Y-53120
X47988Y-54470
X48071Y-47632
X48110Y-48970
X48188Y-49620
X48188Y-50970
X48260Y-30070
X48288Y-52820
X48288Y-53170
X48288Y-53520
X48291Y-44172
X48291Y-45522
X48391Y-47322
X48391Y-47672
X48391Y-48022
X48588Y-52820
X48588Y-53170
X48588Y-53520
X48691Y-47322
X48691Y-47672
X48691Y-48022
X48810Y-21420
X49060Y-30070
X49310Y-27070
X49310Y-27420
X49310Y-27770
X49710Y-33220
X49710Y-33570
X50285Y-20295
X50285Y-26241
X50285Y-26566
X50710Y-26241
X50710Y-26566
X51034Y-21644
X51424Y-21646
X51810Y-24594
X51814Y-21646
X52010Y-30620
X52010Y-31020
X52010Y-31420
X52010Y-31920
X52010Y-32320
X52010Y-32720
T4
X21110Y-46970
X21112Y-46234
X21160Y-53326
X21162Y-52590
X21531Y-53699
X21531Y-54179
X21531Y-54659
X21531Y-55139
X21560Y-46970
X21562Y-46234
X21660Y-53326
X21662Y-52110
X21662Y-52590
X21759Y-56099
X21759Y-56579
X21760Y-55620
X22009Y-54179
X22010Y-53700
X22010Y-54660
X22010Y-55140
X22042Y-56748
X22161Y-52589
X22162Y-52110
X22510Y-52970
X22542Y-56748
X22662Y-52110
X22662Y-52590
X22859Y-55269
X22860Y-53350
X22860Y-53830
X22860Y-54310
X22860Y-54790
X22989Y-52971
X23042Y-56748
X23339Y-53351
X23339Y-53831
X23339Y-54311
X23339Y-54791
X23339Y-55271
X23492Y-56748
X23942Y-56748
X24342Y-56748
X45361Y-24020
T5
X30942Y-46370
X30942Y-47370
X30942Y-48370
X30942Y-49370
X30942Y-50370
T6
X19169Y-25903
X19169Y-29903
X19169Y-32903
X22169Y-25903
X22169Y-32903
T7
X19549Y-52945
X19552Y-46592
T8
X18549Y-51945
X18549Y-53945
X18552Y-45592
X18552Y-47592
X20549Y-51945
X20549Y-53945
X20552Y-45592
X20552Y-47592
T9
X19279Y-56335
X20775Y-22583
X49775Y-22583
X50775Y-56335
T0
M30
