G04 #@! TF.GenerationSoftware,KiCad,Pcbnew,(6.0.5)*
G04 #@! TF.CreationDate,2022-06-21T16:45:58-04:00*
G04 #@! TF.ProjectId,mainboard,6d61696e-626f-4617-9264-2e6b69636164,rev?*
G04 #@! TF.SameCoordinates,Original*
G04 #@! TF.FileFunction,Paste,Bot*
G04 #@! TF.FilePolarity,Positive*
%FSLAX46Y46*%
G04 Gerber Fmt 4.6, Leading zero omitted, Abs format (unit mm)*
G04 Created by KiCad (PCBNEW (6.0.5)) date 2022-06-21 16:45:58*
%MOMM*%
%LPD*%
G01*
G04 APERTURE LIST*
G04 Aperture macros list*
%AMRoundRect*
0 Rectangle with rounded corners*
0 $1 Rounding radius*
0 $2 $3 $4 $5 $6 $7 $8 $9 X,Y pos of 4 corners*
0 Add a 4 corners polygon primitive as box body*
4,1,4,$2,$3,$4,$5,$6,$7,$8,$9,$2,$3,0*
0 Add four circle primitives for the rounded corners*
1,1,$1+$1,$2,$3*
1,1,$1+$1,$4,$5*
1,1,$1+$1,$6,$7*
1,1,$1+$1,$8,$9*
0 Add four rect primitives between the rounded corners*
20,1,$1+$1,$2,$3,$4,$5,0*
20,1,$1+$1,$4,$5,$6,$7,0*
20,1,$1+$1,$6,$7,$8,$9,0*
20,1,$1+$1,$8,$9,$2,$3,0*%
G04 Aperture macros list end*
%ADD10C,1.600200*%
%ADD11R,1.625600X0.812800*%
%ADD12RoundRect,0.200000X0.200000X0.275000X-0.200000X0.275000X-0.200000X-0.275000X0.200000X-0.275000X0*%
%ADD13R,0.558800X1.320800*%
%ADD14RoundRect,0.225000X0.250000X-0.225000X0.250000X0.225000X-0.250000X0.225000X-0.250000X-0.225000X0*%
%ADD15RoundRect,0.250000X-0.475000X0.250000X-0.475000X-0.250000X0.475000X-0.250000X0.475000X0.250000X0*%
%ADD16RoundRect,0.150000X-0.150000X0.825000X-0.150000X-0.825000X0.150000X-0.825000X0.150000X0.825000X0*%
%ADD17RoundRect,0.200000X-0.200000X-0.275000X0.200000X-0.275000X0.200000X0.275000X-0.200000X0.275000X0*%
%ADD18RoundRect,0.150000X0.150000X-0.825000X0.150000X0.825000X-0.150000X0.825000X-0.150000X-0.825000X0*%
%ADD19R,1.320800X0.558800*%
%ADD20RoundRect,0.225000X-0.225000X-0.250000X0.225000X-0.250000X0.225000X0.250000X-0.225000X0.250000X0*%
%ADD21R,1.240000X0.800000*%
%ADD22R,1.200000X1.160000*%
%ADD23R,2.500000X0.950000*%
%ADD24R,2.200000X1.150000*%
%ADD25R,1.150000X1.500000*%
%ADD26R,1.250000X1.160000*%
%ADD27RoundRect,0.225000X-0.250000X0.225000X-0.250000X-0.225000X0.250000X-0.225000X0.250000X0.225000X0*%
%ADD28RoundRect,0.225000X0.225000X0.250000X-0.225000X0.250000X-0.225000X-0.250000X0.225000X-0.250000X0*%
%ADD29R,0.800000X0.300000*%
%ADD30R,0.300000X0.800000*%
%ADD31R,2.800000X2.800000*%
%ADD32RoundRect,0.250000X-0.250000X-0.475000X0.250000X-0.475000X0.250000X0.475000X-0.250000X0.475000X0*%
%ADD33RoundRect,0.200000X0.275000X-0.200000X0.275000X0.200000X-0.275000X0.200000X-0.275000X-0.200000X0*%
%ADD34RoundRect,0.250000X0.250000X0.475000X-0.250000X0.475000X-0.250000X-0.475000X0.250000X-0.475000X0*%
%ADD35RoundRect,0.200000X-0.275000X0.200000X-0.275000X-0.200000X0.275000X-0.200000X0.275000X0.200000X0*%
%ADD36RoundRect,0.177600X-0.822400X0.222400X-0.822400X-0.222400X0.822400X-0.222400X0.822400X0.222400X0*%
%ADD37R,0.650000X0.400000*%
%ADD38R,0.600000X0.400000*%
%ADD39R,0.900000X1.400000*%
%ADD40R,2.200000X1.400000*%
%ADD41R,0.700000X0.450000*%
%ADD42RoundRect,0.140000X-0.170000X0.140000X-0.170000X-0.140000X0.170000X-0.140000X0.170000X0.140000X0*%
%ADD43R,0.370000X1.000000*%
%ADD44RoundRect,0.101500X0.101500X0.571500X-0.101500X0.571500X-0.101500X-0.571500X0.101500X-0.571500X0*%
%ADD45R,0.406000X1.346000*%
%ADD46R,1.500000X1.905000*%
%ADD47R,1.905000X1.905000*%
%ADD48R,2.108000X1.600000*%
%ADD49R,0.450000X0.400000*%
%ADD50R,0.450000X0.500000*%
%ADD51RoundRect,0.135000X-0.185000X0.135000X-0.185000X-0.135000X0.185000X-0.135000X0.185000X0.135000X0*%
%ADD52RoundRect,0.135000X0.185000X-0.135000X0.185000X0.135000X-0.185000X0.135000X-0.185000X-0.135000X0*%
%ADD53RoundRect,0.135000X-0.135000X-0.185000X0.135000X-0.185000X0.135000X0.185000X-0.135000X0.185000X0*%
%ADD54RoundRect,0.140000X-0.140000X-0.170000X0.140000X-0.170000X0.140000X0.170000X-0.140000X0.170000X0*%
%ADD55RoundRect,0.140000X0.140000X0.170000X-0.140000X0.170000X-0.140000X-0.170000X0.140000X-0.170000X0*%
%ADD56RoundRect,0.150000X0.825000X0.150000X-0.825000X0.150000X-0.825000X-0.150000X0.825000X-0.150000X0*%
%ADD57RoundRect,0.150000X-0.825000X-0.150000X0.825000X-0.150000X0.825000X0.150000X-0.825000X0.150000X0*%
%ADD58RoundRect,0.250000X0.475000X-0.250000X0.475000X0.250000X-0.475000X0.250000X-0.475000X-0.250000X0*%
%ADD59R,5.400000X2.900000*%
%ADD60RoundRect,0.225000X-0.017678X0.335876X-0.335876X0.017678X0.017678X-0.335876X0.335876X-0.017678X0*%
%ADD61RoundRect,0.250000X-0.787500X-1.025000X0.787500X-1.025000X0.787500X1.025000X-0.787500X1.025000X0*%
%ADD62RoundRect,0.150000X-0.150000X0.587500X-0.150000X-0.587500X0.150000X-0.587500X0.150000X0.587500X0*%
G04 APERTURE END LIST*
D10*
X53568600Y-57360900D02*
G75*
G03*
X53568600Y-57360900I-800100J0D01*
G01*
X127228600Y-57360900D02*
G75*
G03*
X127228600Y-57360900I-800100J0D01*
G01*
X129768600Y-143090900D02*
G75*
G03*
X129768600Y-143090900I-800100J0D01*
G01*
X49768608Y-143090900D02*
G75*
G03*
X49768608Y-143090900I-800100J0D01*
G01*
D11*
X56278400Y-131241800D03*
X56278400Y-130141800D03*
X56278400Y-129041800D03*
X56278400Y-127941800D03*
X56278400Y-126841800D03*
X56278400Y-125741800D03*
X56278400Y-124641800D03*
X56278400Y-121641800D03*
X56278400Y-120541800D03*
X56278400Y-119441800D03*
X56278400Y-118341800D03*
X56278400Y-117241800D03*
X68478400Y-117241800D03*
X68478400Y-118341800D03*
X68478400Y-119441800D03*
X68478400Y-120541800D03*
X68478400Y-121641800D03*
X68478400Y-124641800D03*
X68478400Y-125741800D03*
X68478400Y-126841800D03*
X68478400Y-127941800D03*
X68478400Y-129041800D03*
X68478400Y-130141800D03*
X68478400Y-131241800D03*
D12*
X61796400Y-68664400D03*
X60146400Y-68664400D03*
D13*
X60031100Y-64917900D03*
X61936100Y-64917900D03*
X60983600Y-66797500D03*
D12*
X50327800Y-63533600D03*
X48677800Y-63533600D03*
D14*
X97388400Y-105663800D03*
X97388400Y-104113800D03*
D15*
X94657900Y-111431800D03*
X94657900Y-113331800D03*
D16*
X51890400Y-71167800D03*
X53160400Y-71167800D03*
X54430400Y-71167800D03*
X55700400Y-71167800D03*
X55700400Y-76117800D03*
X54430400Y-76117800D03*
X53160400Y-76117800D03*
X51890400Y-76117800D03*
D17*
X60133200Y-59698200D03*
X61783200Y-59698200D03*
D13*
X56195700Y-61615900D03*
X58100700Y-61615900D03*
X57148200Y-63495500D03*
D12*
X55560200Y-68613600D03*
X53910200Y-68613600D03*
D16*
X57859400Y-71167800D03*
X59129400Y-71167800D03*
X60399400Y-71167800D03*
X61669400Y-71167800D03*
X61669400Y-76117800D03*
X60399400Y-76117800D03*
X59129400Y-76117800D03*
X57859400Y-76117800D03*
D18*
X74416838Y-134524257D03*
X73146838Y-134524257D03*
X71876838Y-134524257D03*
X70606838Y-134524257D03*
X70606838Y-129574257D03*
X71876838Y-129574257D03*
X73146838Y-129574257D03*
X74416838Y-129574257D03*
D17*
X62412338Y-138599753D03*
X64062338Y-138599753D03*
X62412338Y-136440753D03*
X64062338Y-136440753D03*
D12*
X71899543Y-137561238D03*
X70249543Y-137561238D03*
D19*
X66298038Y-138536253D03*
X66298038Y-136631253D03*
X68177638Y-137583753D03*
D20*
X83679500Y-106624400D03*
X85229500Y-106624400D03*
D21*
X55050400Y-104169800D03*
X55050400Y-105269800D03*
X55050400Y-106369800D03*
X55050400Y-107469800D03*
X55050400Y-108569800D03*
X55050400Y-109669800D03*
X55050400Y-110769800D03*
X55050400Y-111869800D03*
D22*
X66680400Y-113809800D03*
D23*
X55680400Y-99824800D03*
D24*
X55530400Y-114214800D03*
X67010400Y-99924800D03*
D25*
X67805400Y-104229800D03*
X67805400Y-112009800D03*
D26*
X57680400Y-113809800D03*
D27*
X92816400Y-111606800D03*
X92816400Y-113156800D03*
D28*
X82174400Y-109270300D03*
X80624400Y-109270300D03*
D29*
X117597400Y-60675300D03*
X117597400Y-61175300D03*
X117597400Y-61675300D03*
X117597400Y-62175300D03*
X117597400Y-62675300D03*
X117597400Y-63175300D03*
D30*
X116847400Y-63925300D03*
X116347400Y-63925300D03*
X115847400Y-63925300D03*
X115347400Y-63925300D03*
X114847400Y-63925300D03*
X114347400Y-63925300D03*
D29*
X113597400Y-63175300D03*
X113597400Y-62675300D03*
X113597400Y-62175300D03*
X113597400Y-61675300D03*
X113597400Y-61175300D03*
X113597400Y-60675300D03*
D30*
X114347400Y-59925300D03*
X114847400Y-59925300D03*
X115347400Y-59925300D03*
X115847400Y-59925300D03*
X116347400Y-59925300D03*
X116847400Y-59925300D03*
D31*
X115597400Y-61925300D03*
D32*
X113694900Y-58089800D03*
X115594900Y-58089800D03*
D33*
X122580400Y-64007800D03*
X122580400Y-62357800D03*
D28*
X118277400Y-58483300D03*
X116727400Y-58483300D03*
D17*
X119408400Y-62293800D03*
X121058400Y-62293800D03*
D34*
X114388400Y-66090800D03*
X112488400Y-66090800D03*
D35*
X98983240Y-100149422D03*
X98983240Y-101799422D03*
D20*
X95920728Y-95688611D03*
X97470728Y-95688611D03*
D28*
X48552400Y-55803800D03*
X47002400Y-55803800D03*
D20*
X83679500Y-108148400D03*
X85229500Y-108148400D03*
D12*
X120994400Y-63931800D03*
X119344400Y-63931800D03*
D36*
X111660400Y-57016800D03*
X111660400Y-59416800D03*
D34*
X130091300Y-98390600D03*
X128191300Y-98390600D03*
D27*
X67399400Y-85572800D03*
X67399400Y-87122800D03*
D20*
X108271400Y-100908600D03*
X109821400Y-100908600D03*
X104371400Y-100908600D03*
X105921400Y-100908600D03*
D37*
X106153400Y-107624600D03*
X106153400Y-108274600D03*
X106153400Y-108924600D03*
X104253400Y-108924600D03*
X104253400Y-108274600D03*
X104253400Y-107624600D03*
D38*
X106153400Y-103687600D03*
X106153400Y-104337600D03*
X106153400Y-104987600D03*
X104253400Y-104987600D03*
X104253400Y-104337600D03*
X104253400Y-103687600D03*
D12*
X129966300Y-92929600D03*
X128316300Y-92929600D03*
D17*
X128316300Y-100041600D03*
X129966300Y-100041600D03*
X128316300Y-106645600D03*
X129966300Y-106645600D03*
D12*
X129966300Y-105121600D03*
X128316300Y-105121600D03*
X67488400Y-88566800D03*
X65838400Y-88566800D03*
X71268000Y-76232400D03*
X69618000Y-76232400D03*
X71295000Y-87395400D03*
X69645000Y-87395400D03*
D33*
X65875400Y-87172800D03*
X65875400Y-85522800D03*
D12*
X109838400Y-111957600D03*
X108188400Y-111957600D03*
D33*
X104380200Y-113490200D03*
X104380200Y-111840200D03*
D12*
X109871400Y-99408600D03*
X108221400Y-99408600D03*
D17*
X104321400Y-99408600D03*
X105971400Y-99408600D03*
D12*
X109838400Y-110433600D03*
X108188400Y-110433600D03*
X106028400Y-110433600D03*
X104378400Y-110433600D03*
D33*
X111461400Y-106664600D03*
X111461400Y-105014600D03*
D12*
X105971400Y-102408600D03*
X104321400Y-102408600D03*
X67462400Y-81394800D03*
X65812400Y-81394800D03*
D17*
X108188400Y-106242600D03*
X109838400Y-106242600D03*
X104378400Y-106268000D03*
X106028400Y-106268000D03*
D37*
X109963400Y-107624600D03*
X109963400Y-108274600D03*
X109963400Y-108924600D03*
X108063400Y-108924600D03*
X108063400Y-108274600D03*
X108063400Y-107624600D03*
D38*
X109963400Y-103687600D03*
X109963400Y-104337600D03*
X109963400Y-104987600D03*
X108063400Y-104987600D03*
X108063400Y-104337600D03*
X108063400Y-103687600D03*
D12*
X71268000Y-88788400D03*
X69618000Y-88788400D03*
D35*
X69708000Y-77680400D03*
X69708000Y-79330400D03*
D14*
X71232000Y-79280400D03*
X71232000Y-77730400D03*
D17*
X65812400Y-77457800D03*
X67462400Y-77457800D03*
D12*
X109863400Y-102364600D03*
X108213400Y-102364600D03*
D39*
X54051600Y-66124400D03*
D40*
X51501600Y-66124400D03*
D37*
X130091300Y-102566600D03*
X130091300Y-103216600D03*
X130091300Y-103866600D03*
X128191300Y-103866600D03*
X128191300Y-103216600D03*
X128191300Y-102566600D03*
X130091300Y-95708600D03*
X130091300Y-96358600D03*
X130091300Y-97008600D03*
X128191300Y-97008600D03*
X128191300Y-96358600D03*
X128191300Y-95708600D03*
D17*
X128316300Y-101438600D03*
X129966300Y-101438600D03*
D12*
X129966300Y-94453600D03*
X128316300Y-94453600D03*
D41*
X51857400Y-63108600D03*
X51857400Y-61808600D03*
X53857400Y-62458600D03*
D12*
X61783200Y-61349200D03*
X60133200Y-61349200D03*
D17*
X60158600Y-62974800D03*
X61808600Y-62974800D03*
X65839400Y-76064800D03*
X67489400Y-76064800D03*
D35*
X96604400Y-75679800D03*
X96604400Y-77329800D03*
D17*
X69645000Y-83458400D03*
X71295000Y-83458400D03*
D32*
X80690400Y-110984800D03*
X82590400Y-110984800D03*
D12*
X73527338Y-126715257D03*
X71877338Y-126715257D03*
D17*
X56323200Y-59698200D03*
X57973200Y-59698200D03*
D42*
X130616800Y-53456900D03*
X130616800Y-54416900D03*
X131607400Y-53456900D03*
X131607400Y-54416900D03*
D43*
X52972281Y-47795180D03*
X51112281Y-47795180D03*
X56772273Y-47795180D03*
X54912273Y-47795180D03*
X60572291Y-47795180D03*
X58712291Y-47795180D03*
D44*
X120797286Y-52512066D03*
D45*
X121447286Y-52512066D03*
X122097286Y-52512066D03*
X122747286Y-52512066D03*
X123397286Y-52512066D03*
D46*
X118296287Y-49845066D03*
D47*
X123322286Y-49845066D03*
D48*
X125246285Y-52345067D03*
D47*
X120922286Y-49845066D03*
D48*
X118998287Y-52345067D03*
D46*
X125948285Y-49845066D03*
D49*
X51822500Y-49790300D03*
X51822500Y-48990300D03*
D50*
X52972500Y-49390300D03*
D49*
X55607100Y-49790300D03*
X55607100Y-48990300D03*
D50*
X56757100Y-49390300D03*
D49*
X59315500Y-49790300D03*
X59315500Y-48990300D03*
D50*
X60465500Y-49390300D03*
D51*
X129626200Y-53452300D03*
X129626200Y-54472300D03*
D52*
X50848100Y-50001900D03*
X50848100Y-48981900D03*
X54683500Y-50001900D03*
X54683500Y-48981900D03*
X58264900Y-51957700D03*
X58264900Y-50937700D03*
D53*
X51811300Y-50939700D03*
X52831300Y-50939700D03*
X55621300Y-50939700D03*
X56641300Y-50939700D03*
X59304300Y-50939700D03*
X60324300Y-50939700D03*
D54*
X122427900Y-54317900D03*
X123387900Y-54317900D03*
D55*
X121406700Y-54317900D03*
X120446700Y-54317900D03*
D56*
X106572400Y-57962800D03*
X106572400Y-59232800D03*
X106572400Y-60502800D03*
X106572400Y-61772800D03*
X101622400Y-61772800D03*
X101622400Y-60502800D03*
X101622400Y-59232800D03*
X101622400Y-57962800D03*
D57*
X95780400Y-74218800D03*
X95780400Y-72948800D03*
X95780400Y-71678800D03*
X95780400Y-70408800D03*
X100730400Y-70408800D03*
X100730400Y-71678800D03*
X100730400Y-72948800D03*
X100730400Y-74218800D03*
X103654400Y-74091800D03*
X103654400Y-72821800D03*
X103654400Y-71551800D03*
X103654400Y-70281800D03*
X108604400Y-70281800D03*
X108604400Y-71551800D03*
X108604400Y-72821800D03*
X108604400Y-74091800D03*
D35*
X109442400Y-61722800D03*
X109442400Y-63372800D03*
D33*
X101989200Y-68744600D03*
X101989200Y-67094600D03*
D20*
X61745400Y-88044800D03*
X63295400Y-88044800D03*
D28*
X57588300Y-94036700D03*
X56038300Y-94036700D03*
X49668858Y-94485800D03*
X48118858Y-94485800D03*
D27*
X60178000Y-95663400D03*
X60178000Y-97213400D03*
X58649600Y-95669400D03*
X58649600Y-97219400D03*
D58*
X52281800Y-96316800D03*
X52281800Y-94416800D03*
D28*
X57615134Y-88201049D03*
X56065134Y-88201049D03*
D14*
X53944600Y-90175200D03*
X53944600Y-88625200D03*
D28*
X49503000Y-88990400D03*
X47953000Y-88990400D03*
D27*
X60158924Y-89672600D03*
X60158924Y-91222600D03*
X58598648Y-89698400D03*
X58598648Y-91248400D03*
D58*
X52232600Y-90715800D03*
X52232600Y-88815800D03*
D14*
X54093800Y-95780000D03*
X54093800Y-94230000D03*
D56*
X108477400Y-76377800D03*
X108477400Y-77647800D03*
X108477400Y-78917800D03*
X108477400Y-80187800D03*
X103527400Y-80187800D03*
X103527400Y-78917800D03*
X103527400Y-77647800D03*
X103527400Y-76377800D03*
D37*
X65687400Y-80139800D03*
X65687400Y-79489800D03*
X65687400Y-78839800D03*
X67587400Y-78839800D03*
X67587400Y-79489800D03*
X67587400Y-80139800D03*
X71420000Y-84713400D03*
X71420000Y-85363400D03*
X71420000Y-86013400D03*
X69520000Y-86013400D03*
X69520000Y-85363400D03*
X69520000Y-84713400D03*
D38*
X65687400Y-84076800D03*
X65687400Y-83426800D03*
X65687400Y-82776800D03*
X67587400Y-82776800D03*
X67587400Y-83426800D03*
X67587400Y-84076800D03*
X71420000Y-80776400D03*
X71420000Y-81426400D03*
X71420000Y-82076400D03*
X69520000Y-82076400D03*
X69520000Y-81426400D03*
X69520000Y-80776400D03*
D59*
X122453400Y-74475800D03*
X122453400Y-84375800D03*
D60*
X93910509Y-103223184D03*
X92814493Y-104319200D03*
D20*
X93514600Y-97726000D03*
X95064600Y-97726000D03*
D14*
X85140300Y-93277000D03*
X85140300Y-91727000D03*
X80616400Y-97473800D03*
X80616400Y-95923800D03*
D28*
X77686200Y-105003600D03*
X76136200Y-105003600D03*
D20*
X83679500Y-109672400D03*
X85229500Y-109672400D03*
D35*
X96948400Y-121118800D03*
X96948400Y-122768800D03*
D61*
X117562900Y-69646800D03*
X123787900Y-69646800D03*
D17*
X68542400Y-73583800D03*
X70192400Y-73583800D03*
D33*
X76647400Y-73324300D03*
X76647400Y-71674300D03*
D12*
X102117400Y-120546800D03*
X100467400Y-120546800D03*
D33*
X89052400Y-71487800D03*
X89052400Y-69837800D03*
D35*
X98296400Y-121138800D03*
X98296400Y-122788800D03*
D33*
X103979400Y-65518800D03*
X103979400Y-63868800D03*
X78171400Y-73324300D03*
X78171400Y-71674300D03*
D12*
X93365400Y-71831200D03*
X91715400Y-71831200D03*
D33*
X79695400Y-73324300D03*
X79695400Y-71674300D03*
D17*
X94536400Y-125307800D03*
X96186400Y-125307800D03*
D14*
X102332400Y-65468800D03*
X102332400Y-63918800D03*
D35*
X103665600Y-67094600D03*
X103665600Y-68744600D03*
D33*
X87528400Y-71487800D03*
X87528400Y-69837800D03*
X81807000Y-74914865D03*
X81807000Y-73264865D03*
X86004400Y-71487800D03*
X86004400Y-69837800D03*
D17*
X94536400Y-126731800D03*
X96186400Y-126731800D03*
D14*
X103711962Y-128766756D03*
X103711962Y-127216756D03*
D35*
X95642400Y-128171800D03*
X95642400Y-129821800D03*
D12*
X105617400Y-119071800D03*
X103967400Y-119071800D03*
X105617400Y-117571800D03*
X103967400Y-117571800D03*
D33*
X82067400Y-71233800D03*
X82067400Y-69583800D03*
D17*
X91676800Y-70408800D03*
X93326800Y-70408800D03*
D12*
X107680282Y-63315140D03*
X106030282Y-63315140D03*
D33*
X73558400Y-70852800D03*
X73558400Y-69202800D03*
X121056400Y-60819800D03*
X121056400Y-59169800D03*
D27*
X99818400Y-111314800D03*
X99818400Y-112864800D03*
D12*
X102117400Y-117571800D03*
X100467400Y-117571800D03*
X102117400Y-119071800D03*
X100467400Y-119071800D03*
D33*
X84480400Y-71487800D03*
X84480400Y-69837800D03*
D35*
X109431400Y-64693800D03*
X109431400Y-66343800D03*
D12*
X105617400Y-120546800D03*
X103967400Y-120546800D03*
D62*
X105824400Y-65073300D03*
X107724400Y-65073300D03*
X106774400Y-66948300D03*
M02*
